<mxfile host="Electron" modified="2024-06-24T10:59:08.855Z" agent="Mozilla/5.0 (Windows NT 10.0; Win64; x64) AppleWebKit/537.36 (KHTML, like Gecko) draw.io/24.6.1 Chrome/124.0.6367.207 Electron/30.0.6 Safari/537.36" etag="pHn-3pMlmfN7Cs2o750c" version="24.6.1" type="device" pages="3">
  <diagram name="Page-1" id="5f0bae14-7c28-e335-631c-24af17079c00">
    <mxGraphModel dx="1434" dy="956" grid="1" gridSize="10" guides="1" tooltips="1" connect="1" arrows="1" fold="1" page="1" pageScale="1" pageWidth="1100" pageHeight="850" background="none" math="0" shadow="0">
      <root>
        <mxCell id="0" />
        <mxCell id="1" parent="0" />
        <mxCell id="39150e848f15840c-2" value="&lt;font style=&quot;font-size: 24px;&quot;&gt;Remote&lt;/font&gt;" style="verticalAlign=top;align=left;spacingTop=8;spacingLeft=2;spacingRight=12;shape=cube;size=10;direction=south;fontStyle=4;html=1;rounded=0;shadow=0;comic=0;labelBackgroundColor=none;strokeWidth=1;fontFamily=Verdana;fontSize=12" parent="1" vertex="1">
          <mxGeometry x="660" y="30" width="330" height="220" as="geometry" />
        </mxCell>
        <mxCell id="zUkop8dcVhjz3MHx7N5J-1" value="&lt;font style=&quot;font-size: 24px;&quot;&gt;Host&lt;/font&gt;" style="verticalAlign=top;align=left;spacingTop=8;spacingLeft=2;spacingRight=12;shape=cube;size=10;direction=south;fontStyle=4;html=1;rounded=0;shadow=0;comic=0;labelBackgroundColor=none;strokeWidth=1;fontFamily=Verdana;fontSize=12" vertex="1" parent="1">
          <mxGeometry x="130" y="70" width="330" height="220" as="geometry" />
        </mxCell>
        <mxCell id="oTDUTj0uLXHdb0qbJCbI-3" value="" style="sketch=0;pointerEvents=1;shadow=0;dashed=0;html=1;strokeColor=none;fillColor=#505050;labelPosition=center;verticalLabelPosition=bottom;verticalAlign=top;outlineConnect=0;align=center;shape=mxgraph.office.concepts.web_page;" vertex="1" parent="1">
          <mxGeometry x="270" y="130" width="50" height="54" as="geometry" />
        </mxCell>
        <mxCell id="oTDUTj0uLXHdb0qbJCbI-4" value="" style="endArrow=classic;html=1;rounded=0;" edge="1" parent="1" source="oTDUTj0uLXHdb0qbJCbI-3" target="39150e848f15840c-2">
          <mxGeometry width="50" height="50" relative="1" as="geometry">
            <mxPoint x="250" y="160" as="sourcePoint" />
            <mxPoint x="300" y="110" as="targetPoint" />
          </mxGeometry>
        </mxCell>
        <mxCell id="39150e848f15840c-7" value="CounterButton" style="shape=component;align=left;spacingLeft=36;rounded=0;shadow=0;comic=0;labelBackgroundColor=none;strokeWidth=1;fontFamily=Verdana;fontSize=12;html=1;" parent="1" vertex="1">
          <mxGeometry x="750" y="90" width="140" height="60" as="geometry" />
        </mxCell>
      </root>
    </mxGraphModel>
  </diagram>
  <diagram id="DqRbp1LBfjnDX5JrR2EJ" name="Seite-2">
    <mxGraphModel dx="1434" dy="2125" grid="1" gridSize="10" guides="1" tooltips="1" connect="1" arrows="1" fold="1" page="1" pageScale="1" pageWidth="827" pageHeight="1169" math="0" shadow="0">
      <root>
        <mxCell id="0" />
        <mxCell id="1" parent="0" />
        <mxCell id="wzgoTrztu6sZJbIXpPw0-1" value="" style="sketch=0;pointerEvents=1;shadow=0;dashed=0;html=1;strokeColor=none;fillColor=#505050;labelPosition=center;verticalLabelPosition=bottom;verticalAlign=top;outlineConnect=0;align=center;shape=mxgraph.office.concepts.web_page;" vertex="1" parent="1">
          <mxGeometry x="270" y="100" width="50" height="54" as="geometry" />
        </mxCell>
        <mxCell id="wzgoTrztu6sZJbIXpPw0-2" value="&lt;div style=&quot;text-align: left;&quot;&gt;&lt;span style=&quot;background-color: initial; font-size: 24px; font-weight: 400; text-wrap: nowrap;&quot;&gt;&lt;font face=&quot;Verdana&quot;&gt;Remote App&lt;/font&gt;&lt;/span&gt;&lt;/div&gt;" style="swimlane;whiteSpace=wrap;html=1;" vertex="1" parent="1">
          <mxGeometry x="720" y="-90" width="650" height="930" as="geometry">
            <mxRectangle x="1070" y="751" width="140" height="30" as="alternateBounds" />
          </mxGeometry>
        </mxCell>
        <mxCell id="wzgoTrztu6sZJbIXpPw0-3" value="&lt;font style=&quot;font-size: 24px;&quot;&gt;App 1&lt;/font&gt;" style="verticalAlign=top;align=left;spacingTop=8;spacingLeft=2;spacingRight=12;shape=cube;size=10;direction=south;fontStyle=4;html=1;rounded=0;shadow=0;comic=0;labelBackgroundColor=none;strokeWidth=1;fontFamily=Verdana;fontSize=12" vertex="1" parent="wzgoTrztu6sZJbIXpPw0-2">
          <mxGeometry x="130" y="80" width="330" height="220" as="geometry" />
        </mxCell>
        <mxCell id="wzgoTrztu6sZJbIXpPw0-4" value="CounterButton" style="shape=component;align=left;spacingLeft=36;rounded=0;shadow=0;comic=0;labelBackgroundColor=none;strokeWidth=1;fontFamily=Verdana;fontSize=12;html=1;" vertex="1" parent="wzgoTrztu6sZJbIXpPw0-2">
          <mxGeometry x="220" y="150" width="140" height="60" as="geometry" />
        </mxCell>
        <mxCell id="wzgoTrztu6sZJbIXpPw0-5" value="" style="shape=image;imageAspect=0;aspect=fixed;verticalLabelPosition=bottom;verticalAlign=top;image=data:image/png,iVBORw0KGgoAAAANSUhEUgAAAf0AAAFeCAYAAACPRMbIAAAAAXNSR0IArs4c6QAAAARnQU1BAACxjwv8YQUAAAAJcEhZcwAADsMAAA7DAcdvqGQAADuWSURBVHhe7Z1xzCXXedb3n0qRoqRSVRdVTq2qFRVRo5B201opiEJrWy0uKE0wFWQRUS0QrJTaQmgRsYgcIQfb28iSsxisWuAkqF1MAo0SC8coxXIsuTJxU9aFpEDcdHHj3XW6ybomdhKrw3nut8+X93v3nJm597v3++698/vjpztz3nPe854zZ+aZc+69M0cuXbrUAQAAwPaD6AMAAEwERB8AAGAiIPoAAAATAdEHAACYCIg+AADARED0AQAAJgKiDwAAMBEGRf8dv/6OGTXbcy881117/7Xdez/93qp9ET7yuY90R24/Mvus2TcZt028/gOv7z7z+5+ZpbsfhbZzOQAAgGXQK/oSqTd88A3dF7/yxapdYr9soeoTfYnkGz/0xmY864xiv/pXr94V+sgqRX+T+wwAAJZLU/QtRK0Zt0REYlITsVWhWDZ1Nty3YrJKNrnPAABguTRFX7P4PpGSbeyyvm8gYv4885XNS9/5RiPaIjE+11GzjUF1Rt8xVt3gaMWj5lv53Be1sqJ1AxX9toQ5xxW/FuhjTJ/Jj/zZ1reqAwAAm09V9CUGfUvCi8weJTZRcOTDIiPue/K+ar6I0rOgCounbd7PIttC5VqCZ2G0r+xbMUUxjX2TRdVYuNVm+dN2bek/xxX7LObrY6jPxvYRAABsPleIvmelNaEQi4qF8kcxl/+4bxYRKZWJvloiWmMoby2emKbteAOk+PINkXz33UTV7LX2qs55brb6+qzPBgAA28kVol8TrUhLrIeQsF3/4PUzv0LbWWj7hKglnPKlePNseqyY9Qmp6sq/W3B98h+3ba/dJIzp02xXGfVFbG/Ndx+tPot2r0QsckwBAGCz2CP6NZGLDIlIHyojYdOnBK0mMn3+W8I5FPMQfTcx8plXAWKM2V67CRDy3yeqsg3dKKiO+DXDGFp9lnHc89xQAADA5rFH9GviY1qCNhaV1+zeQtQSds9uJXK/+cxvVm2xzFjBUttqKwAtv0JpceXB+65L6VFUZc83IEP9luO/87E7Z2kxLgu+fwuQy+Z009e2yFCMAACwHeyKfhawjESpb7Y6BpVvCZSwqEqccywWJi/fR5G3KNomsoC1RD/aTPSt/NEWy+c+URx5paJ2I5CRn+w/tldt081A9u08rT5t9Vns52wDAIDtZSb6Fs2aIAql94k1tKndCCyCRDnfCAEAAMzDFT/kg+WilYC4GjAWlfFNmGfmrZsyAACAMSD6KyAuqy86O/fqC8vvAACwLBB9AACAiYDoAwAATAREHwAAYCIg+gAAABMB0QcAAJgIiD4AAMBEQPQBAAAmAqIPAAAwERB9AACAiYDoAwAATAREHwAAYCIg+gAAABMB0QcAAJgIiD4AAMBEQPQBAAAmAqIPAAAwERB9AACAiYDoAwAATAREHwAAYCIg+gAAABMB0QcAAJgIiD4AAMBEQPQBAAAmAqIPAAAwERB9AACAiTBJ0b/ttle6X/u1b1RtLf7gD17srrvu1e7IkW7GvOVrRJ9vetOr3dNPv1TNtwzOnDnT3XPPPd3Zs2er9hZPPPFEd/vtt8+44447Zn5s+8QnPjFLV55YZhNw7OLuu+/e0y/LaNfp06e7kydPVm1KP3r0aNMOALAqNkb0JYjvfOe3ZkJZs8/DIqKvMqJm2y9qk9pWE/1FYq2xiOgrrwSxJX6rFP0+Ud4v6gv5jDcwkf226/HHH++OHTtWjbnPBgCwahD9EZw//2L3y7/8re7RR/9f1b5f1lX0FymzDB588ME9Qq/Pj33sY1fkWxSJ+alTp8pxPV+17wfFKlGXuNfsfSsAAACrZo/oW9y8hB1nthI8pVn4nFdoW+kWKJePYhWXsoXLRV/2IbuXu3M5M89yeG6XiLG5bS2/jsFtj2TfsV01Ma+JeC1f7MdIPCZDSNw8W67NmIdm0ypfS9e+0lUuL/kL+RUSb/uPs2aJrUTXNuWzbWgWLqLfWL/83n///btxy16LX7HVRH+oXSLWbeTP9iFRR/QB4DDZI/oSFIuKxSwKlLYlfhIpbUeBs3C6vATsZ37m27PP7Mv7uS6Vd54Yi/0tOtPPvrTtemKc2lc73Eal6SYgiq6wXfl/4ze+sVs2t7Mm5rFuU8tnavnHkMVTn3HWngU9CqG2s7CJKM5CZeUzi6PLWwyjb+3Lj335BqCVN5Pt2nc77MuCnX3XBDvGaVrtin1m37FPLly40J04caI5yxeIPgAcJruiL+GRYFnMhARQaRZ2IRH6wAdevkKkcl4LoNKjkDq/ylrEnTcKc/YX8zvPGGrlopDqM4pqjNtpKtua6Wfky+1QudxPNRGv5TO1/GOQGEUxy6Ive5x914Qu3xhkWuKoeqMYxrqFxDL6VD0WcpX1tu1GZRRPjNviq7S4bXuOxWmtOkSrXfITfWU/Knf8+PErykUk+BL+mg0AYNXsir4EpzarjcIrLIBZiLJIWzyVL9tEFOOa0GZq4j2GWrkopNrObRZjRb/Wb+su+hbHPOPNS9qrEH1tq55ct8WzT5Br9bktByH6Kpdn+kqzXfnf9a53XVFOSOj1i/2+VQAAgFWzR/SHRNXirCXtLIJZ2KOQizzTj2mHLfpDoqqyNdF3eiyv7U0R/SiONVYl+t6OZYzqbH2frjJ5ph/TVi368lu7UYnlmOkDwDqzK/oWXgtWDYmPhT0Lufaj6Cuv7VkcXVfe7xN9++jLUyOXU52ajbtupQ/9KLBVd06XD/mKot9Xt1G+lugrb+zXsURhszBGAZe9T9CFRK4vj9LnFX0LcxZiY3sUVJXzr/dVLtpiO112FaJf853hO30AWHf2/JDP4huXqi1Q+ozi6LwSNYmWhC2Wc7p9WwBtjzcXY0RfxDqGhDoSy3nmHIV3bOy1+OQnltPvHWLbct2uP9tMblc+JtF3HxYpzUg1c5ZYaT8KuMSvb+baEn2lx3Iizs77RF/7MTajMs6f7TkG+a7ZasI8j+gPtatmz34k6hJ+3QA4LYLoA8Bhskf094MEbJEZKcAmULuhcFq8YdENCP/TB4B1BdEHGIHEXKsKUfS1AuBVlJhXgt/3RL6+lQAAgFWC6AOMpLa8nwXf9M3olc6z9wHgMFia6AMAAMB6g+gDAABMBEQfAABgIiD6AAAAEwHRBwAAmAiIPgAAwEQ4MNH/xqlTu4+de+XWW6t59ov8/uk113R/8tRTVfth4Eez6i9a/E0LAAAOkwOf6Uv8pyj6vF0NAAAOm60S/XUE0QcAgHVhaaL/0sMPz8Q8LuNrO+erif6Lzz7bffuGG/bM0O3L+9GvsR+V0wxfaa++9a0zfy734rlz3TdvvnkWn2y1PLJFv7W4tSzferRqH4g+AACsC0sVfQlmFOJXjx69Yql9EdHPvmT71k03zQTd+Z1PfrLoK6+X/b1v37W6ayD6AACw6SxV9KMQW1yVHvMtIvr6jL49a4/iLvpEP8YRY1Be+XJdywbRBwCAdWHlop/FNAquGRJ9+Y4/0JMt+xCLiL5QudbXA/sF0QcAgHVhI2b6UZT7hHlR0Y/ItkzhR/QBAGBdWJnot8SzJfrKa2FWnviDungD0McyRF/5anHznT4AAGw6S/8hX202buGNdhGFN5ZXehT6PNMX0b9vEmr2IdHPccevESKIPgAAbDorm+kvk3gDENMs3OsMog8AAOvC2ou+Z+pR9DWD10w+3wisI4g+AACsCxsx068t72+C4AuLPs/eBwCAw2Zpog8AAADrDaIPAAAwERB9AACAiYDoAwAATAREHwAAYCIg+gAAABMB0Z8DPY3v+PHj3ZkzZ/ak6S958z6pDwAA4KBB9AsS8XvuuadXuP1/+9OnT19hU5psypNtAAAA6wKiXxgj+kPCrofu1G4IAAAA1oW1EP3z5893p06d6p544onuwQcf7G6//fbujjvu2LOMLpvSazbxiU98otceywvll8jffffde9JFLq98eVk/I5vysMwPAADrylqJvsVYaRJ/oW0JqsTZoisB174FVumPPPLIbFvIh/zJr/PXbgSM0vtm+npu/tDyvZf/ecY+AACsK2sl+hZ5IaG2cEvEfTMQ8yuP0yJRxJ03ls8Mib6W7cc8M58lfgAAWGfWbnm/ZveSf8b5XT7avBIgtN3yLYZEX2I+RvTH3hwAAAAcBhsj+n0zddlVXn60X5vp70f0mekDAMA2sBGir/S+7+Ql+v5qwL7id/66YYj7GaX3rQbs9zt9pfFaXQAAOGw2QvSFbLXle9l0M6CbAtseeuihK2buEv5YPq8cRP+1X+8fO3as90d6yt/69b7LD904AAAArJK1EP1NQMv2faLdt7TvVQBm+gAAcJgg+iOxcNeEve+GQDaW9gEAYB1A9OdAy/Q8ex8AADYVRB8AAGAiIPoAAAATAdEHAACYCIg+AADARED0AQAAJgKiDwAAMBHWTvTjk/P6Hp3bh56uF5/Ff9j4iYF+VPAq0PMAWs8CUDrPCgAAgLUSfYmjhD7+D34RDlr0h14ItGrR1+OB9Zjf2g1Snw0AAKbFWon+ssR63UR/lUjM+94L0LcCAAAA02KtRF/C2RLrvhfiiPi1gIh+9Kl92+KMW370cp5nnnlmtsqQy2bfse5cp4n+te302o1B9qF2Kl3133///bN9x1X7umNI1BF9AAAwayH6URgjFkmJbFz2txBaAGv7Ubjl30LsG4DoW0JuMZcP+bL4Ku2RRx6ZbQuVyzcF8l0T9EgtTy1ux+E483704fcB9L39D9EHAACzETN9pUexswBKJOO27dq2Hwmqti2s2W7Rj+X7RFz582t7FxF9x53LOV+tXUqX3fuKIb8LICPBl/DXbAAAMC02QvQldLWVAAliTRxrop7LRnsW8Yj9x7Jxdi72I/ox7pivZs+ir9jf9a53VUVfQq9f7PetAgAAwLTYGNFviWpNHLPo94n6kF11x5hq+fviMzmP426l1dql9Cj6ioGZPgAAjGUjRF/C5++2Y7qREFoMlUd57cfiGcUyMkb0Xda+8ky/FXdEPqLAC+3n7/S977r6RJ/v9AEAYB42QvSFxK+1xK5P7TtdefXLd/uxgMbyFuAh0fdNhMs99NBDV+TP/i3MMa5IFH9tOz3e2IwRfSFRl/DrBiCmRzuiDwAAYq1EH+ZHNxb8Tx8AAMaA6G8BEvy+J/L1rQQAAMB0QPS3hL4ZvdJ59j4AACD6AAAAEwHRBwAAmAiIPgAAwERA9AEAACYCog8AADAREH0AAICJgOgfIhfPn+9+6+abuydvu6174ctf7j513XXdMw88UM170Hzp0Ue7j7/lLd1zTz89i0mxKcZaXgAA2AwQ/UNkHURfdVvcYzqiDwCwfSD6h4xEV6LqGwCJbS3fsvFNxufvvbf7ZPnMoq/9R2+6aZZPMSk2xRjzAADAZrEVov+NU6dmvHLrrV135MiMlx5+eNf+4rlz3beKgNmmbaWJbxYxe/muu2bpKm8fsbx8u+yrb31r9+Kzz+7ahJ9/v+wn3vlG4KNXXTUjCq/E2DcJmpFnu9J9Q+HycRXhc3feORN2URN9AADYPrZG9CXI+vS+hX22/+EPd3/y1FOzbd8AKI+3xUuPPdb96TXXzNKFxF/5Jf5R6LNvsSrR/8Lp07ti7BsAC7dn6l52z3aJvoRewq/9lrgj+gAA02FrRN8iLSTw377hhitm5Mb5LfoS9lgm+tPnnlWDYlc+30QcJBJ0i7iEXsvvUayjPS/J+6ZA6c4vEH0AgOkwCdHXvmbxXqIXY0Tf9lhOyNdBiL6E2Ev3Zkj0LfQt0fdKgEH0AQCmw9aLvtDyvPLk/GNFP870Dwov30eRZqYPAAD7YTKib+GWTTP1MaJv37Uf70VW8Z2+Rd8iLVHWrL8l+rY7fxZ93RD4+3/tm/2Ivl/Zq3f21+wAALBeTGJ5X3YvzUvAX3nf+0aLfi4vVEZlbV/VD/kk1F7Wl2DrF/dR9JUWl/7jLF7b0ZYFP/o2/l++8wwhsZfo613+NTsAAKwXWyH6UyTP9DN5pr8Kzpw50914443M9AEANgREf0M5TNG/cOFCd+LECZb2AQA2DER/Q1mHmT4AAGwWiD4AAMBEQPQBAAAmAqIPAAAwERB9AACAiYDoAwAATAREHwAAYCJslej7kbt+cp6epJdt+Wl6scxBvUhnHfAT/fRkPv3tLz7CFw4XHZN5n44YH7Ospzbyd00AqLFVoq9H58bH50Zaoh/tegwvol/Pf5BIrCRai8QjwcuPF1Yba3lrqC/0/AP1T81+ECD6ALAqtkb043P0a/Yhpib6UVglFH0P+jlo9iv684h8Zh1EfxHUVxZ6td/vaAAAiGyP6F+eyddEP74wp28loCX6+YU9yjsrU240vlkutKrTXxFE+yzP5bhy/UrXTYpe/qP0l++6a7Yfv2LwjUwuG/Hz75f50psoup4555mnbJ5JR5vEUmX1ciDZPn/vvbP9nEezUpe3WMlWm6mLKOTadrpnt7b1ib5jU+yKR+Vdd47JxLgtrH/4xBO75S2uqjO2o5XWIrYp1yt8TGzP7QYAGMPGi74EUkJpYTRZfEV+e15EeWuib0G3L/nwVwQWZQu19+NvCV6+++7dsvqUL/n0tuLRvmLWp/ZdXtuOt+ZbrFL0JS4WUImbBU5iFF/HKzG0CFk8ldc3Bvq0GNu3/XrfvmOayjnNxLq0n4XV9cQyxrHlWGM9alNrpu/2uHzsh9wnuZ3zkH0J+Yl9BACwCJOY6ZtFRN+iXMtnIY72vjqEbMoT/ai8bySifZZWPl025os+l01NiCV4FlcJUBSzKNISQ39VEMtYjJUWRVsobxTa6M95jPzE9Fif7Z4NG+fPeZ0/tiXHEpGfOAPPcUZffX6GUNma6Od+AwCYF0T/MlGEd9Mui3peRcgz+z7Rly2XHyP6Sq+tYByk6NdEV9SE1eIahVX7NdF3mv1lgWzV7/RcbxTiLOKRGJvT5hX9HHvLLp+tOIZQDFn0Rez3RX0DwLRB9C/TJ/otn0Oib+GOdov6GNGXXflc9qBoia4ZK6xRBKPo5xlrTmvVPxSXOEzRt3995//ZW265QrTHonI10TeqR/2F8APAvCD6l6mJvlAZ+a2J7xjRf/Xo0V2fyjd2pm/frXjNqn/IV7MrPf/QzERhjSJpcc2C5bqygCm/iGlC+fqWufcr+o6v1vYh0RfyJcHWDxlrdtWnmXqrb8WQ6Lf6rI8LFy50J06cmI0VjZlaHgDYfrZe9C2eeZncYmohjnj53j4kwtFugR4SfaHtWE6/9h8j+ipbi902cxiiL2TzUrOwEEdhjSIZxdXC6rI1cc95osBp2+kiCrFFNRLrHRJ9EdsWb25ie2L+iPKqTKvvFhF9Hw/HJGp9NoTGyNFyE/r4449X7QCw/WyN6AOsAxJq3VjoBqNmH8MyfNSQ2DPTB5g2iD7AkvCMPK8czItm8UMrCvNw9uzZ7tixYwg+ACD6APslLr8vsuyel+/7frMAALAfEH0AAICJgOgDAABMBEQfAABgIiD6AAAAEwHRBwAAmAiIPgAAwERA9CfAyZMnZ09i02fNDgAA0wDR33L0FDY9mEUPaKnZAQBgOiD6W46et84MHwAAxNaIfnwpTnwrnl5ooxfoxBfV6KU2zqOX3fglN62X2sSX5uSX8eSX4uQ38vlFQLZn37FekV8Y5EeoLirciD4AAJitEH0JZRRbCanfWme7xTrn1b7EVsKufeWJr8PNvrSf63LZjG8IlGe2f/kGwMKuOobemY/oAwDAstgK0ZfoWkiFRDS/G1/Cq9faSoRjXm1HUbdQKz2LdLZrP98ERFS/6rRvEW8SZNfNSPS/bCT4y3ztLgAAbC4bL/oW4bhELlrL8HlW3hJ9iXPt5sH2KNTy6Xo9qxfKE2MyMYaYJ8axX3h3OgAAZLZG9IdmyxLal++6a1fQnd4SfaVXZ/qVtGyz/+x7CMU4T/4xMNMHAACzFcv7EtnWEruQ+NquWXv8zj4Lc/aVhVj2ljArTTaLfr4JGKLmm+/0AQBgWWyF6AsJZlxCt3hK1LUfZ+YS8vjDvliudvOg/DW7RT6WV95Y1sIf8ziWHHOtbkQfAACWxdaI/qLkmf62gegDAIBB9Ldc9PVDvhMnTnQXLlyo2gEAYDog+lsu+kIzfZ69DwAAkxd9AACAqYDoAwAATAREHwAAYCIg+gAAABMB0QcAAJgIiD4AAMBEQPQrfOb3P9Nd/atXzz5r9o987iPdGz74hu6LX/li1T4P7/30e7t3/Po7qjajOF7/gdfP8tbsh4FieuOH3riUPlgmz73wXHft/dfOjlHNDrBM+s5NnRs6R1rXkRZjxvCivjeZMddKGAbRT/iEawmsTjYJ/lhRkZ8jtx+5At80aBAPifk6ir7ar35Sf9Xsq6ZV/0FcDH08fCwP8kI0ZrzMi8d8HJ/ztkl90ncTuIq414G+c3OoT1qMGcOL+h7DmJuOVdFX97aOoYMG0U8MiZkG3SIX+dqJfJgn135ZtB+WRav+VV4MhY6VRDEeszsfu7P3Ar0sVjVeFHtc2dKnhGyeepS3dd5s8jjfDxqjfdeSFmPG8KK+xzDmpmNVtOqe6hhaBYh+YGiwjzkZW2iw5q8EXJ9EwzPHeCKrjGdeOsldLiLhc56+fBmVU72KSWhb5aOQylf0HeNXvnd//N2zNNkUf+w3n6QumwU6+872FsoXyxm32+Lznk++5wqbif2a4+5D+YbEMLYr+q5dtJTX7fbYkj2PBfW5+zmSY499E8eRPq9/8PpZXueJZd1nzu9xaXuMUzhW5YvtjSj/2LhbfeY4FJ/9xDE4BpW17+jfPqMvxRzbWYtfsWa/TstkfxGPh+jbeX084hhWWizf51vI5rLx2PahflH/uJyJ/ZTjHuvb5OPhdg3VLfqulTUfsc+0rT6Jefr6L9M3FuRH27HPXbfj1r7Lx/4UOe5sXzaIfsAHr2bzYI8DaR48KGKaD3Ye2EpXfRrgLls7uVrpQ7gtqtuDUag++1Os0bfyeV9xKn8c3LHvbM/7zus6la79eXH89hdRnYrLfR3jtj3WPU8fDuXNfRbzqz4f25hfebStOOMJX8uvbaXlfpN/1eM2e9++7Uuzeacpr/Mrzdu2xXZo3+VE7tNankgrbpHrkg/vq5zGqNC221U77jXkKx7rGIe24+qGfbsNrtt1xbq1PXRu9sWq+hVX7K/Yf/rMYzi2o8+3bS7r/VjXEPJba1OOe17fyhfbkdvltFrdPh7OL+L5oXIeJ96PvlW3jnfr+PfhuuVT+2639r0tv+4HfboNrsex5j5TLIrTvg8CRP8yeZBk4oGs2YeoXRS1HwdqHsgxn0/inL5ITHHgxQHtejxQYxxKdwwuo/zaV9nYjpjX+aO/ob4eIvszblfsE9Xl/Vq5HGuL2Gc1u3z6glJLy3Z9xpM996HseSy0jndOz77lIx4vEdutT4mMif3hdttXLityfZlW3LlPcprjtt9aLC1qMcU4hFc/nD/2d26j0mtjTj5jPpP9RYaOl/xFu3zEftqP7zHktptaW1vtz9RirqX11d06P2ptzP0gn8qjvNpXudrxrJFjimXlX/VEu+Jw3coTx7BQXsWn7VrsqwbRL/jAtTq+NjjnoeW/NphUjwemcFkPkozK60IdT4ghYnviAPVgzCdMjl+fGqha3m+JRBQRkduuOlq2IWLMMb12Aqkex6f0GJOo+akxdHLGekyMM/ep+j5edHL5Wht9fLwf03O7Yr7auDK1dsmfY8lxKh7FNda/aMWd2yxiu3MfDNUTUVm1K+bNcWjf7danY6n1SY5F1PrCtGId6r8xdff1g9rQNxaGcHyx/r703Kctav2X29GqQ6geHx8Ry2pb17/Y5qFjP5ah4yG74lAMNXut3TmWGH9s46pA9As6AH2dveiAMTqo+a6yNsBrcdQGVQ35yQO9hXxplqMYVKfQtmc+OQ75jjcVtvuE0L7zjo3XKN/YO26T4zPy0XcRaZUbg9saj1dEfrNv7btv4rb3fbwcZ7TnWGvjpS89Il/Ko7zZVuv/mF9+Y1nt6+IU68t5In3xqX2xjU5zP2R7Xz2ZnFftyzMu1SOUp2/W7zbkWPvGeitW+4pxyK/zylccw7aP6Yea73lptUnpefz3tT9TG4NKi+1q+au1K5Zt9YepxT6WHJNjcd2t46X4tD22jcK+XXZVTF70awctMjSgxiAfvsA7rXbw42AxsvuirDL3PXnfHruZJ844EPWpsvKt8vqU3b5Ury6WUfRjnLlt8w5c+ezr/xoxvpie+0A+Yx/XjsM8qN2xvD5/5VO/MtvOMWk/5o19pk8Jp/PnOHN+0devyityusm+IrnPfLyVnu22xbHgPK1+7YtbabFu7duPyzkO2/vaGYkxCW3XblbcNzE+53de5anNwtQHrXMztk34piL3hz7jWFCdsU9iO4Z8y6YYx/ZRjdx2k+P2/ti6cju0n8dRq26l950fSu+bOCh93muMyTGp3jgWFEPsA+27ne4jlx3qs5zfuM6cviiTFv1WJ5vaYFuEPDBEHoitWJyugx5PGvlUmom2IRSLysf2qV7Vo/qULn/2K5tjzXF632WVJn86oWN8zq/PmJ5P/DHE+KLv3M+5j4VPIBPjHsJtddnY59mW/cZ2u/8d69ixEH3EunN/CPnv82XyOGpdiGXTp/zkPs1td92mFXdfnymPx6b9uN+830f0rTY57uhP27LFMWNiv2i7VnesI7ZL2Ld9xP6P/ZHHQrSJ7Ff0+VZeHy8zts9MbHs8Jrneef2qjS5ba5eo1a16h86PWC77V77YjnmJvrUdx0Jsk4j1DB2LscfKdcT27odJi746szUYPLCUJ9sAAGDa1G4+IvlmZV3gO30AAIA5kZjn1aPIflcYVgWiDwAAMCdDM3l/FVCzHSaIPgAAwERA9AEAACYCog8AADAREH0AAICJgOgDAABMBEQfAABgIiD6FfRXjL7HOur/l60nSh0kQ/8TPUzW9e8q68Q6H78psOr/Uc9zfFeVdxnoPK49Ka4PP7jGT5qL1wLFrSf7zetzXua5Bq3rf+pXAaKf8GBtDUidcBL81lOYMnnwm7Hl+9DJo5NfMdXsY1jVYF/kQjE1lnH8psCq+mkeUViEeeJeVd794uvXvNcr9WurbxX/QYj+PNegVY+FdQLRTwyJ4LyDQyemTlAN9Jp9PyxDsFcx2Be9UEyNVd1wbRur6qd5RGER5Hts3PO08SDHzSLXL+XtWyk9CNQ36qOx16BVj4V1AtEPDA1wpc97hz1URul9L13w4LUtfq1gwRa2zzPIXSYS69a203VnPvYkdj/e+diduy/oUH0xj3zFl3eMjVvkPom+tR0viK7HefTpfqvVnX1HX9Gf7flrHvmyLfdZ9i1i7EPk8rHuvrhVh46F8gttx7rdH/F4x3HgPLbFdvlYq93yLXvuk75j7Xr1me2xzojjHkP24bLuL/eLbDlubdsWywrFGPvY/RCPt/K3Ys3HK/vvw/0lVC6PM2GbiHGOIfdZ7pch37lvYrrLqY5oE/LrtjlfHCu5z5Qvlo/+Ra1fathv31joq1v1aj+O8xxbbFOtbw4SRD+gA1MbjMIHPQ7CMSh/6yB7kNhnrsMXnVZMHki2+4TJ+Vr0tUl+Ytzy3WpHxu3yieN2uB59xhNS+/kka5H7JPvWvi++Oa/bK3vsM7erlb9VV0b5ZFc+77d8i77xlqmVb9li3N72OFM+oQucY1Mc6hOPnXw8+saCj7WPp+tzH+mzdaydd2gMz9NPkdyOiPusFbfb5X3n936OU/nVh64r+4vYV2zTPG1U3txnPh6u17F5fx7f9qV9xT/Wt+PKKF15NeaUL8ar/ehL+WO7XFfus9rx0L77Px+PPuyrNRbG1K2VDdcnH17psK9Wnx0GiP5ldADjoMnoIOWBOgaVyyeBB4sGggeDiIOlZo944EW76mrlr5Hri+n5hKmltVD74oU+nkSO230g5unb3Ce1Nsj3ez75nitOrnwCOq/rrvVfTKvFbmpxxFhzG/t81Yi+Mn1xu83aV2wWslhGnzE25YsXsL6xEH3K5vq0X2tj7AfnjbHntszbTxGVUdkYe7TFczHGrX3FoFhimZiW7bFd2led6iP1j/P05R3bxlqfqZz97ce3Yl3GGM59k5Etxi9q7Yr59BltMdZaHDnWPlRuaCy06rY9jrNoH9tnBwmiX8gHOaMD1TqB+7Df2glQO/ja9gAZGhx54AkNvlpdLWJ9MT2ebKaVt0Y+SWL/CYlEvAmKJ0wf7s9YVuQ+avV77Ti6XbLpM/vKfRrjj21UuRyX+6sWj/xYOJ3WQnlaY8G+W3HHNrutKmN7rXyMTXliO0X0E7dz2dhXJh7rGJv2h2Jx2jwoftcd/So9xh1jyXGJGJvs+Xioj2I/teK2H9U/lLeG8ubzPh4jfcb+FrGuPnKf5OMxxncuk6m1X+Q+j368net2HfrM1xDFumi7YyxDdYu+uvZzPFYFol/QQdDBqdnEPAMokgdyn82Dy3H0lRUadK2BmvO2aLVbaTl9bB+4HfGkiCdljnsexrQx9uO7P/7uPXm1rfLy4zS3S2n5Qt5Xn+txn7T6UtT6RHnH9kNfHENxi+sfvH5Wj2IU2laabDXfsS36zO3Svtud7fH4Dh1r2ePFuhbLkI+xyGeenbkNItaT87q8YlOMcds23dy0/DlNaF/psjtNsYxtY/Zrfz6u2fc8xOMu5EftUvvG+lbe3HeR2jEW8tsaC60yJveJ8inusf3QNxaG6pY9n39mv8djVUxe9HUw4wmcyQNqHvp858Gigae7QJ90HjBxMEbyCTrUjhryUWtbTtd+PCH7UJ54kuR2Kr3votDHUJ/Y7n5RnbGPcp/FdmXf2VfGdrdLn60+yr71qWOtNNly/kwu32fzvuNWurf1qTgVo/LoU/sxDu37Qu/y0a793GfuA9td39CxjnmF8uUx3Nev8xB9D8WtPHHMel95si/bdDyzP/eb8E2W67Yvfc4zFmKc3o9lZYv2eYi+FKvGQRwLY3yrD/raIl8eE+q7+568b5ae2yV7Pl7KY3skjpHW8Whh3/nYOZahumOcNfvYPovX/lUzadGvHfCIDqQOqAf9vPhgRuKB1UByugdaHFyqVyed83hgy5bzqq6+k61GPEGE+8H94vR5/Gaf0a+J7RaxXUPkPhHy7/QYq2NxP6nPYrncruw79m+tXdEu+vzHseBjp89Yvo++sdAXt+tSXo/lOFZkc7nsVyiP8tqe+zefH67P+33+c94Yl9Ny/TF/H7G/hfrHcY6JO5fXvm0xJvmVLfvTdjwmsXz07Xr1aXsfuT9zf6ltQ+O0RSyrT7fLx2uM76G2xL6bZyzk/hTu0zHHo4XqHxoLfXXnODNj+kw+lD52DOyXSYu+Orl1wDyQDupAwGrx8fTJCjvkCxzAfmA8rT98pw+ToHZHP3W4EYJlonNr0a/u4OBA9GES6EIUlyqBGyFYDl6eFtxArj+IPgAAwERA9AEAACYCog+w1lwsvFA4V/ijwtnCHxT+T+H3C/+z8EzhTOD3LqeJ/1FQHqGvNlTmfxX+d0E+vlR4tiCfXy78YUF1/N+CfuCqOr9SUP3iQkHxfLWg2MTXC7XYx6Dyf1xwG1WX6o0on9LPF5RPZbIfABgDog+wMF8rSBQlpJ8vfLbwSOE/FP5N4d7u0tfv6C597Z90l/74H3SXvvq3u0sXfr67dP7a7tK5H+4uPf8Dhe/rLn3ldYUjsDRKf577c6Wvf670+y+X/v+n5VjcU/j3hd8u6JjVjifA9oPowwTQTFKzxDhT1kxXM9+nC48X/nPhY4UHC6cKdxaxuK27dPE9Raz/bnfphV8sIvLTRUzeVIT6eytCAxvF89+zcwN28R+VY/2vCp8u6OatNn4AtgdEH9YYLSVrKfqpgi7Kpwv3ldnzPy8X639cZnF/vwjy3ywX7+vL7PnHy4X86voFHmAezr+tjKtj5aZP/zf/l4X/VHiyoK9O9JWIbh75igE2k8mL/sXz57vfuvnm7snbbute+PKXuk9dd133zAMPFJtmgkKioxmA0MzwCwV/Ryr0nan5wszPTnnl9/em/s7U35fG70n9PaW/I93P96PriNqotquvNKt+ovBoQRdSLYF/cOfiKgHXbPr8T+0se9cuxkvgmQeOlGN8pBzrI+VYHSnH/kh3sZJvEZbp+0uPLje2eVDsakvNBpnX7nxVc/4nys3nz+7cgF64YWcV4YUbC3+t8NcLv1DS/uplm/L9dCnzFwrX7pQ992M7q0j6WmL21c8P7tzE6uuf57+71KOvgHZ45oG3lXH2ujLOXleO1evKOHldGSffse+L6jkM28QWif5vlxngB4p4/L1yl/53Cn+rnGhv3znJzv/FQpkJnvuRcgJ9fxnc31XYOWl1UdXFVRc6Xax10V70gvfc00e6R2/a8RPT5e+jV+1gUYj2VdGKZy/qi0wt33eI7REff8tOXbW8LfqExcdEwlez7wfVue6iv8r2D7GZY3h+GMMNqtdW2Ca2R/RrA3gkPnn3e6LKR74IyHe8SOrzdz+0N8+qWOUFM15o8v4YDuuCKZ+OVfUrjlq+RViWbx23z94yX38uC8WdjwtjuM42juHqtRW2CkR/SeiipItTnC1o+5PlYhnTMjpha7ON2kUjnuCqz3aVU3lfCGTTRdp+a/7tz7Z4UY91O75YNl8glR4vzPlCFO2xzojzx/6IqJz9xTy5zySWitvtj+0ay+nTR7obbzzSnTlTt68atS+2V/iYuN3zHC+hvHFMxOMX8ywyhvMx9ZiNccW8Ptaqz/Zlj2Hhfox5HIvSYh/I50GO4ewj9tkyxvDC1K6tsFUg+ksiXyScVru4tuza9wmuNF8QY37XoTzK6/zej/nzhSzii4ptMRbXHS9Uqtd11+KObc/7tThkt+9Mre2mVnfuMwuD91v1tDhM0W8ds9ynEbezdbzkS3001A+1OpQW+zuTx5H2c//H4xjrcFwu7/2Yf9ExrH3Voz5xfdGe88a4avvLHMM5bu3nPtvvGF6Y2rUVtgpEfwm0TvB8YYnULnDRT81nvBCpvC5CujDYni9CfRdM5Y2+oz/XHS96yuu2qA5dTE28gIkYp6jFkWON1NouVH4/fbYJtOJVeu5nM+Z4eTuWi9T6TvSVdRnliek+tjWfSneccczlst5fdAzbHmOPvlTHYYzh/fbZyqldW2GrQPSXgE7QeHExOllr6SJfoEQ84YdO/lr5fBGqXaiEfceLnuiboUVyu5TPZW2PF6laHDnWSKv+/fbZulNrX0Tt8LGKfTd0vFRuqA9UNh5Tk491pFWvj+3Q8VjlGFae7CuS26UYD2IM77fPVk7t2gpbBaK/BFonf76QRHTxyLPWmDZ08i/jghl9z2NXHbIrn/Zz/nyRWtYFc799tu4o7tivLdxm91+rv8yYPmgdD/lsjWHXG8vFtKHjoXasagyLVpuE0lVefrSf/cU4xbLGsNNjuZhWK5djWSm1aytsFYj+CHwi1i5+rYuScDmhbaUpn3/5rBM52nRye99lfXHQRUAzGZ/8Yy6YypNF0iifbH1x18qJGKf2lS/6inbHkOvKPjJqS+1CN6bP9nvBXOV3+opFxzH3bS322f+mZ//T/oGd/26fe2Phz3cXz/9Eyfu20ra/NPvP98XzP1f2f6GU/cXu0gs37TywSJ8vvLPwjjJG3l7G7luKXf8Zv7GU0f/Ff37n76wXri/2ny1j6a+U4/OXu0vni8/ZX1x/qvC24vsni2/V9+PdxVL3pXNvLvl+tIxh/Z/8R0oMP1yO7Q+VtGtKnFeXOr6/7H9f2f+e7uLz313Kvbbk+aXSltcU22tK219T+uC1Je/3lDzfV+q9utT/g8XXn52178nb3lzy/1ip+ycK15Y8R4u/N5eyanvJ87zq+f7C95Z8r71iXEXU1zr+NVsefwc5hlUu+op1L2sMnzx5pDt69Ej3+ON1e5PatRW2CkR/BD4Ra6I/dEK6rJcf84VDZVs21aU6ZZOPz9/7nbqUb0j0hS4e9p/jV17bXIfirV14Irlc9hvbLNsXiojmG6PcL7kPlVf9YXtsV6vPanEPHZ8aC4m+Hs2rh6vooSt6yNBX391dunhLd+lr/6yMz5OFf134dyWW20rcV5UY9YAivRBHDy46X/rv6dJHN5W26KU3e8e2HyClckZ+sn3H596yRv4l/C6v/Conmx4mFf1lcv16gFWMU+VtUx2qy7ZYr3x8/t57d+uSD7U55v/Ow62+U7/a1fIf63YdF8//l2L7jcu+/mG5eSg3Mul4HfYYjvXHupc1hiX2En2N5Zq9Seh32E4Q/X2gkzoLL6wb3zWbVe483eyHZrPJ2dPPZk9C25kp7zw9TU9NKzNjvaDl4q1FrN9XxtXdBT2X/aOF/1jQo4D1REG9XEdPXNSTFfXSncp4nJOa2B0ENeHdXnSD9Vjh3+68V+GFd+yMi+q42Wx0w6obV2b6kEH0YTPQMvf5nywX6rfvPLJXF+3Zm9M+XPhk4b8W/ltBj/vV4471WOPKOAG4Aj0qWs/V10rJR7pLX/8XZYwd33n+vh6jq5vDc28uY1BP86yMzTXiQuHEiQWX9kW1f2CbQPSNlmdnM8FycuuFG5oBzp6d/Qs7J/5sJiiK6Gj5VrOE2Xemf+MySovP2P65gp7D7eds+3vSy8/anj0WWN+R/mhB34/q+8pS/+w7S81K/0yhzFBnz8R+TSI/NjdTad+BUYunINHWLFt9oL7Rd86zWfWv7Dx7Xxfa2RL4QwVdfPWSHc2mdUGuHG+AQ0Xvy9B7NHSDqa86tIrwpYLetaF3bvhdHcqr93UYpel9Hn4nh8r6fRzPF/wuDr0ZcjmrSACR7RV9vb989lIXzf7+e+H3CjrZdJLpZTfMBAEAYFpsj+gDAABAL4g+AADARED0AQAAJgKiDwAAMBEQfQAAgImwFaJ/5syZ7sYbb5yh7VoeAACAqbNVM/3HH3+8O3HiRHfhwoWqHQAAYMpsleifPXt2Jvr6rNkBAACmDKIPAAAwERB9AACAibBVoq/v8iX6+m6/ZgcAAJgyWyX6wsJ/7NgxZvwAAACBrVveP378OH/bAwAAqDCZ7/T9X37Z+UsfAABMkcmIPsv+AAAwdSYj+uLkyZPM9AEAYLJslei3nsin9KNHjyL4AAAwabZC9P19vYSdv+sBAADU2aqZPgAAALRB9AEAACYCog8AADAREH0AAICJgOgDAABMBEQfAABgIiD6E0APJdLfGfXpNP/NUfCuAgCAaYDoL4FXbr21+8apU1XbYaPnFvQ9erj1QCMAANg+EP0lsM6if/r06T0z/MzQo4sBAGB72ArRf+nhh7tv3XRT99Jjj3V/es01XXfkyEyIbX/x3LmZXenRpvRv3nxz9/Jdd+2mC23Lp8s7Tcj/nzz11CxdQu/0yJ66n322e/Wtb9215ZuD7CPWKyTGmqn3CXcfiD4AAJitEX0JpsRVIitRfvXo0V1xtphr2zcAEltvxxsGpQvn17bsyut916N9+1e6902sa7Z/+QbAwq74vn3DDXt8ZRB9AABYFlsj+nEGbrFVugR1JtpBWJXuNOeLAmzR13YU6ezbaS3Rl0+tJPiGQdi37Yo7+lo2EnwJf80m/Mph3lkAALD9bNXyfhRXY2GNS+hirOgrTTb7m0f0lSfXKyz6OU+rDYsgoR/7AiILf98P/gAAYPOZhOi3ltCjgLdE/4qZfiWtT/TnEXL5Wabwi6GZvkT++PHj/G0PAGACbL3oW9jj7DrbWqKvPFmIZct11dKEbxBqNwQ1an4O8zt9rRLk//cDAMDmsvWiL5Que1xil8A6vU/0hbZdTiKuPH3+Y1kLv21C9cmmemJ6zfdhir7rlp3/8QMAbD5bIfrQZj+i7+/6mekDAGwHiP6WM/TEvZbdPwRE8AEAtgdEfwJIuFvP3h/7C38AANh8EH0AAICJgOgDAABMBEQfAABgIiD6AAAAEwHRBwAAmAiIPgAAwETYetGPT92r2Q+SZcfih+fob3f5L3kXz5/vfuvmm7snb7ute+HLX+4+dd113TMPPLCn/LqiOBWv4lb8aofaU8s7L6v0vS742H/p0Uer9nkZ6jM/00H0PRMCAA4fRP8AWZXo1/5nv+6ir7ha8UxV9CXSy4jHx/6gRN8MPQgKAA4fRP8AOUjRFxbWZYvAMugT/Sh+yqO8tXyLsErf+2VdRX9snyH6AOvP1oh+fnmNhdVC+40Pf3j3xTf5xTbKWytr20yoH3ts9738e16oc9m/y0bbzN7zwh2j5VE9HW/e19sOiX4fvpD/4RNPdB9/y1u6j1511Z6LuVcHlC6yQKu8bSILTC4fRSOWM+sgvs89/XT3aDmWf/Q7v7MbexbhGL9nv7blNuc2WYxzedXrYxDJ/vvIdYt4TBSL01WX6lS68nz2lltmcSn9C2Us6jO3ewyIPsD6sxWiP+ad+RJs5du9CSg3CTN7KfPy3Xfv5pcgx5sC3xA4TT5ePXp09im7RN5Cf4Xvxv66iL4EIArPJ8u2Pi1OFnoLikVE+7/7oQ/t8RUFyvnzjUJEItRnPwwsvhbF3O7cTsUfxVF9kvvAZd2nfTc3yruI2Obj5X3XnePUvtuhPL5BUGxK102Pbn58YzAWRB9g/dka0ZeoZzEVNaGVCOcZuZGw6wbCoq5yvmGY2YM/5dW2bxCcf5ZW8sXtXNb598N+RT/O+KJQKE2zvyg+EoqWYEk8okhkkamxzqJvsRQxTm1HW253JpZVuXjDUEN5hvqtRi4Xj2W++cj2WNbxDrWrBaIPsP5szfK+hNTL50NCm0Vf2y4roshn4Y74ZiOWFc6/7qLfEhjZvBQckSg4j7ajLd5AyBbz1rDA1GyHheKX2NWE2UIZ25zbXes3t1Gfrf42fcdEdagu+403ELmcY1V6TcCjPZb1MUH0AbaXrfwhn0TcYlsT2ij62o7L+bWZfhTuiPK0vlYQmyz6LZuQMETRySIh+7aKvvom24RFOdpjG4f6VIzJUyOXi7GqLXmmH9NiWUQfYPvZStGXkM8j+lGYlT52pm/f9pWRj/z9v1YCsugf5g/5agJjUWiJstJjWYlFnPHWBDCTfcyD271In/XRJ/pCMcebnYjK+jcR2lfb40x/qE9F9jGWXE7HQ3W7/7Uf+zr2/UGI/qqOFwDMz1aIvoQ7Lq/vmbkPiL7yxV/Xv/K+942e6Qv7j/XLv+0xNte77qIvLFJeTo4ikm2fu/POK0RC23E5OtelbaXZLsGxbQx+IMwibW+hmPtEX0gUHXNul8XW6fpdRBT53G+1G4jov2ZvEctpW7H4eIkYW/R7EKIvVnG8AGB+tnKmPxX2I/qbjtrMzHG96BN9jhfAeoDobzBTFP2zZ892x44dQ0DWkJroc7wA1gtEf4Ox6Pu55/HZ+wAHhZfuRWumDwDrAaIPAAAwERB9AACAiYDoAwAATAREHwAAYCIg+gAAABMB0QcAAJgIayP6+rtZ39/O9LcgUbMBAADAMGs10+972Iwf8jGlB9EAAAAsk7Vb3u+b0euJXsePH5/dANTsAAAA0GajRF9o+Z9lfgAAgPnZONGvPd8bAAAAhlk70R8SdZb4AQAAFmPtRF9I+PVL/tqMX2Iv0eeNXQAAAPOxlsv7fW+LY6YPAACwGFvznb7/7sd7uwEAAOpsnOj3/Xpf6fpagP/yAwAAXMlGif7Q0r7Enpk+AABAnbUS/UWfyGcbgg8AANBmbUTfz95v/V2vbwUAAAAAhlm75X0AAABYDYg+AADARED0AQAAJgKiDwAAMBEQfQAAgImA6AMAAEyEpYq+n4jX99c7AAAAOBxWMtNvPR8fAAAADg9EHwAAYCIg+gAAABMB0QcAAJgIiD4AAMBEQPQBAAAmAqIPAAAwEQ5U9PWue73znhsCAACAg+dARV/7Sj927Fh39uzZPTYAAABYLQe+vH/y5Elm+gAAAIfAgYm+0ng8LwAAwOGxVNHn2fsAAADry0pm+gAAALB+IPoAAAATAdEHAACYCIg+AADARED0AQAAJgKiDwAAMBH2iL7/ctf6u50eo/v+97+fv+IBAABsINWZvp6apxuAlk3UbAAAALC+VEVfT89rCbtm+VoJUJ6aHQAAANaTuUVf1B6za7RCoDfp6auAbAMAAIDDYyHR1xvyjh8/XhV2RB8AAGA9qYq+BFui3nr9LUv8AAAAm0dV9IWEXzP21oxf6a0f+wEAAMD60Vze73tLHjN9AACAzWMl3+nrv/7cEAAAAKwXC4l+30qAbBL9vvIAAABw8Mwt+kNL+/4tQMsOAAAAh0NV9Pt+pCdb7YbANwMs7QMAAKwne0Tf38cfO3as+nc9zeJ59j4AAMBmUp3pAwAAwPaB6AMAAEwERB8AAGAiIPoAAAATAdEHAACYCIg+AADAJLjU/X96DWtrnqulZQAAAABJRU5ErkJggg==;" vertex="1" parent="wzgoTrztu6sZJbIXpPw0-2">
          <mxGeometry x="30" y="390" width="552.63" height="380" as="geometry" />
        </mxCell>
        <mxCell id="wzgoTrztu6sZJbIXpPw0-6" value="&lt;font style=&quot;font-size: 24px; font-weight: normal;&quot;&gt;Host&lt;/font&gt;" style="swimlane;whiteSpace=wrap;html=1;" vertex="1" parent="1">
          <mxGeometry x="10" y="-90" width="640" height="1060" as="geometry" />
        </mxCell>
        <mxCell id="wzgoTrztu6sZJbIXpPw0-7" value="" style="shape=image;imageAspect=0;aspect=fixed;verticalLabelPosition=bottom;verticalAlign=top;image=data:image/png,iVBORw0KGgoAAAANSUhEUgAAAgwAAAFsCAYAAACgmuHIAAAAAXNSR0IArs4c6QAAAARnQU1BAACxjwv8YQUAAAAJcEhZcwAADsMAAA7DAcdvqGQAAD4TSURBVHhe7d19rGXXedfx+aeSJatBqppWyMGqioqwiFS342IVUArFtkoNCFJcqc0ApQYqBgUb/hhojIIjcLA9rSzqIalVq3KS0o7SRuTNkLgkWBMLg2un7RiRpBAnGZxk5jqZ5DrGdhwrm/U7d353nnlm7b32Ofece8/L94+P7tl7ve59zt3Pc9Z5O7S9vd0BAAAMIWEAAABNJAwAAKCJhAEAADSRMAAAgCYSBgAA0ETCAAAAmqZKGN74m2+cqJU9+9yz3fUPXN+95aNvqZbP4t1Pvrs7dOehyd9a+Srzsclr3v6a7mOf+dhkv8+j6HZuBwDAQRidMCjAve6XX9d9+kufrpYrUZh3kBtKGBRgr7n/mt75LDPN/apfumo3SYgWmTCs8jkDABysUQmDg1jfM30FIAWiWgBcFM1lVZ+FD63ULNIqnzMAwMEalTBo9WAowKls7EsRTj5i/fyMW2Vers9JSiyL4vw8Rq1sDI0Z+45zVXKklZZa36rnc1FrK33JV+y3L6jnecWXMoaMOWfqR/25bGg1CQCweZoJgwLJ0DL2LM9aFahisFIfDlDyjsffUa0XaX8OxuLA6zJv5wDdR+36gqWDqvvKfWtOMRDHc5MDsjno65jVn27XXq7I84rnLNYb0jpnY88RAGDzDCYMfjZcCzIya6BR/ZgIqP+4bbMEOLWJffUF4JpW3dp84j7djsmT5peTKfU9lIDVymvHqzGnSdSGztlQGQAAMpgw1AJe1BfoWxQUb3zoxkm/ots5SA8Fsb6gq7403/wsfmwgHArCGiu/T8Pjqf942+W1BGPMOc3laqNzEY+31veQvnMWy70CMst9CgBYb70JQy1ARq0ANERtFBT1V8GwFqCG+u8Luq05twwlQOozrz7EOebyWgIh6n8oIKuslWRojPjSyBh95yzzvKdJRgAA6683YagFLusLhmOpvVYVHMT6kgI/q1aAfP/T76+WxTZjg52Orbby0NevaF9c8fC2x9L+GJBVnpOX1nnL87/70bsn++K8nCz4vQ+5bd5vQ8cWteYIANhM1YQhB79MAW3oWfIYat8X3MQBWYE9z8VBzS85xATBAdVlkoNfX8IQyyz2rfqxLLbP50TzyCsktSQiUz+5/3i8OjYlErlv1+k7p33nLJ7nXAYAgF2WMDjg1oKpaP9QoEe/WhIxCwX0nEQBALBIg296xHxpBSKuQoylNk7gvCLQl9ABALAIJAwLFl8KmHVVwKs+vGQAADgoJAwAAKCJhAEAADSRMAAAgCYSBgAA0ETCAAAAmkgYAABAEwkDAABoImEAAABNJAwAAKCJhAEAADSRMAAAgCYSBgAA0ETCAAAAmkgYAABAEwkDAABoImEAAABNJAwAAKCJhAEAADSRMAAAgCYSBgAA0ETCAAAAmkgYAABAEwkDAABoImEAAABNJAwAAKBp4xOGO+54ufu1X3uxWtbnc597vrvhhle7Q4e6iWnb18Q+X//6V7unnnqhWm8eTp8+3d13333dmTNnquV9Hnvsse7OO++cuOuuuyb9uOwDH/jAZL/qxDarwHOXe++995LzMo/jOnnyZHf8+PFqmfYfPny4txwAlsVKJgwKpj/1U69MgmytfBqzJAxqI7WyvdIx6dhqCcMsc62ZJWFQXQXTvsC5yIRhKKDvlc6F+ozJT7TX4zp16lR35MiR6pyHygBg2ZAwTBmEz517vvv5n3+le+SR/1ct36tlTRhmaTMPDz300CVJgv7+zu/8zmX1ZqVE4MSJE+V+PVct3wvNVQmBEoNa+dDKAwAsm96EwYHRy+7xGbWCpfY5aLqu6Lb2O7i5fQx0cfld3C725T5U7iX63M6mWcLPxyVxbj62vn49Bx97lPuOx1VLBGoJQK1ePI9RvE9aFBj9LL32TL31LF7ta/u1rf1ql1+mEPUrCvzuPz5bV6BWwHaZ6rms9exfYr9xfPX7wAMP7M5b5bX5a261hKF1XBLHNvXn8lZCQMIAYJX0JgwKRg5IDoQxuOm2AqcCnG7H4Oig6/YKfj/+49+a/M19eTuPpfauE+fi/mZdYch96bbHifPUto7Dx6h9SiBiwBaXq/5v/daLu23zcdYSgTi21epZrf4YOfDqb1wtyMlADKK6nYOixMAuaqs+c2B1ewfS2Le21Y/7cvLQVzfL5dr2cbgvB/vcdy3Yx3la33HFc+a+4znZ2trqjh071ru6ICQMAFZJNWFQ0FKwcyAUBU/tc1IgCmBvf/tLlwW4XNfBU/tjEHZ9tXUC4LoxqOf+Yn3XGaPWLgZh/Y0BOc7b+9S2b4UhU18+DrXL56mWANTqWa3+GApkMRDmhEHl8Vl/LUjmpCLrC6waNwbSOLYo0MY+NY6TALX1bZeb2mg+cd4O3NoXb7s8z8X7+saQvuNSP7Gv3I/aHT169LJ2kZIFJQ21MgBYNtWEQcGq9mw6Bm1x8MxBLAd4B17Vy2USA3ktSGe1wD9GrV0Mwrqdj1nGJgy187bsCYMDa36mnZfhF5Ew6LbGyWM78A4F89p4Ppb9SBjULq8waJ/LVf9Nb3rTZe1ESYI+GTG0+gAAy6Y3YWgFZAd2LcPnAJqTgpgESF5hiPsOOmFoBWS1rSUM3h/b6/aqJAwxsNYsKmHw7djGNGbf+wfUJq8wxH2LThjUby3Jie1YYQCwTqoJg4O2g12NApeTgpwEaDsmDKrr8hxYPVbeHkoY3MdQnZrcTmNqFcBja3/rDZR9Y+f96kN9xYRhaGxTvb6EQXXjeR0rBkUH1Rj8VT6UDIgC5FAd7Z82YXBQz0HcXB6Dsdr5UxJqF8vicbrtIhKGWt8Z72EAsG563/TowB2X1x3c9DcGVtdVQFTAU1CM7bzffTt4ujwmJmMSBoljtIJ8FNv5GXsM2mPnXpuf+ont9P6OeGx5bI+fyywfV75PYt9DHOD0TFjP2BXotB2DvwLn0DPmvoRB+2M7iasCQwmDtuPcTG1cP5fnOajvWlktqE+TMLSOq1ae+1FCoKRByYP3RSQMAFZJb8KwFwp+szwTBlZBLRnxvpjsKHnhexgArAsSBmBKSgS0mhETBq08ePUm1lWyMPRNj0MrEACwTEgYgBnUXpLIyYINrSRoP78lAWAVLCRhAAAA64WEAQAANJEwAACAJhIGAADQRMIAAACaSBgAAEDTgSQML544sft1hi/ffnu1zl6p329ffXX3jSeeqJYfBH9dsD5Gx0fpAACr5EBXGJQ4bGLCwK8UAgBWzdomDMuIhAEAsKoWkjC88PDDk0QgvvSg27leLWF4/plnum/ddNMlKwPuy9uxX3M/aqeVBe179brrJv253fNnz3bfvPXWyfxUVqujsthvbd56KaHv636HkDAAAFbVwhIGBdsYxF89fPiylwdmSRhyXyp75ZZbJsmA67ue+skJg+r6pQpvu+/a2DUkDACATbOwhCEGcQdm7Y/1ZkkY9Df27dWCmBjIUMIQ5xHnoLrqy2PNGwkDAGBV7WvCkANxDNbWShjUd3wzo8pyHzJLwiBq1/eSxl6RMAAAVtXKrTDEgD4U1GdNGCKVzTNpIGEAAKyqfUkY+gJvX8Kgug7qqhPffBiThyHzSBhUrzZv3sMAANg0C33TY20VwEE7lksM2rG99sckIa8wSOzfCUatvJUw5HnHlz4iEgYAwKbZlxWGeYrJQ9znoL/MSBgAAKtqpRIGrxDEhEErB1pByEnEMiJhAACsqpVbYai9JLEKyYI4YeC3JAAAq2YhCQMAAFgvJAwAAKCJhAEAADSRMAAAgCYSBgAA0ETCAAAAmkgYZqRveTx69Gh3+vTpS/bpY5PTfgMkAADLjoQhUQJw3333DQZ9f5/CyZMnLyvTPpWpTi4DAGBVkTAkYxKGVlKgL2SqJRMAAKyqpUsYzp071504caJ77LHHuoceeqi78847u7vuuuuSpX+VaX+tTD7wgQ8Mlsf2ovpKEO69995L9ktur3r5pYhMZarDSxMAgHWxtAmDA7n2KXEQ3VYwVmB3wFbw17aDs/Z/5CMfmdwW9aH+1K/r15II0/6hFQb9DkTrJQe/ZMFvRgAA1sXSJgxOEERB3kFfCYATiVhfdbwvigmA68b2WSth0EsNY34DgpclAADrZKlfkqiV+2WKzPXdPpZ5BUJ0u69vaSUMSgTGJAxjEwsAAFbBSiYMQysEKld79aPt2grDXhIGVhgAAJto5RIG7R96D4ISBr+c4b7iexyUbMTtTPuHViH2+h4G7eOnrQEAq2blEgZRWe0lB5UpkVBC4bL3vve9l60YKGmI7fOKRey/9imJI0eODL6hUfX7PiXh9q2kAwCAZbJ0CcMq0EsNQwF/6OUIrz6wwgAAWCUkDDNw0K8lBUPJhMp4OQIAsIpIGGaklxb4LQkAwKYgYQAAAE0kDAAAoImEAQAANJEwAACAJhIGAADQRMIAAACaljphiN/IOPR1zkP0rY3xtyUOmr+J0l9fvQj6voe+73rQfr4LAgAwraVNGBRYlSTE7zmYxX4nDK0fx1p0wqCvrNZXT9eSq6EyAACGLG3CMK9Av2wJwyIpERj6nYuhlQcAAIYsbcKgoNsX6Id+HEriSxkS+9FfbbssPtNXP/qhqqeffnqyupHb5r7j2HlMi/3rtvfXkorch45T+zX+Aw88MNn2vGov0bQSAhIGAMCsli5hiEE1coBVgI4vVTiIOnjWtmPQV/8O4k4eYt9KApwIqA/15cCtfR/5yEcmt0XtckKhvmvJQFSrU5u35+F55u3Yh3/fYuhXNEkYAACzWrkVBu2PgdLBUwE23na5brsfBWPddlDO5U4YYvuhBED1809nz5IweN65nevVjkv7Ve5tzSH/tkWmZEFJQ60MAIAhK5cwKEjWViAUTGuBtZYQ5LaxPCcAkfuPbeOqgOwlYYjzjvVq5Tlh0Nzf9KY3VRMGJQn6ZMTQ6gMAAENWMmHoC8i1wJoThqGEoFWuseOcavWH5me5jufdt692XNofEwbNgRUGAMCirFzCoKDp1/LjflMQdSBVHdV1Pw68MdBGYxIGt3VfeYWhb96R+ojJgWg7v4fB2x5rKGHgPQwAgEVauYRBFDj7XhbQX217v+rqEwbux8E3tnfwbiUMTkDc7r3vfe9l9XP/DupxXlFMHHTb+2NSNCZhECUEShqUPMT9sZyEAQAwi6VNGDA9JSV8DwMAYBFIGNaMkoWhb3ocWoEAAKAPCcMaGlpJ0H5+SwIAMC0SBgAA0ETCAAAAmkgYAABAEwkDAABoImEAAABNJAwAAKCJhGFJnD93rvv4rbd2j99xR/fc5z/fffiGG7qnH3ywWjdT/UduuaV79qmnquUtave+a6/t3vPa107GVX+xXPNQmWh+sWzRNLbnpLF1jnSuanUBAItDwrAkDjJhMLVXPzlhMM2nL2HQfiUUn33kkWr5rEgYAGA5kDAsEQVEBUgnD2OD70EnDKqv+X7q5MnehGJWOgdOEoYSFgDAYq1dwvDiiRMTL99+e9cdOjTxwsMP75Y/f/Zs90oJii7Tbe2Tb5bA9NI990z2q737iO3Vt9u+et113fPPPLNbJv49h3l/k6KTCL80EF86cMKggO2XFvIzcQVet1WdWnIxa8LgoH72U5+a/I3t1cbtPL4TIc3vE7fdNtnW8agsHhcAYHmsZcKgYK6/3nZSMNl+17u6bzzxxOS2kwfV8W154dFHu29fffVkvyhxUH0lDjFJyH3LohKGoWfXCrAKtA623nZgViLwobLtJMEBOgfmWRMG7VNZbWVE+5UI6K+249iuHxMY9dV3nACAg7OWCYMDvCg5+NZNN122EmCu74RBSUFsE/vT30tWK0q56jkBWSQF3FqQF+3LL0k4iOu2/vq21AK7zJIw5LFznbwd69fmodvapzLvAwAcvI1LGLSt1QO/rCBjEgaXx3aivvYjYRAFXi/rxwSglTDEdtE8EoYc4HMftYTBqx99CUNfYgQAODgblTCIXlJQnVx/bMIQVxgOioOuEwJttxIG3x4yS8Kg7aFkpJYweK6sMADA6tjIhMFBX2VaIRiTMLjv2hsdo0W9hyFyoB2bMCgI973RMZo2YagFfFEd18ttdNsJQW6vcWMiNJZ/svvUqVPVcgDA3m3cSxIq98sJCv4vv/WtoxOG3F7URm1dvoiEwYE1PoOPQbiVMIiCcmwfl/1VL5bF8trYov77EgyN5fa5bycLqlfre9pkQZQoKGE4efJktRwAsHdrlzBguSgBiMlNlFcYZnX69Onu5ptvZoUBABaIhAELtciEYWtrqzt27BgvRwDAPiBhwELtxwoDAGDxSBgAAEATCQMAAGgiYQAAAE0kDAAAoImEAQAANJEwAACAprVNGPw10P5GRn1DYy7L39IY2+znj0odNH0jo7+SWd/eqK+R5qOOy0H3yZiv9Y7Uxt+0qY+0xm/XBIBZrW3CoK9zjl/pHPUlDLFcXw1NwlCvv5/28l0NCpbxa6en/erpvq++3k8kDACWxVomDPF3IWrlLZuWMMSgrCCTf5fiIO01YZgmQciWIWGYhc6VkwQdf98XZwHANNYzYbiwglBLGOKPRw2tQPQlDPnHq1R30qYkKd8sF2mN6Zc1YvmkzoV55fG1XwmOfghL+1+6557JdnxZxElQbhv5NxXm+SNMMWD7GXt+xqsyP4OPZQq0avvk3XdPyn7/V35lsp3r6Nmw2zvQqay2QiAxCdBt7/ezapcNJQyem+au+ai9x85zsjhvB+UvPPbYbnsHZo0Zj6NvX594THlc8X3i8nzcALAIa5UwKLgqyDqoWg7ckn+FMlLdWsLgZMB9qQ+/rOGA7iDv7fjeiZfuvXe3rf6qL/Xp25qPtjVn/dW22+u251vrWxaZMCgwOfgqMDo4KpB9qASsGEgdwBx4VddJhf46kLtv9+tt9x33qZ33WRxL2zkoe5zYxjy3PNc4jo6pb4XBx+P28Tzkc5KPcxq5L1E/8RwBwH7YuBUGmyVhcECv1XMQj+VDY4jKVCf2o/ZOQmL5ZF/567axXuxz3mpBXMHSgVnBKwbCGOAVSP3yRmzjQK59MeCL6sYgHftzHVM/cX8cz+V+Fm6un+u6fjyWPJdI/cRn/nmesa+hflrUtpYw5PMGAItGwlApiwF8d9+FhCCvXuQVhaGEQWW5/ZiEQftrKyf7mTDUArbUgrIDcwzK2q4lDN7n/nJw7Rvf+/O4MYjnBCCKc/O+aROGPPe+cvXZN48WzSEnDBLP+6x9A8A0SBgqZUMJQ1+frYTBQT+WOyEYkzCoXPXcdr/0BWwbG5RjAI0JQ36mnPf1jd+alxxkwuD+9R6HT9x222UBfyy1qyUMpnF0vkgaACwaCUOlrJYwiNqo31rgHpMwvHr48G6fqjd2hcF9983XFv2mx1q59uc35VkMyjHAOjDnYOexcvBTfYn7RPWGlub3mjB4frVjbyUMor4U7PWmz1q5xtMKQd+5lVbC0HfOhmxtbXXHjh2bPFb0mKnVAYBsoxIGB968tO9A7CAe+SUH96EAHssd3FsJg+h2bKdPVYxJGNS2NneX2UEkDKIyL4+Lg3gMyjHAxsDsoOy2tcQg14nBUbe9X2IQd0CO4rithEHiscXEKB5PrB+prtr0nbtZEgbfH56T1M5Zix4jh0sCe+rUqWo5AGRrmTAAy0BBXkmJkpNa+Rjz6KNGiQIrDACmQcIALIBXAvKKxbS0etBayZjGmTNnuiNHjpAsAJgaCQMwR/Elg1leKsgvOQy9RwMA9hMJAwAAaCJhAAAATSQMAACgiYQBAAA0kTAAAIAmEgYAANBEwrBhjh8/PvmGP/2tlQMAUEPCsEH07X760h59eU+tHACAPiQMG0S/H8DKAgBgFmuZMMQfiIq/Lqkfd9KPScUfbdIPPLmOfvjJP/jU9wNP8Qek8g9T5R+Iyr9s6R/FcnnuO44r+cez/LW+swZ9EgYAwKzWLmFQkI2BWkHYv/7ocgf6XFfbCtRKCrStOvEnqXNf2s5juW3mZEJ1JtsXkgcnBRpDv1jpvmpIGAAAB2XtEgYFbAdhUQD2T0d7n4K2flpaATzW1e2YEDjIa38O8Llc2zmBiDS+xnTfEhMMlSuRif3Pm5KFef70NQBgc6xVwuAAHpf1pe+lg7wa0JcwKLDXEg+XxyCvPj2uVxNEdeKcLM4h1onz2CslCfpkhN70WCsHAKBlLROG1rN0BemX7rlnNxnw/r6EQfurKwyVfbnM/ee+WzTHaeqPwQoDAGBWa/eShAJ038sCosDtcq0WxPco5KCe+8pBXOV9QV37VOaEIScQLbW+eQ8DAOCgrF3CIAq2cdnfgVcJgbbjioCSgPgmyNiulniofq3cCUJsr7qxrZOGWMdzyXOujU3CAAA4KGuZMMwqrzCsGxIGAMCsSBiCdU8Y9KbHY8eOdVtbW9VyAAD6kDAE654wiFYY+C0JAMC0SBgAAEATCQMAAGgiYQAAAE0kDAAAoImEAQAANJEwAACAJhKGho995mPdVb901eRvrfzdT767e90vv6779Jc+XS0/CJrToTsPTbzm7a/pnfu8aLzrH7i+e/a5Z6vlOFh6bF5z/zVzfRzovtZ9/sbffGO1fBW85aNvWen5o86PTV2XauXm62SrHi4iYRjgB54uLLVyXYiVLCzTA66V4CzCoi+8Yy8AqNNjQQnDPJPaocf+IsZbBD1m+/63a3SsJMbLo+/+GJsgqz0Jw3RIGAa0LhDL+AxF89nvOU174Z3W2AsA6hYR6IaSgkWMN2+am+Y4TbBYxv/3TdZ3f6xKwrqKSBh6tILUrA9KPcj9coHElzPUp15CqJWNMXQRdJn7jhd0/b3xoRsn4+sfUOVjX8pwv3c/evdkvrV567bLJP+T53Pi8nw+bJrzonMR28bj0ji+6Ljc50796/7Vdt9xzUpjStyX77t8f+VzNiS3ze2H7g+fj3if5Ln2iW2isXP3uPrrtvmxHMviY1ha52zosTAkjhnF85L7zvNu6Tsu7Y/b/p/wsenv0DnL5ySfs/w/lh/j8bjGni/LjzPxOfOc9TeXuV08Dt323OKxRm6vujrON3/ozZeVSRwzjiHqv/V/P3Rc646EoYcfzLUy/xPmB1uL+oz/sH5ga7v2TzJW/qc3/4O7bx+P5+9t/5PopQzv01zFY/Rx3x4rnxvPzdv5OPVX29rvPjPViedtLB1L7FtzcZLneWrbx6y/Hkd1dT5UHo/LdfdC59XHb5qTx/I58ljezm1qcluJj+XW/aG6euz4vp/l3MfxxvL51dhuq7+eh8vztuu2zpn2a1v7tR0fC9pu8Xi1+yD3rTpxe8iY4+p7XLhu32O4r37sW+W1YxLVi8cR+851s/w489je1vH2Pc7yPEW3XVdyf5Hq9vWtY3nH4++Y7Fd57FM871mvZ+uOhKFCd378R8mm+ccxPdDyewviA3YeDzz1XbsI5n+2vM//BNrn8ji3IZqv/jk97/wPpj5iv3lf61zL2LlEtfOpMX2/eZ6xX9V1eb4wSO1YZqF+1G98TMT7Lh9vrBf7qYnHqO18HmrHEPfpdmwfz0ls06d23seo3R+ak7fHHFdsG89Z67HgfUP67gP17YA+tK9P67hEt/VsWfV8P0ntnKmu+4vnz+K+2lhWO958jofkurk/lcXjjvPWdpynjzPOsza/WHeob1P/8XyK+ov/93ns1nGtOxKGpPbgjKa5GER6YMYHbW0cP1hjdjyN2j9G3/HEfxaNW0s0xsjHFc9P7VzV5qM+dMwx8RiqP4bq62IYjykec21uauNjibdr7Wel/vzyj17GUSDQWOpX/ft4fT76zkuN28Y5xvu2dX/E2y6f9pjjeLXyPnlueS6aRz4nnlfrnOnv0GNhDPWhMTRWa/8052DouMzHl/fX7k/PR2X663Ng+bjVtnbNUbs8r9rx12jsWtLj9j6eWJ7nFevH27Vy75Pa2Oo3HltfPcn9xvuydVzet85IGJLagyvKD+yxcr96oOkfNf6zmx58ehBOO476H/OPoX3xQqNxZn3Q5/MR/4HUf86+4z+g98WyXD/Pdaz8j6z28ZlDbR7xWPL9Nes8Ms1HCYOSBdF8/OxRt/cyjh83PkbRMYy9P3J5rb8W1Y3nfSy10+PU90c8D615tM5ZnpPqxcfCGPnxEPfn4+2rm405v66j/n7ufT93yTHqtu8771M9ja99rf/7yOOorbbHHkNNHiceg7a1v/U4U5n+T9SXE2yXSd/8VC+ek75znOuZ+oz9qp3aq5/WcW0CEoag70Fk8cFTKx+iB7jbahxdsFoJQ36QD+lr4/2+EHg7Psh12+XTqI0Z/5F1HuNFy9t9Y9XOf+5jLNV3AHIfepbkfuI8ve36+bhq50x8P05z7tyXx9IY8dmby6fp03Jb/Y1953PpbdfXftd1ebxAjqE+fGy18j6aQzy/+bGgsnz+rXXO4px8zPGxMIb6jufG8vFqu+//umbMcblcfce6+Zxp23PJ5yT3lbnc5yQf1zR8jt2XxtT5jscRz6Xq58eZ9qmOkqTa/Tp0f7T6dj0fn8re//T7LzsHEs9xPC7X1XHV5reuSBguqD1Yor4H3lh+sOkB5gedL4ixzKZ9EA7NT/t0Eav13TruIbUx9c8V+1e/8bjiOLms70Kr/lwnXgyGxH9o9evz7f59Eav1O/b+8Hn1BWUM9+027iOeF++L48fyIfGc+r6I88vnPPab62oefox6X0s871I7bzWeq7c1r2nuk6Fz1nosjJHHj+dNc/d+1ZnmfPUdl4+ndg583HFciXUln5N4vlrnU1r9D1Ffsd94/3rbdWuPM99nfWPm+fv+GNO3xPYeQ/vy4yLOW3TbY8aVQZevOxKGC/TA6Htw+sEbH4jLpu8fA5fz/dn3jz72XKpeXuIH9kPrMbzqasF72Wzi/z8Jw5pQMrPMCc0yaV2MdBHuSx5F7fTMTc9QSNBwEFYhoM7KyVB8Zr8MdF2I19hNvOaSMKww/2PFZbVaPVxKF9mhFYS8rAksm9ZjeBXpWPwywbIlCxKvt5t6zSVhAAAATSQMAACgiYQBAAA0kTAAAIAmEgYAANBEwgAAAJrWLmE4ffp0d/PNN0/odq0OAACYztquMJw6dao7duxYt7W1VS0HAADjrW3CcObMmUnCoL+1cgAAMB4JAwAAaCJhAAAATWubMOi9C0oY9F6GWjkAABhvbRMGcdJw5MgRVhoAANiDtX5J4ujRo3y0EgCAOdjI9zD4uxpUzscuAQBo28iEgZcqAACYzkYmDHL8+HFWGAAAGGltE4a+b3rU/sOHD5MsAAAwhbVLGPz+BCUFfKQSAID5WNsVBgAAMD8kDAAAoImEAQAANJEwAACAJhIGAADQRMKwYfT9E/oEif7WygEAqCFhmLOXb7+9e/HEiWrZQdPHTPl2SwDALEgY5myZE4aTJ0+ysgAAmMnaJQwvPPxw98ott3QvPPpo9+2rr+66Q4cmQdzlz589OynX/lim/d+89dbupXvu2d0vuq0+3d77RP1/44knJvuVJHh/dMnYzzzTvXrddbtlObHIfcRxRSsDWiGYNeiTMAAAZrWWCYOCrQKzArQC+quHD+8GdicCuu3kQYHat2Oyof3i+rqtctX1tsfRtvvXfm9bHGuyfSF5cFKg+X3rppsu6SsjYQAAHJS1TBjiM38Hau1XMJ4E/BCUtd/7XC8GbycMuh0DfO7b+/oSBvWpFQwnG+K+Xa55x77mTcmCkoZaGQAAQ9b2JYkYmM1BOS77y9iEQftU5v6mSRhUJ48rThhynb5jmIWSBH5bAwCwFxuXMPQt+8fg35cwXLbCUNk3lDBMkwSon3kmDcIKAwBgVhuVMDgpiM/qc1lfwqA6OYirLI9V2ydOLmrJRE2tH97DAAA4KBuVMIj2qzy+LKDg7P1DCYPottspAVCdof5jWycNLhONpzKNE/fX+iZhAAAclLVLGNCPhAEAMCsShg2iNz0eO3as29raqpYDANCHhGHDaIWB35IAAEyLhAEAADSRMAAAgCYSBgAA0ETCAAAAmkgYAABAEwkDAABoImFo+NhnPtZd9UtXTf7Wyt/95Lu71/3y67pPf+nT1fJFestH39K98TffWC1bBB3roTsPTf7Wyg/Ss889213/wPWT+ck8zouOU32q71o5AGwSEoYBDkIKzLVyJQlKFg4qgCoo9s1tEfaSMCw6+OpczJIk+D6uHdN+J2T7adH3x0HxY/Q1b39Nb5IPYDYkDANaF9WDDChDgW4ZLfJctVaBhijpu+b+a6ptNd/9TMj207olQ/5/8H12UKt+wDojYegxFEhE+1U+7UXJz4DysyD3p3LtV3lOVmLb3H6Ij0XtdSFV23xB1W2XSQwmugB7f05QWn2rH7eNpgnEcfzaMWvsaZ8tqw+f58hzdwC6+9G7q8clruO20wRg1dW8+85tX98a3/Pyfp9jt89tddvnxnWzeH/kcxPn1ZLHFs9dY+h2POY4rsviHKcZ29Q+HjOA+SBh6OGLV63MF8VpL2bqLwYdbfvCpr50gXS5xIQlt9X+sQmL6uoZuPvz/H18DhA+HvWpsbSt2+94/B2T/Ton4n5jWwfy2rmZ9XxJvvjHc6YyB5Yoz3GI5hT7N5+DvuNyuc9hPGexnxr3pfvDc43HNdS3z7fq6n7x8Yrq57Yey9txX22u2udj9rb6U7+5bpbHFs/Lt+Mxx77jOXF9/fU5cX8tteMFMB8kDBWti+QsFzJdgPOyuS/0up0v1BrbAd4XYtVx22nmoD7Ud2yfL+T5Ajt2X+7bF+w4lurM8pKB6uscxPuhtq82r7HUVvJ+zV/BuO+4crtpjtH3Z2yv+fv+HOo73lYb9fPE557YnZv2xbbue8xc9/o4y3Vzf5pDLNf4vi99fuM81W7s2FY7BgDzQcKQ+MLVd8HRBcmBvFbeR/3FZ8ESL4b5oh4vlrqti6DGdrnqqo23h8S+vM/ta8dTOwd9F+LcdwwCfXXGyudEcl+1uY411LYW/Hye3C7fn2PnUDvn1uo7Hn++Dz/49Aerx5MfK7GPWE/zUfIXx82Puz6edxwnPhZcHucWy2vnpG+eQ9R+luQUy+5rxfniuUK/tnsuULn2q05uh3kiYUhqQSrKF9+xhvqtXWxj/Xzh1MUwrxgMyWPHi3PtAqvbvpAP7RP1G/uuXeSHjn1I7tv74nmqzX+sWpCyPE48rqF2Y6ivvkDc6ltzEs3jxodunNQT3f69z/3eZUldrb+++6N2342lNmobx9YYQ+cszkP7VR7PSb4Pxhg6tzAF1/9b/J8L2/8r+FTxR8Vni88VZ4ovFmcLtVPQzv3NQuM/WXyo+NVu++v/qtv+6j/otrd+ots++wPd9pcOzckV3faXv6fbPveGbvsrf7vb/to/L+O9s/gvhY6xNjf0IWEIahetaC8X1KELWe1iGi+Wsa3odnzWOSRfyL3tC7X7c7m384U6zkHzfP/T768GiVow0r5Zzltup23PwXU09ix9Sz52ax2Xy7XP5dOIfWVDfcd5ae66rb/aVn+5rbfH3h+6X2dNvvLY+qvHqMfJ95O240twqh/nqe18X4/Rd2yb4zPFfy3KY/fr/6YE4b9XguWPlsD5nSmQLsJ3FGUcBegvX1X8ieJ7i+/a2T8pr7U7SGVOW3+lJBLHyjn79UKJxNPFl4va+d1sJAwX+IIXg0SkC1cO6tPSBTEu9/rCpj5jopLn4m218crC2LmoT11447i+qJv6i+W1cxD78bxr50THmPvPc+g7x1k87jhurJMDzbTUPvc/5rhUlpfvxx5X7RxFfX3HeWnb84395ba1cYbuj3g+ZJqgrX7cznPyfdPqV/Viee2+7pOPxzz2+tHSu1YDHi7+XUkK/lFJCv58JRhiz8792Z2Via/fVc71fy42NRHdQcJwgS4ufRcp7VPZKl6AFEBiMrJudJ/UgiKWy9D95P+vsQnXavtq8aVCy/36n/zD4oniVPG7xYeL3y5+o3iwuLfbPv9PS9D66RK8ri9BbD9WCjBI98PX9Fh+X/HJ4itF7b5ePyQMay4+E62VrzIlQ7zBbfm1EgIls2NXzA6OAv0zxe8XjxYfKB4q7ivB460lqP/jEtTf1G0/9ze67a0bS1D5c9322dd321++ugQZgvzaO/unyv3/M932199WHhNK+GqPodVHwrDm4rLwuohL35vxrHS1tRKC/V0F0xv3Pl9oSV9vulPw19L+yeKdO6/7n7+tXPx/tgT+vzTnN+BhY1Qfe6uPhAHAitPq2e8V7y/uL8/4f7Hb/uovlGf7f6s803/DhaC/jG+4w3r6zguPy/VDwgBgyek1Yr1z/aPFr3fbX7+z2/7K3y3JgN79X7tgAweJhAHAQugd7/ryGX0uXZ8L1+fg4+fiVUdL9fpsvD43r9fR9Ya5LxRqo8/I6yNg/py8gqs+K//1Io910DTX/13ofQCPFR8p9MYxvRfgREkE3n5hdeBoSQiOdNtbN+18LK96UQaWFQkDgNEU0P9HoXe86xnxv+22z/+Tbvu5nyrPin+kXFCWbXn8iqJc5PR5+cln6P94oc/Qf1+3ffZP7ryh6+w1xeuLHyzHcHjnOM7+UPFnih8oda8u/Jl79VcbB9gEJAwAJvQs/n8W+oIXffTtnpIMvLkkA3+tBM4SWKsXEACbg4QBWBP6eJyWxrW8r8Cvd8p/onik0Efl9G55fePbvy+Od9tf+5fd9lf+TnlGrS/GuTJdGADsi8k3R37/zmrW7mqXlCR9srr1PaXesvx/kjBsnsmDb79pKXc2Tz94RffhG67onvv8Fd3jd1zRffzWK7rzF8o++8il2720DF3bv3AXz8Hjd1xZjiWek4vOFx+/9cpyPDvbzz51Zfe+a6/s3vPaK8uxX1mO/fI2F9X+sWf37FOHytiHytiHytiHytgXy3T7kVt26sQ2uNTjdxwq93W9bJWtzHF9+bt3ArBeYtJHSPU7Dlt/uWy/ofjRCy87/WChAO2XnfRylV52mtf/VPn/1zw0/lf/frf99X9drr9K2P9ToU++6OW9yvW56Yvd+XN/WK4Xt06cP/cvuu3nbi7jDc/7fPHxW3fuQ/0f6397+vuShGHzVB8Ie/eNJw513776UPfy7fXyWelB7cClB7se9Hrwq+yzj1y6XTNUx/9EqpPL5kkBVoE2Bt+ob46tdotUG1u3F50w7CUoqa0SHYv3q+9rl6lubKtjcqIk+f5QXy5Tvb5zcJD3Wc285rNUx1WelT/71N8s87mlzEcrZh8s9M2EeoNs5ZqXPH7HHeV+fO0lnn5Q3z5Zr5999pFHyuNDwdq/KLm/NO7FhCHOQUmIvhPkV7vJj1HpC7e0glgSIT/+SRjqSBj6LOCNaS+eONS9Ui4m3ywPyHknDDGY6gEeL/R9gTYaquN/ohhYFkHzHvrn1DHV5nCQF+na2LqtfSqLdedJ52KWhKH22IgrJCpzeb5g5uPy48Ll2v+hUt/l2h/7jlTmdsugdj/O4kCOS0vz+upofdx0+z8U/73Y+fGkZ596qhyXEgZ9WVXlOjdACcM0CUJ20AnDbLZ2j/v8ubeW+f/FGa57JAwb44WHH+66Q4d2vfDwxQeCAr4o2Ofy5wslAtp+9bqdMv19/pmdcq0svPzWndtq35cwnDx5qLv55kPd6dP18lk4Gfj9X7n47M8XNV0o4zNGi6sVuUzcXn07eOWySHX6gofkYJQNXdD7yrStMT2vWkIU5y3x4qDbfWVWG9vH8qlyX/rc5rGHxh0qz/vNQd58v+b7wvdVrOf563YM+KK6nnvtWGN/uh3n4fOfj83nJ47j/fH+yseU7498bNqO5XFcJzcuc995TMurI0N9W+24PK7qa8yLfesTKXpN/odK2V8o+3eewb/v2mtL2T/sts/fXvb/YveJ224r7W+d7P/UyV+b/N0JwvrI7blS96nJPrdXsNN1TAnCh2+4YXe/7fT/1O71ToHRZaofE4uhhEHJgMvd3nXznCz277axvfpUmfblRKO2r8arCnHc3C6fm3a/KtPc7rnw658/fMn9fjkSho3w/DPPdC/de+/O9pe+Yzf4O+grWVAioL/ajuVKGLR6oJcblByovC8xOIiEQRcqXyS1nYO39tUCqsSLXi7LfetimYOOqDyPGemC7D5qVJYDhGmsHMg8Z7fxdhxDZX1z0r4/uP/idu2cSW1s3VZd1/e2z1/uS9sxQNX6zIbOh6iPWsLg+0t/8znRvvgYcF3P1fVdJ87bZdqntt5W+zwHbdfua51vH3M+Z9quJRnWOmcaz2N6bnFeQ+0vLysBQR8p3frJnS+QOv/PyrP7u0p/7yxjKGDrVw3/W/F0CUR/VMbaCWAOqKqzU28nuH6oBC8HcQVNB1bdVjsHZ+3/4ic/WeZyy6S+A58Drbc9jvvvW2GIY2k7B2UH9djGPDcfR+7L+/qCsdrF9nHsfE60T2V9cxmSj0mGjms6etO0Pjp9fOdj07vK46Faf/WRMPQpCYMSgW/ddDEB8OqCLySx3AlDXJHQbe1TmffJUMKwCDkQ1C6+uU6Ug0GU2w3V7dNqM0uwUF8xKOd6EgNSS98camPX6jrA+1hzEHW5bqudAvHQ3GL9afnYczDXeJrbFx7bGV91vvjJy49FbWIioX3xPtTc3Lc4UOd63tcnHqPnHOcbDZ0ztdWYnqvsHOv3lUDyIyXw31Ta/3Q5TgVWBX8t7d9X6AulPljKPlH6vra02QnMNQ5quY73OzBKDKQKXDF4xX5iPQc5BWQnDLVgGNtoeyhhUJ9xvrFvlyuoR66fx8lta3Ui9T00Tx9vrWwatXOUx8Z4JAzJy7ffvvtyg8QVg1rCoBUGJQZ9CUNcobBNSBj6Luw1Q2NLDjqZjiMH7VqfsZ5u11ZCIgc+87PpWKc2du38Ovj1ncsYHEXlHrd2bnL9sdSvj0PzVBB2/x4zJgLx+Dx33xcaX/XVzmXajvOqHVfteFzmY7bYVnPR3LU/zvHS9t9ZeJn5rvI//Rul3e9OAn4OfkMBK1Pwq7WL5bX92tZ+B9qsFpRF9WOfDqAxMGtb+2N/eR59x+V55XHjSxYxaGd5nDivvjrRUN8S26reUN0hapfnkI9dY8U26EfCELx44kQJ8NeVAP9MuQCxwmAOBqqTy3K7obp9hoLfmP5iUPM+1c9BJe6rnYNI84nt++rXxq7V9TH6eOLx1vZFahvPsff11e9TG0dz1XHq3Gi+OYnSfo9dO6fqy+Wak7jM46md9/XNW2PmFYLeYzz3w2X/z5a5aAn8gfK/q1+b1NdNX3z3vwKSA0UrGZAxdSz2HffVgpqDU19QGhuUXS8nDHkeeV/fcbXmJWPnpu15Jwzu7wuPPTZ5H0fsdxq1cxSp39bqES4iYQiUMLxSHqTPny0XnpIwKKgPrTDothOCnDB49cHvd4iGEoZFvunRAacW0GrBIsrBwHLfusDnoCJqW9uv8XLAjXL/NbU+dFvjOeA4eMUApDn19a16sUx157HCoNv5HOkYP3zDd5VtfRXz60tAvH7nc+n63PjWT5b6P1HmcmO56Omz8j82+QjY0w/+aNn3I2XfD5c2+qy8vqL5Txf6vPz3l7GvLvO9qtTT1zV/d/HHyrHoeywuvR81to/L58jHnc9ZrKttl7s/levZv/56++JxXlHafVc5L99btq8u87ymHMcbyjH+9cn7AJ596s0XXre+p/wvvrO0fc/k2d9OUHm8OF1cDHq6wOfXzKMYKBwcFaRqdUX9qL8xgSMHob6gLB67r1/tj8/qc5nHqSUMOdjVjmHouNTf0Dnca8Kg2/G9CFErYRCVq/2Td999WZnPa9+5M/UR55kNnZ8+W1tb3bFjx8p1+uZyndbjsl5vHZEwBFpZ0AqDX47QpxryCkN8uSKuHjhhiOUxWXACEcslJw4HlTCIAoOXgnNw123tc3kMIt5Xa2cKKrUy9RMDWBYDbRbnWxs/z7k2jvbF9g52ue2Td196zobGlt26+rKbrZ8o4/xCafO28jj71eI/ltsX3x2eL3qxTGoXdV8wXScHQ/WnfvNF2RdIt8tj53532uvrsLeKs5fNbWdc//DVVycXXpfleattnmekMrfVHPTM0vOP/cq05ywfl7hvi2PE/lt9Dx2Xxx0KSPnY3L/2q636UP8aR/tjYPb97Lb5mHL/rfPm8VQW7w9z/3Fu2s7zsth/PG8+nlg387HVzp3Paz6eTGPkeWoetWOaxsmTJ7vDhw93p06dqpavKxKGPpXvYcgrDFFeYdgUORmZxiWBtVKu/SpXvVr5UtCb5r7yMztfALN9f6FfX9QvMeqrpyuPqw3VF1BW3boe1zLQOdW5dZIxCyUDfcncXihRYIUBF5EwjLKXhOFgXVme/eslAH087se67ef+6k7g19fTnr+tJABvmXxUbufd8loVeHfx24V+kvkPip0vxgEwf15BmOXZv3k1YS99ZGfOnOmOHDmykcmCkDBMQe9x0KcoamV634Pe/6AvfqqVr6u8NAkAs3KioJcKZlkZ8MsYfrlhEasLm4yEAQAANJEwAACAJhIGAADQRMIAAACaSBgAAEATCQMAAGhau4RBn43VZ2Q39XOyAAAswtquMOibuPR93/re71o5AAAYb20TBn0jlxIG/a2VAwCA8UgYAABAEwkDAABoWtuEwb9Zvmk/PwoAwCKsbcIgThr062KsNAAAMLu1fkni6NGjfLQSAIA52Mj3MPi7GlTOxy4BAGjbyISBlyoAAJjORiYMcvz4cVYYAAAYaW0Thr5vetT+w4cPkywAADCFtUsY/P4EJQV8pBIAgPlY2xUGAAAwPyQMAACgiYQBAAA0kTAAAIAmEgYAANBEwgAAAJo2KmF4/uzZ7pVbbuleePjhavl+mvdc/O2V+jip6IupXHb+3Lnu47fe2j1+xx3dc5//fPfhG27onn7wwUvaLyvNU/PVvDV/HYeOp1Z3Wovse1n4vv/sI49Uy6fVOmcnT57cfQzyXSfAeiFhOCCLShhq3z2x7AmD5tU3n01NGBTg5zEf3/f7lTBY3xenAVhdJAwHZD8TBnFQnncAmYehhCEGTtVR3Vq9WSyy771a1oRh7DkjYQDWz1omDC+eONF1hw7tclB2kH7xXe/qXr3uukmZ/j7/zDO7bVW31tZlkyD/6KPdt6++elL+8u2375a7f7eNZZPyMo7HtZwwaElX31Q57c9ytxKGIQ4CX3jsse59117bvee1r70kEHhVQvslB3e1d5nk4JTbx4AT29kyBO5nn3qqe6Tcl1/85Cd3554DeJy/n3W7LB9zPiYH8txe4/o+iHL/Q/LYEu8TzcX7NZbG1H7V+cRtt03mpf2fKo9F/c3HPQYJA7B+1i5h+MYTT3TfuummS5IAc0BXsFe93QSiJBiT8tLmpXvv3a2vYB4TCicT3qc+Xj18ePJX5UoQnCRc1nfP9rIkDAoeMWh9qNzWXwc2JwkORg5A2v6D+++/pK8Y3Fw/JxmRAthQ+UFw4HZAzcedj1Pzj4FV5ySfA7f1OR1KjFR3lkCd7y9ve+w8T237OFTHyYXmpv1KmJQ4OakYi4QBWD9rmTAoIciBWGpBWgE8rwSYkgIlH04I1M7JxqQ89Ke6uu3kwvUn+0q9eDu3df292GvCEJ9pxiCjfXrWGQOXgkxfsFPgiQEmB6iaZU4YHGglzlO3Y1k+7iy2VbuYbNSoTuu81eR28b7MiUsuj20939Zx9SFhANbPWr4koSDsJf9WkM4Jg267rcQEIQf9yIlKbCuuv+wJQ19wUpmXryMFFNfR7VgWkw+Vxbo1Dk61soOi+StQ1oK6g2w85nzctfPmY9TfvvNtQ/eJxtBY7jcmH7md56r9teAfy2Nb3yckDABs7d/0qATAgboWpGPCoNvxJYjaCkMM+pHq9L0UIqucMPSViYJKDFg5wKh8XRMGnZtcJg7osTweY+ucypg6NbldnKuOJa8wxH2xLQkDgGztEwYlAdMkDDGoa//YFQb37b4y9ZHf76AViJwwHOSbHmvByQGlL6Brf2yrQBOfadeCZ5b7mIaPe5ZzNmQoYRDNOSZKkdr6PSDa1rHHFYbWOZXcx1i5ne4Pje3zr+14ruO534+EYVH3F4DFW7uEQUE/viRwyYpBI2FQvfgphpff+tbRKwzi/uP46t/lcW4ed9kTBnGA8xJ4DEC57Mm7774swOh2XELPY+m29rlcwcplY/jLgmY59j6a81DCIAqonnM+Lgdq79f7QGKCkM9bLfmI/dfK+8R2uq25+P6SOLfY734kDLKI+wvA4q39CsOm2EvCsOp0zDxjXS5DCQP3F7CaSBjWxCYmDGfOnOmOHDlC8FlCtYSB+wtYbSQMa8IJg7/HP/6WBLBf/HKD9K0wAFhNJAwAAKCJhAEAADSRMAAAgCYSBgAA0ETCAAAAmkgYAABA01ImDPpI4NBHA/XRLamVAQCA+VvaFYahLyLyF8Bs0pcUAQBwkJb6JYmhlQR9U9zRo0cnyUOtHAAAzM/KJgyilyx4aQIAgMVb6YSh9n31AABg/pY6YWglBLwsAQDA/ljqhEGUNOgTE7WVBiUKShj45TsAABZr6V+SGPrVRVYYAADYH2v5HgZ/JJPf3QcAYD5WOmEY+pSE9uulDL6rAQCAvVvZhKH1coQSBVYYAACYj6VNGGb9pkeXkSwAADA/S5kw+Lck+j5SObTyAAAA5m+pX5IAAADLgYQBAAA0kTAAAIAmEgYAANBEwgAAAJpIGAAAQNPCEgZ/0+LQxyMBAMBqWPgKQ9/vPQAAgNVBwgAAAJpIGAAAQBMJAwAAaCJhAAAATSQMAACgiYQBAAA0HVjCcPr06e7mm28mmQAAYAUcWMKgbe0/cuRId+bMmUvKAADAcjnQlySOHz/OCgMAACvgQBIG7eMrowEAWB0LSxj4LQkAANbHwlcYAADA6iNhAAAATSQMAACgiYQBAAA0kTAAAIAmEgYAANDUmzD4Y5F9H4nUVzu/7W1v4+OSAABsgOYKg76NUclDX5nUygAAwPpoJgz6Vsa+pECrC1qBUJ1aOQAAWA97Shik9tXPppUJ/SKlXr7IZQAAYHXsOWHQL00ePXq0mhSQMAAAsB6aCYOCvRKCvp+g5mUJAADWXzNhECUNWinoW2nQ/r43RgIAgNU36iWJoV+bZIUBAID1t/D3MOi7HEgmAABYbXtOGIZWIFSmhGGoPQAAWH57ShhaL0f4vQ995QAAYDU0E4ahNzSqrJZMOJHg5QgAANZDb8Lg9x8cOXKk+pFKrR7wWxIAAGyG5goDAAAACQMAAGgiYQAAAA3b3f8H2biOjJGFqdYAAAAASUVORK5CYII=;" vertex="1" parent="wzgoTrztu6sZJbIXpPw0-6">
          <mxGeometry x="30" y="370" width="540.89" height="375.5" as="geometry" />
        </mxCell>
        <mxCell id="wzgoTrztu6sZJbIXpPw0-8" value="" style="shape=image;imageAspect=0;aspect=fixed;verticalLabelPosition=bottom;verticalAlign=top;image=data:image/png,iVBORw0KGgoAAAANSUhEUgAAAdMAAADjCAYAAADe8/60AAAAAXNSR0IArs4c6QAAAARnQU1BAACxjwv8YQUAAAAJcEhZcwAADsMAAA7DAcdvqGQAADF4SURBVHhe7Z0LkFXFuba/GebOZUAuoigMRxBOxIBYimAiHoIGTcAjlILR/J6DXMojZQ6UgXAsjrEoouJfkFAmHoRQh98kggloQCMSQiSJIibcAlEQKlzUCALiwMwwMMPw99t7fXt6Fvuy9qzZe27vU9W19+5eq1d377X77e/r3quzSktLLwghhBBC6k2290oIIYSQekIxJYQQQkJCMSWEEEJCQjElhBBCQkIxJYQQQkJCMSWEEEJCwr/GEFIv1oqUP+C9T0JWN5E2XzbhKhN6mc8lJnKgCVfY5IupNOGMCdX208V0MuFk5K0FY+I2MQLiOV4mJBNQTAmpFymIaTwgstlGYC+cMOG4CZ97CemmwHsNy3nvtQFpu9C063TvQzrBYKOhMXlmX26+1y7m9RLz2tGEYvO+swkYOPUwwaTLpSa0M4G0JAKL6eefZ8nkyUXSs2eNPPVUpRQUUINJ00Pv0w0bIp3lkiVn5N57q+z7hiW4mB7+jcihFSJDlorsX2JsziMig+ampzsPw/Hdppwrm2bZWiRthprQx4QSn9i2N6HIhLYmZJkQ4fiWLbJj5kwZ8tOfysnt2809tcLcU0slrxM8FaSxafY+oP3728jEiYW2E60Pu3btkoULF9rw3HPPyaFDh7yU9FJZWSkvvviivX5DgvKjHlonhLfeestLDQbKhLKhjH7SVW7FDO5k8eLFca+fjKVL82TIkGqTzykb0iOkzYvTn4psuFPk/R97ETGAjQkh7TW+rpBCYNcMjATkgbwyAcqzdU7k+g3JuXMif/w/tXVCSNQusUCZULZ4djnywwAqKec3mwK9aEZXZvRSPtWEb5ow2IS+JhhhLTeWbbmxbMuNwCLIGBP2mHCzCdNM+JMJ/U2asXRjBTGjN5IxAovpJZdckFWryk3nfKbFWKUQmU2bNsnYsWNl+vTpMmnSJNmzZ0+9OvGmRG5ubrROeN27d2/GBglhgECvMKPtHj0wQk+dysos+fTTbBk+PA3uxxAU9TShlxGpPJF2vUUKu9cVrHSCTv3Dn4h0G+5FxKHCiGRuO5FOA7wIA87dMVPkX9aZbnyneTWfj72dFuduxhn280idRv1Z5MSWhhfthqXchvzOldK+b6V9LeppQq9Kc0+hr4oXakwgmSKQm/fll3Nl8uRC+/7xx8/KzJln7XuAtGPHsmTjxlz7+aGHzsl99xVGj9uyJccIVhspKamJ5uG63vxuuYkTq6JuZHSOs2cXyIQJVTaPefPyZcCA87J8eaURd+RXe56i6X36JP7JwwJCxz1s2DC59tprvdi6QGy3b9/ufRIZOXJk9FiknTx5Uu6++277GWL1u9/9TsaNGyf5+fny6quvyjXXXCPvvPOOVFRUSFFRkanHBCkuLpZXXnlFDh48aM9zue666+TWW2+17yEsGzZssO8hjqNHj5ZevUyPbMD5nTzXjpZPy4ZyrFu3TkaNGmWPx8Dgl7/8pQwaNMimI98dO3bIPffcY9q4wLbDqlWr5Gtf+5rNZ+3atVJVVdea07Jv3LgxabmTtRlAu2k+mo5yIP877rhD3n33Xfnoo4+iZQyK3ku472Cdusyfn2/vQaD34fr1FdHj4OF48MEC2b07cj/p/Yt7cN68PLnqqgvyne8U2Hgwb96vzPkPyBBHfOoLOvJ37vc+GNDRd/HyVQun7IAp4wuR95qOO/xvz4hc/g2RD+abdjXi0MlYWnAn5xnhhhV55LcifY0lptbXlx6JvPpBOoS+p7E+ASy4LZNE/tmIqZbFD/Lf8pAR4k8in/tMqc0fdXJdxshv+3dN+vdE2l+WuF4oi8a5DHqqtnxumxWZsdeQn0byBXrtq/5d5C/GgEP5tGyx6uXWPVG5gVtfRdv8iPm57pjtRTq47ZKszT7bFCmL5uPWOQiHjovpM0W+/W0xv6VnTYy5AMkIgSxTCB9cZhDBWPziF7nyxBNn7Hzqb3+bI3/8Y5mx8LKjrleI4MGD2TaPrVvL5aWXcm3nhY5q7twCGT/+nE07evS0PX7RItMTONx+e5HtCHHMXXdVy+rVOVFLGfmNG1clBw6ctulvv12eVEjB4cOH7WvPnsZsiAFEBxbdxIkTrYWHTh9WbFALD4KE4yFqDz/8sBUkFRkIMOK6dOli80X+CCpIuAZEWK3L4cOHW4GE4CjIC6KEdIgZBDKWRX306FFblnj1dIH4Tps2zZYJZUMZkf/UqVPtICBZuYO0GcqNgYC/3Jp/KuKp4F66+ea20rt3ezu4wv1SXNzB3Bdt67j/IaJ6H+JeXrEi196DOGbWrAJZsOCsTcO9hEEgBoqgrCxbdu5sY+/rX/86x96LS5aIqZtNDgU669N7I1YSAgQFwoh4BR0rOthY6VVlEetxkBFVpHceYtrDlA1AXCCkyUAHf/pDke4jvQjDKfMZdLg68uoH198xy1zXlMW18AK5Nz3cekE0IGL45UJcvmHieoyJ1BfpCCoqKO/75rpqMaMMKIvbZp+sMffj90VueTVy3HFTNpznx7a/qWun67yIBKA9R5r6oUwoG8qI63/1/0UGLygfPkMgUR8tt4plkDbDIAIDDKTjOphrd+tFmi4NMmcKgbv66oiBCyuyqKju/CWszUcfjdwRV1xRYzqjC3LiRJbtoA4fzjadbsQ6gDX6yCPn6ggxgDWglixceHDloRNMF+jc0cn369fPdvIA1hPcjwcOmDs9IBBBCBQE4sorr7TiFwRcA9dWS7Rv375WjHUAACBosOJA7969rWCePRuxmvB+9erVdr4UrzfccEO0HukiaJuVlJRExddf7vqCwRMGURDBkSPPW4sToojBFgZdinsfDh6MwZmxECrECHCOHQgOHBgZhOEcWKWbN+fIGW/8qPd1v3410fu1IUAn3Huc98EA8crrJHL2hBdhQOesQhIrHZ2zWmVw52KBU/LhZC0nzRivPfKtO4ZNCKwwuK7VLYxzYe0d2xz82m69IGbVp8y5AYQD5S2ZUFtnlAFl0QEAgLWKAQbKVWSOa2vS3TaDVYv50nU3iFz29dq80kmQNoNI9/PEN9Z3nYxeXYxxYwZTd9ziRZCM0WgLkA4dioghOjGjEwlx58DglsvUvG3nzp29d5kFogsLThcQPf/883L8+HEvNQLEWa04iC6sQRUxd84U8bBy1cWabhqrzYIwdGh19L6BAC9bdiYqtpddVpOReyoWcDPqYhh07qf3eQlxOGfGZIk62IpDwUQJwOr59E1zP431IlIgk3O/LrDcYNVqm71uAixRl07XR0QUoIzXz63rrlaLF9YlxAzfQSZorDYj6afRxLRXr0jHBcsU1oECi7W0NP3F6tChg7WKXGvPz4kTtT0WLK+ysjLvU/qBC1TdqBp07jEVILCwFoNaxWFpzDYLg9/boYO9dAMXH1x9cPmp6699Xy8xDrBW8hOMWXSxUxBgzeV0qBUeBfmfNeM319rz47eAK+L/lBoc142qId7cbiIgbFjBnKo1X18as81Iesm4mK5Zk2MFtG/f8zYAuNkAOjPMY2EO1XXPJQILkSC++/alNt6DNQcXJKw2nYtE5//mm2aYboDlh/k/Tdu3b59dSASRUyAUOAfHYE4T4hwUWJXt2rWT/fv3ezG19OnTR3bv3h14fjYRKBvqgTwV1AOuVZR9zZo19rMLBhqIw3yrn3jlVld2sjZrisDl+957kXlRgCmGlSvzrGu3MLJWKa244of5zkSWKdJjiR+AlYn51K74+6IXlwj8+mL9HQbA7akLm3TODsf//VeRV7hlT241YbdNssdgfs/NSy1kHL/LWIbJLG4X5AErDgty/MCV/eFzsedAU0XbwG2zZOXGQKPcHIMV0LHAPHAsd3eQNgsLFiB9a7LIC8byJpklqZhC4KZPLzQWTge7gAOLifAeqyODsmxZrlx6aXt7HjqpJUsqrFgi4D3ikIZj4G5L5b+BOr+li06wEAULUoKABS/dunUz5Vtm3alLly6V/v37W2HAvB4sOk3TxUTqSr3pppvsK1yw+E/kl7/8ZeteTYURI0bIZ599FnXnqisWFijmW3XeEwH/vVSRSoY7Z4ryox5q1eJV64yyQ2QxH+uCgQbO0Tz8145X7mRtlggIO9oR58HFDbe2ti3S0glcvlgBPmNG5N7GQiYM6PwrgusCF7tRnCwNJSb0jLymABb9oPOGqxIuy9z2F1umWJSiLs1YD3xw5/96Taidh0Rnrf+pRB6aj7o0IQaYp4y3yAgLZ7CgCfnivN+bfLveHLk2xBYraLH4yb22Wod41XNRt8tuS25x++ljRAFWO/JH0IU6yBvzxL8fVZuGeqroB0HbDGWDaGubBSk36o45W72+/9o9vLz0O9X2TtZmDUHHjka0O4kZGGIg7UWSjJD2xwliVSSsTT41ibQu0JPBdPmHCUYtq/AHfWMCpQgEBHOEuiLUBZbPjjkRy6Y+HTI6ef1LCGkZYCnf//2hGfR0FZkyhX+NySSNNmdKSMsG1nh/E0aY8O/G5DRmYVsjsG23mbDMxOFRcQiNBwSaQtpyeOMPIneM9oTU+d8yyQwUU0IyylUmjDM6aixWG/5uwq9NeFqk4DtGdO8RaXOjOQbPZyUkOPg7zMa1jpCWf9d7QzIBd40hhJAmifs4QNo9TR1+Q4QQ0iRB96yBNHX4LRFCCCEhoZgSQgghIaGYEkIIISGhmBJCCCEhoZgSQgghIaGYEkIIISGhmBJCCCEhoZgSQgghIaGYEkIIISGhmBJCCCEhoZgSQgghIaGYEkIIISGhmBJCCCEhoZgSQgghIaGYEkIIISGhmBJCCCEhoZgSQgghIaGYEkIIISGhmBJCCCEhoZgSQgghIaGYEkIIISGhmBJCCCEhoZgSQgghIaGYOsyfny8vv5zrfQrG559nybhxbaW4uIMNqZ4fCzfPm29uK/v3t/FSGo7KyiyZPr0wWm7UvSmgdUfZUEbS/Dl79qzMmzdPdu7c6cVEeOGFFy6KSxXkMWLECPtKSGPS7MUUQjNxYqHthBuDpUvzZMiQaiktPWXDvfdWeSn155JLLsiqVeVy4MBp6devxoutS32E32XNmhz7evToaVvumTPP2s/pZsuWnCYnlG+99Za8+OKLpkyVXkzsuHSBa+BaCxcutOGVV17xUsKjee/atcuLaTiC5r18+XLp2rWrDBw40IuJ8PWvf10WL14shw4d8mJSA0KMgPaaMmWKF0tI40DLNAQQhE8/zZbhw897Mc2HgwezZejQaikouODFNA10ILFw4ZkmV7Z0UFpaasWmXbt2ZpAx3YY+ffqkRfwaAxW88ePHezG19OrVS6ZOnSo/+9nPrPWaKv/4xz+sQBcXF3sxhDQegcQ0kUsQlgbi8Ar0WLU+EK9WlJ7vWlR+N6lrtWhemgfS1e2p511/fVvT+eZK797t66QHwV+vefPqujq1bvHyragQOXw4dhP683brhbLDmnbzC2ppajuirJMn189Ni3JgEBAL5O/m5Vr+OG/OnHzbLvqd4dX1CvjrrenIB214++1FsmxZrlx6aeT7cs9375FY9dE8Yh2Dc7Xsmq73ZEMAS1UtRwQVO4ghrLPXXnvNxr/55pv283PPPRe1uHAMLDA9F3kp27dvl6KiIrnjjju8GJFrr73WBgWWl57r5gvLcMWKFbYsmj9ecT2A855//nk5fvy4bNiwIeb13Xq55zZE3hBItAusxniC179/f/u6Z88e+0pIcyWQmC5alCeXXVZjfkinrFsQHTE6LgAX55IlZ2wnhk5R3YdPPVUZtSzQ8cMSwvlbt5bLSy/l2o4RHe/cuQVm1HoumjfA9VzQAZeURK5/113Vsnp1TtSCQX7jxlVZlyjS33673Izsg1mKbr0QHn+8dnSM8j39dJ7NH2kLFpyVWbMK6ggDBHzDhja2fOi8XWHYuDFHHnmkbr20bcIAN7KWFe2uZQ/ipkXZUEYIGQRNxTiVAUhZWbbMmJEvzzxTaevVs2eNaYPagdTs2QV12hTfEb4rfCf4btavrzDiXBV1L2s60LqhXn5QdrQ/vgccg+8bYqn3IUB99D5BHitW5NoyhQWCsnfvXlPuiWagMF1GjhwpmzZtiopahRlVVVVV2fj3339fBg0aJD169DBlPGBFac2aNdKvXz97LvJAXsgTaR999JFceeWV5rdSYPPyA3EqKyuThx9+2J4/YMAAWbdunaljRNRwXZRl1KhR9hgIMwQa3H333TauS5cutmxq+d5666023V8vlBFlRblAmLzBkSNHbNlLSkq8mIvJz8+XwYMHm+9yixdDSPMkqZiiE4N4Tpp0zn6GQE6YUCWbN+dEOyp0ghBViOS6dRERcV106DwffTRy/hVX1Jgf1wU5cSJLdu5sYy27kSOrbRrOwbl79mRHRQlAOHQuEi5VlCdsJwnxwHW0Xn62bcuW++6rigrzwIHnrXDs29cmKgzo0EeOPG8Fwi8Md95Zey7qBZcqBhSNiQ5AIGT4TlSMUxmAAAgajvfXS7/PeG0aBgg22h/fA0BdMIBw70P3Phk8GKIa8R4EARYWLC21sFQ0ICw7duywQqPWFaxGFUuQm5trBQFAXPr27Wvfg6NHj9r0m266yX5GHshr//799nMiIJgQO4izii3ygagdPnzYfgbDhw+3LlMcA2E+efKkl5IYlGHYsGHRel133XVWQFFmpb55gy+++MK6r+MNFJTLL79cjh07lrKrVwcihDQFAohptrz3XnbUjYoAS8wPOtCNG3PNKLY6UMd86FCkA0QHafqGhLhzkhDtTMynQSBcN6pac0FR61XPR14tHXynQb7P+gKLN13fO0RQrT8ECItL586dvXepcerUKTP4+zSmUAcBQtyhQwfvU8OBQQKsRtdFu2zZMmtlNxSY0wxCx44dbVnUIk7GG2+8YVfwDhkypI57nJDGJJCphBWl6kbV4AoaLAO4ax966JysXJkXaK6qV6/IubBk3N8vLNbS0sa14BTXjaoBYp4MdUl+5zsRNy9CLNdlS0O/03Th90jogCwTnDhxwntXK0RB8Qs1AtyksNhgucHCiicksBQhyAqst4YUPNdFizBt2jRriTYEsDiDENSCVSCgGzdutK5hCCshTYGkqgW3LLxA+AtIPHQucMSIaut60/nTWOBYCGjfvudtAO6cG+a5MIeq7tJkXHIJ3HnZ1v2aCv7zMPfmLkCCNfyjH+UFnkuMhYoL8kBeLrg2Bg7Af+0gYG7QdXE2JCpaOigIOrjB94nvNtHccOfOF4zVnyUff5zagAluW3hI4EoGKBsGbphySKeXQt2bcLfqPOW+ffusoPmt11j07NnTHvvuu+96MXWBexj5uumYy0SA+7Vbt27WzaxiqwuWXFdyIlSw/W5lrdc777wTrVeqxMtbCWpxwoLFX2cwf5oKKD8GIoQ0BZL2aOiosJgIHay6LBF04QdeIRQ6T6pzi5MnF0UF1V29iQ5wyZIKK5YIeI84pOEYuPJ03isIOnemi4CCLqbxnwe3rms9wgLF3CBWCyMdwb9yNR7IGwMCzRuC9K1v1dYp1rXdxU+6ihiudaxURhn89RozJmIha7vGWv1aH9x8R48ust6G4uLY/3X14/8+EfxthikAzEVru2o6xFtXAcMljsGFWy+ct3x5pV38hHi0Ddo4iKcgLFhUg3lOuEHhDtVFOfFWqLrgmAkTJlgxVncqAsQSwAocPXq07N69O5oGcdLVvLBgIVjqJkY+Y8aMsUIWFLhEP/vss2j+uuLWXy8ErEQO6m4F8fIG3bt3t2WHYMcDlva2bdusy5aQ5kyWGZWm1TcHYYC16a7uJYS0DvAfUzyd6Ac/+EHMwQfS8feZxx57LGXLFC5eWKZ8YANpCjSNyUlCSIsED1VAWLlypRdTC/5ahP+uPvDAAykLKajvKmBC0gHFlBCSVh588EErerBCXfCACzwBqb4LniDSmGvFgiQ+m5c0Nml38xJCCCEtHVqmhBBCSEgopoQQQkhIKKaEEEJISCimhBBCSEgopoQQQkhIKKYNAB7HNnv27OiWXIQQQloXTV5M9TFzDbnRc0OCP4xjw+ZbbrmlwR4QTgghpHlByzQk2L0C4BmlhBBCWidpF1M8nH3ixELzmm0fao6HlMPS1N1O3Aecuw82B3iv+4jqQ+ER9CH7sFbdvPDA9Mi1Ig+E1/S//jU7ureo5o9z5szJt8douYI+yF6Be/cPf/hDvR+HRgghpGWQEct0795sefDBQnnmmUq7Lyq26dKttBYtyrM7xWDPz6NHT9vdaVQssbMK4iZOrJL16yvsMQip7CoDIX7yyUJZu7ZCtm4tl82b20TFtqws2+5CgnLhOtjtRreDC8LBgwftrhjYHYMQQkjrJWNuXmxnhm20sE0Xts3Cxs6wAiGekyads8dgVxnsT9mQ+3QOGHDeiiWui71ZS0ouRPcRBVouXHvo0Gq7HVpQ6rsPIyGEkJZFRsS0X7+a6EbgABYnrMvPP8+2Gz5jb0p14cKd25DceGONFVEAwVy48EyD7YHJjYkJIYSAjFmm8YDQwvWrLlwECF5z2PsUO/0TQgghjSqmsBixX/DSpXlezMVAVDGnumlTZJ7TD+ZfKyoiC4rmzi2w87OZgvspEkIIAY0qphDKp56qtPOm6uZF0AVICuZUserWnw53LQLcxFj1e9tt1dbSzRQlJSV23nTPnj1eDCGEkNYI9zMNyRtvvCHbtm2Txx57jAuRCCGkldLoc6bNHX1Ygz68gRBCSOuDYhoSWKPTpk2zD2/gs3kJIaR1QjcvIYQQEhJapoQQQkhIKKaEEEJISCimhBBCSEgopoQQQkhIKKaEEEJISCimhBBCSEgopoQQQkhImpWYYlPviRML7T6oAA+3nzMnP7rZNyGEENIYNBsxxYPur7++rUydWmU3+gZ4UP43v3nexiOdEEIIaQyahZhil5gZM/Jl69byizb2xmfEI92/2wwhhBCSCZr84wTnz8+3VueSJRVRizQWcP1OnlxkxXXmTO4vSgghJHM0acsUApmq+/bXv87hHCohhJCM0qTFFJboqlXlMn78ORk9uiiuSCIe6Tju7bfLpU+f814KIYQQkn6aza4xsFBvv71I1q+vqDNvCiF98MECWbDg7EXzqYQQQkgmaDareXWh0eLFuXX+GrN8eY4JlRRSQgghjQb3MyWEEEJC0mwsU0IIIaSpQjElhBBCQkIxJYQQQkJCMSWEEEJCQjElhBBCQkIxJYQQQkJCMSWEEEJCQjElhBBCQkIxdcAONf5t3PC5uLhDRvdLzTpxQtp+7WvSobhY2l97rWTv3eultG4O//KX8sdx4+TcyZPy/vz5snXGDDlfWRlNQxwh6QT3Hu5B3G+n9++XDcOHy/EtW7xU0pqhmDZBLnTuLOW/+52c/vvf5Xz//l5s+sk6c0YKJ02yQg5Bt3HmteieeyjozRR09Gv69LEBHT8EwAWioOk6UFEwUMGARdMzNVjxXzdWuTMB6ovrUyxJEFqVmMayPJNx771VUlp6qlU9+/dCx46S/cEH3qemQ1HPnlLUq5e0KSyUdr17S2H37tKmoMBLJX4gjIdWrpRRf/6zjDFidPW0abJj1qyoYEIkDq1YEU3vPGSI7Jo7N2rt7120yLYx0nDMCXM8xDfd4Du9fsECe12EQUbU3HJnArTN6Q8/lEtvvdWLiYB7D/cg7sV8M+ht37evfVXgwUI/Q1ofrUJM8UD86dML5dNPs2XMmFpR1Hi4cRHmzav9EeBh+uPGtbXxN9/cts72b5rmun5jxSUj98UXrStXQ5s//clLSYxakHoe3iNOcd3EsdJxHU1DQDlcqm+7TXJXr65zjuLPO/+JJyLx5tgCY03k/c//ROMR8N6tl1tn1wIOQhfT2aOTRWfb01jLX5o500upRa0Jv0Wh7jlNQ0jF4nEtOA1qqeE6sKS+2LXL5ummAf+1/YKE8zXNXyYcixCvXonI69TJthdeQafrrhM8iPusaXMIJoS214QJ0fQrx46V8kOHpOLjj20ZcB3EARyDY49t3hwV23gg/a///d/y9+XLbXlRdi1/0LK7QKy0jEEI02YA39cH5tySBx6QnA4dvNgIKvS4F1GmIUuXSnuTvzJw4Hnbz6BfQf9CWg8tXkwhcvffXySXXVYjCxeaDr+g9rn+ixbl2XhYngiPP37WS6ndS/XAgdPSr1+NFxsBabBUN21yBTbbCG+N9O0bbC9ViEre//6vdeWeKi214fxXvuKlJibnzTfl7He/a885feRIJO5Xv7KvIM9YFOf+7d+i+Z4xP/gLZkQNIF75P/qRlL33XjS96tvftmnK+QED5EKPHpJ1+LAXU0uuuU7Fyy9Hrm3KnmOEUsUy69QpafOXv0j5W29JnhHjGtPJnHnuOcn57W9tOo5z64wyFhiLI5Zo14f9L7xgLVZYM8N+/nPbIao1s3/JEmt5Ie1f1q2TIlM/WDxuRxgPCMtBY8HhPJzfZ8oU6TFmjPR79FHvCJFP1qyRXd//vtzy6qv2OHTeOA/CAmsPQoRzYeHBGtTOHceg09e8Y1lhO2bPjtZr0FNPWRFMJmjJOG/avNp8XxBYgOvhul/s3GnFFqEtLLArrrDpKC/KUWHEFucmo6qsTE6avG555RX5x+uv2/Kj7J9t2uQdEZyT27dL+6uvTklQ3Tbz3wvJ0Huly003eTHBQf+Cfgb9Cvod3eGKtHxatJi6m4bPnFkrlABpe/Zky6RJ57yY1Bg7ttqerz+WbduyZdSoaiu0yYCgQVQqn3zSzo+mStW//qvU9Otn30Mkq401k206DZcc02nFE6mszz+XNkZME1FtOpPcX/zC+1TLualTo2XGa7UZAGQfOGA/AwjkhaIiO9dbfeedXmwEiKpbZ6RnGVGFaKtlr14CDamM8CFysFhBB9P5glMffmg7Ubgou5l2AhCITtdfLxUxBguxQGfuCgvy8YuKFednnrEdPo7D8RAkWHm57dpJj9Gj7XFq4amoIO8S81lFvdPAgdaNiHIrbr0gfhDBIILmAvH98Cc/sRaVO4BAPrCq191wg/yzsfRxLbddTu/bZ61liNEIM4hD+VGvIPQaP966ReEK7T5ypBcbDHxnas1/aAZkaiEHxX8vBC03Bjdw7/aZPNmLqR/ob9DvoP9xvVqk5dKixRQCt3t3em7kK66oMZ29yL59bWxnv2tXtgweXNeCjUfW8eNGiS7Iha5dvZjUwGIgrPJVd2nhtGleSoRz3/uefW3fvftFblYI2RnTqRaYzjGRq7XGiA3wp/ldxPk//KGXkhgIe/Ynn0jbb3wjem77f/onabNnj01XT4B6CTT4vQlB0bkt970KGAQO7ky1ygAsL3UJIrgrhTE/dnLrVnseQD6wXFxLCeKsYuu6AtGBHzSDkteNta95w2pSysxABJ81DcfByg0KOn91LSP4FxEpmP8ErjWN4/5w991W9GDBQcjPHDli6wtca/urq1aZWzbyPbhzhPUFbesuMkJwXbFoW1wT5cL1YTW76amCuqqYxmszHXBcZYTU/W7DgP5n9erM/ROANB4tWkyxeAhu2pUr8xp8UQA6+KFDI67ejz+ONCMENggXunSpl0UKIG6F//EfUmmsCHXTwpXqAmsVrl2kwZ1b9PDDdQQVVu3pXbuirtaie++9SDSRB9y0uWvXejEREUde5a+/Hr322f/8Ty81GO65CCgHytMQlqmLujHR8UPcsJAGbmB0nr8fNaqONQggfOi4NejcLFDxwHk4H1ZuKpYLXMLf2L27Tv7ufC/cn24aAsoTBNRhpBF3PQ8C5BcCuJFR5mvnzInWSQcYuLZey20zhI5GXNXaBhAjzCHi3LDogCNInXF9DF6CehJigTz0e4zXZhgsYdD0zv332+9ZBzb47A6ugoD+Bv0O+h+/V4y0TFr8nCksnp//vOKiRQGXXIK50mxrWQKs8nUXIAUBlujp0yJ/+lMb+eY3zwe2oCCk57/0Jcl/9tl6zxfW9O5tXyFwsDLjAeGu6dbN+3Qxmk8s4IbFql5XaGuMNa0WNQQ6qGWq7uiCJ56IaQk3tGV6ZMMG2/HDWlTXna5aRVAXYBA+Wr3aroT1d75BgIsRLuFPnEGJC1zGcGOijOlAhRQLZdwyQ8y6Dh1a59pum6mrGpYaRAQBc7U4RwU5U6B8sEpdT0IqYA5U65UIv8hiAISBEOZc3cFVMiCk6G/Q7wSZ9iEtgxYvpsBdFLBmTcTlgpscI8bbby+yFtDBg9myZEmtsGFVLuJ7925vOvlcuf76thet6u3T57y0by+ydm1u4IVHytknn5SaHj2irlgEtR7VlQo3aM769dLuxhujD2+AEMOaVHcprFR8ViBU7mpb5IF0Xdzkd9PC0oTbN5aljDiUMfvYMfsZFmT1V79qy4NzMe977qGHbFoQsNAJZUGZ9Pr+lcZhUMsTAatOB/3gB7YDRCeJBSyYF9R0BP+q2nhgvg6i454bz53qBwIGIcOiI/d8dVnCGsOiI7V6U8k7GRAhLP7BQiC37hBYgAEFBgl6bbfNEPAewEJDgJCmMgipL6i7zpcibDH32HXGQnY9Cclw7wW4rrVe6UZX89d3EEiaL1mlpaX8xkmLBqLy/tNPy3XPPhu1zhC3fdasQJ00xAcrQ10hUUGK9fcc0rhgkIS5aH43JJO0CsuUtG4w1+e39LCKFg5/nUeLB9ybsGxckBdcpxBYQggBtExJqwCWJFx/Clau+ucR4wErFq7Gik8+8WIii4Yy4fIkqUPLlDQGFFNCCCEkJHTzEkIIISGhmBJCCCEhoZgSQgghIaGYEkIIISGhmBJCCCEhoZgSkiJ4CtbEiYXcXosQEoViGgL/w9nxfN9Mged/puN6yFfrg4D6pSIayYQGj1tL58bJKL//sY8NDXYB8W+319LuBX99EHCdVGgN9wIhCsU0IOis3M4EP1DdK1Ufyt6uXSS+uYNN0rVO2AR96dI8L6Xpop1/t24XbPCDjjuoGCQSAcThIeYjR1Z7MS37Xli/vsLWB7ufoA312bNNmYa8FwgJCsU0APjhYTsldyNxWCd33VVtt3lT7ryzyj78HugPWkf17ggcaeis3c4W11DrAq8q3nq+dmKIx2fscDN5cmE03e0c/NfWfIEKxf792dFjElkHw4eft+KB9ETl1mtiQwBsDIANApC3WgYIeI+NBZYty5VLL42k4xycC/zl9rcZPqMdkI8//aWXcuWZZyrlK1+JveHAwIGReiSqK0D+qMPUqVUxd/zYsCHHbpjgpiW7F7TuWi/3u8L1/PV02zid94Je+69/zY6Wzz3XBfXFwOrQodjlBA15LyRrM72Wprv1aqh7gZBUoJgmAD80/OD82ynhB48fNIQmFjhv7tyCqKVy9OhpG79oUXALD51jSQm2iTtld7NZsSLX5osOG3GwHhGP9wi6Z6L/2rqfq3bAYO/ebHnwwULb4SD98OFs2bkzthWF/Vqxb2uyHTDQNthCbevWctMpRvaRxfXffrvcigoC3sPSmTixyrYJ0nEOzg3SZignOtG1aysuKvcjj5yLilcs3J2D7r+/KNppu6BDnjEj39YBwuEH56xblyNjx9amJbsXkD5rVoEsWBCx9tXCczv/ZKTzXoCYPflkoW1T1Hvz5ojY+UE99uwJtgF+2HshSJthAIGdnpCOfFAvnAca4l4gJFUopnHADww/NPzgUt1OCR08Onp1BeJc/MDRGQX94aKDVEsHHVhpqUhFhf2YEGxU3q5djYwZE7k2Oid0phBFF3RU6HCQ7locAB2VjvgxkNC80kmQNisurrEDAJQ5VrmDAKFBe8At67eq0CFDVOJ1xNj7trg4+CbwAJZsz5411hoCKDfKsHlzjhW7IKTzXhgw4Hy0TVGvkpILcuJEbbl0i0JYl5gnTiRSDUWQNoMIP/poxFOE7Q9xb3z+eWrdWbx7gZD6QDGNAzrODRvq/wNDZ1BU5H3IIOgIFy3Kj7rOEGDZuPTrV1Nn/1V0Kq6L0p0zhVWaqdF7Jtts9+421j0LUDfXWosFOnFYhBMmVKU0sAIYkKV6TkMQ5F648caa6OAAZcTA0bXKdc4U1iPEzHW3ppNMtpl7LxBSXyimcUCHgg4k1twKOnx0/H5rzwVWlms9oGMrLc1Mc7uuMw0QzPoAS7E+o/76kIk2UwsUrkNtE1g+cDEmslJg5cEi9G8CH+RewD3k3j+pWtNhaKh7AcKGgYS/LukiE20W614gpL5QTBOgI3X/3Ip2LHCHuhbNb36Tazti7XDhrgJq1aCzRscNIBLqTsNcEPJKBcyhxXIV4toQpTVrGmakjTq4rs1k5b7kErghs61lH4vOnS/IwYNZVpxcgrRZWNB5opN2579dYJ3D/Y2FM35LNdbfYUCyewFu2ffeq53bxT2EDty1cHUQgTpjjhNz2qmQiXtBvw93/jxd90KQNgtLsnuBkFShmAYAo1Z06u5fRGC5wgWmc0oIZWUSnYdcsiSyKALxcLNBkNWVinTkqediIQVcq6mg82DqwlP3m//aGpK5MV3QKep5yGfOnErbiQUpt/8YXcGpoH3uu6/KChbSdQVnsjZLBjpznId8N26MrMh1r631Tzb/je8VC2cWL46sSgV4TbT4JtG9gLB8eaVd2IR4zD3iXlJXKl4REI8633ZbtXXDp0I67wWtU33u4freC8naLBkNdS8Qkgrcz5SQJKBzhlhAGAghJBYUU0IIISQkdPMSQgghIaGYEkIIISGhmBJCCCEhoZgSQgghIaGYEkIIISGhmBJCCCEhoZgSQgghIaGYOuDJMfiDfizw9BTs36hPxVFwjv/JLoQQQloXFFMPiCEeGadbgBFCCCFBaVVimsjy3LYtO+aDzJOBR8zppsepgHLEKwshhJDmRasQU+x4gW3UsEtErI2u4bpdty7nogeZ44HYeGC2PjQbO2AosGTh3nUf0K3gvGRxsIDxAHJ9KDkhhJDmS4sXU4gXtk/DjhfxdonAtl/9+9fUsS4hlk8/nWd3EMEekHjFvp4KjoVF6o8Hup2Yu/UU9mPErhdq+eIV2z9B4P37pRJCCGletGgxhSBis2ds3xRvxw+IGPaCHD68rpsW+1die6hU3bcAQolr6obRuMauXdkydmxdqxjCHmu/VEIIIc2LFi2mmAfdvTvxKlvdgHjgwNRFMxFwGWNBEwRSNz/WDbZjsWFDm+jG2IQQQpoXLVpMsZHxgQOnE85NwnocOrS6wTcJhnAWF0dcvRD1a6+tuega7lzu0aOnA2+ETQghpGnR4udME81NJvo7TElJjXX/4nhYl7NmFdRZgJQMCCdE+oMPsu3G0v5rIN/ZswsSzuUSQghpHrR4MQXu3OSaNbWuVFiMWHgU6+8wuur30kvb23lXzLn27FnrpsXfWnSV76pVudK7d/uLVvBCQNeujfz9xX8NlANiG28ulxBCSPMhq7S0tFWaRBC9xx4rkP/6r3P1WmRECCGEKK1WTAkhhJCGolW4eQkhhJB0QjElhBBCQkIxJYQQQkJCMSWEEEJCQjElhBBCQkIxJYQQQkJCMSWEEEJC0qLEFI8HnDixkLuvEEIIySgtSkyxbdqoUbV7hhJCCCGZoFmJaSLLE3F4mL37QHnE4eH2tFQJIYSkk2Yjplu25NiHyk+dWhXT8sReoHiQvZuG93iYPB5UDyEmhBBC0kGzEFPs0DJjRr5s3VouQ4ZcvF0aLM9163Jk7NiL07BH6IIFZ60QQ5AJIYSQhqbJiyk29cbm3mvXVsTd3QUbcGMjbmzIHQsIMIQYggxhJoQQQhqSJi2msDiTWZPYZHvFilyZMKEq0AbbEGbOoRJCCGlImrSYYs5z1apyGT/+XNx5z48/zpbSUpG+fePvSarzrXD3Ij+u9iWEENKQNIs500Tznsn+DoPjE823EkIIIWFpFmIKdN5z8eLcqJsWr3v2ZMvgwbHnSpEOF3Ci+VZCCCEkLFmlpaXN1ueJxUQHD2bLzJlnvRhCCCEk8zRrMSWEEEKaAs3GzUsIIYQ0VSimhBBCSEgopoQQQkhIKKaEEEJISCimhBBCSEgopoQQQkhIKKaEEEJISDIipm+88YYNhBBCSEskI2I6bNgwee2112Tnzp1eDCGEENJyyIiYFhcXy8yZM2XFihVSii1eCCGEkBZExuZMe/XqJb1795Z33nnHi6kFAvvII4/ICy+84MUQQgghzYeMLkAaMmSIbNu2Tc6e5YPpCSGEtBwyKqYdO3aUsrIyqays9GIiwA384x//WKZMmeLFEEIIIc2HjIsp+OKLL+wrIYQQ0hLIqJiqiKqoEkIIIS2BjItpu3btpKCgwIuJoAuQ5s2bx/lUQgghzY6MiumWLVtk8ODBkp+f78VEgLhefvnl8re//U2OHDnixRJCCCHNg4yJ6aFDh+TAgQP2AQ5+IK5du3aVa665Rrp37+7FEkIIIc2DjIgp3Ljz58+XCRMm2JW7Lngq0ogRI+TYsWPy2GOPXWS1EkIIIU2dLCN0F7z3aUOfy3vHHXfYV0IIIaQlkRExJYQQQloyGV2ARAghhLREKKaEEEJISCimhBBCSEgopoQQQkhIKKaEEEJISAKJKf7agv+C8nF/hBBCyMWk9NcYbN595ZVX8v+ihBBCiENKbl5s7v3RRx95nwghhBACOGdKCCGEhIRiSgghhIQkJTHFpt7Y+QUPrieEEEJIhJSfzYut1GbPni233nqrTJkyxYslhBBCWi8piSm2S3vttde4VRohhBDikPKcKTbxppASQgghtXABEiGEEBISiikhhBASkpTEdMuWLfYJSIQQQgipJZCY6rN5sQBp2LBhXiwhhBBCQMp/jSGEEEJIXThnSgghhISEYkoIIYSEhGJKCCGEhIRiSgghhISEYkoIIYSEhGJKCCGEhIRiSgghhISEYkoIIYSEhGJKCCGEhIRiSgghhISEYkoIIYSEhGJKCCGEhIRiSgghhISEYkoIIYSEQuT/Ays+ZemLXZFoAAAAAElFTkSuQmCC;" vertex="1" parent="wzgoTrztu6sZJbIXpPw0-6">
          <mxGeometry x="40" y="790" width="514.31" height="250" as="geometry" />
        </mxCell>
        <mxCell id="wzgoTrztu6sZJbIXpPw0-9" value="&lt;font style=&quot;font-size: 24px;&quot;&gt;Home&lt;/font&gt;" style="verticalAlign=top;align=left;spacingTop=8;spacingLeft=2;spacingRight=12;shape=cube;size=10;direction=south;fontStyle=4;html=1;rounded=0;shadow=0;comic=0;labelBackgroundColor=none;strokeWidth=1;fontFamily=Verdana;fontSize=12" vertex="1" parent="wzgoTrztu6sZJbIXpPw0-6">
          <mxGeometry x="130" y="90" width="330" height="220" as="geometry" />
        </mxCell>
        <mxCell id="wzgoTrztu6sZJbIXpPw0-10" value="" style="endArrow=classic;html=1;rounded=0;entryX=0.067;entryY=0.35;entryDx=0;entryDy=0;entryPerimeter=0;" edge="1" parent="1" source="wzgoTrztu6sZJbIXpPw0-1" target="wzgoTrztu6sZJbIXpPw0-4">
          <mxGeometry width="50" height="50" relative="1" as="geometry">
            <mxPoint x="250" y="160" as="sourcePoint" />
            <mxPoint x="300" y="110" as="targetPoint" />
          </mxGeometry>
        </mxCell>
        <mxCell id="wzgoTrztu6sZJbIXpPw0-11" value="" style="endArrow=classic;html=1;rounded=0;exitX=0.669;exitY=0;exitDx=0;exitDy=0;exitPerimeter=0;" edge="1" parent="1" source="wzgoTrztu6sZJbIXpPw0-8" target="wzgoTrztu6sZJbIXpPw0-5">
          <mxGeometry width="50" height="50" relative="1" as="geometry">
            <mxPoint x="640" y="660" as="sourcePoint" />
            <mxPoint x="690" y="610" as="targetPoint" />
          </mxGeometry>
        </mxCell>
        <mxCell id="wzgoTrztu6sZJbIXpPw0-12" value="" style="endArrow=classic;html=1;rounded=0;entryX=-0.004;entryY=0.392;entryDx=0;entryDy=0;entryPerimeter=0;" edge="1" parent="1" target="wzgoTrztu6sZJbIXpPw0-5">
          <mxGeometry width="50" height="50" relative="1" as="geometry">
            <mxPoint x="590" y="540" as="sourcePoint" />
            <mxPoint x="600" y="490" as="targetPoint" />
          </mxGeometry>
        </mxCell>
      </root>
    </mxGraphModel>
  </diagram>
  <diagram name="Kopie von Seite-2" id="VPeGvJMNoQ_uSgkMPo3b">
    <mxGraphModel dx="1434" dy="956" grid="1" gridSize="10" guides="1" tooltips="1" connect="1" arrows="1" fold="1" page="1" pageScale="1" pageWidth="827" pageHeight="1169" math="0" shadow="0">
      <root>
        <mxCell id="Vc0u8H7bBP-6HvQgigGw-0" />
        <mxCell id="Vc0u8H7bBP-6HvQgigGw-1" parent="Vc0u8H7bBP-6HvQgigGw-0" />
        <mxCell id="Vc0u8H7bBP-6HvQgigGw-3" value="&lt;div style=&quot;text-align: left;&quot;&gt;&lt;span style=&quot;background-color: initial; font-size: 24px; font-weight: 400; text-wrap: nowrap;&quot;&gt;&lt;font face=&quot;Verdana&quot;&gt;Remote App&lt;/font&gt;&lt;/span&gt;&lt;/div&gt;" style="swimlane;whiteSpace=wrap;html=1;" vertex="1" parent="Vc0u8H7bBP-6HvQgigGw-1">
          <mxGeometry x="740" y="80" width="650" height="520" as="geometry">
            <mxRectangle x="1070" y="751" width="140" height="30" as="alternateBounds" />
          </mxGeometry>
        </mxCell>
        <mxCell id="Vc0u8H7bBP-6HvQgigGw-6" value="" style="shape=image;imageAspect=0;aspect=fixed;verticalLabelPosition=bottom;verticalAlign=top;image=data:image/png,iVBORw0KGgoAAAANSUhEUgAAAf0AAAFeCAYAAACPRMbIAAAAAXNSR0IArs4c6QAAAARnQU1BAACxjwv8YQUAAAAJcEhZcwAADsMAAA7DAcdvqGQAADuWSURBVHhe7Z1xzCXXedb3n0qRoqRSVRdVTq2qFRVRo5B201opiEJrWy0uKE0wFWQRUS0QrJTaQmgRsYgcIQfb28iSsxisWuAkqF1MAo0SC8coxXIsuTJxU9aFpEDcdHHj3XW6ybomdhKrw3nut8+X93v3nJm597v3++698/vjpztz3nPe854zZ+aZc+69M0cuXbrUAQAAwPaD6AMAAEwERB8AAGAiIPoAAAATAdEHAACYCIg+AADARED0AQAAJgKiDwAAMBEGRf8dv/6OGTXbcy881117/7Xdez/93qp9ET7yuY90R24/Mvus2TcZt028/gOv7z7z+5+ZpbsfhbZzOQAAgGXQK/oSqTd88A3dF7/yxapdYr9soeoTfYnkGz/0xmY864xiv/pXr94V+sgqRX+T+wwAAJZLU/QtRK0Zt0REYlITsVWhWDZ1Nty3YrJKNrnPAABguTRFX7P4PpGSbeyyvm8gYv4885XNS9/5RiPaIjE+11GzjUF1Rt8xVt3gaMWj5lv53Be1sqJ1AxX9toQ5xxW/FuhjTJ/Jj/zZ1reqAwAAm09V9CUGfUvCi8weJTZRcOTDIiPue/K+ar6I0rOgCounbd7PIttC5VqCZ2G0r+xbMUUxjX2TRdVYuNVm+dN2bek/xxX7LObrY6jPxvYRAABsPleIvmelNaEQi4qF8kcxl/+4bxYRKZWJvloiWmMoby2emKbteAOk+PINkXz33UTV7LX2qs55brb6+qzPBgAA28kVol8TrUhLrIeQsF3/4PUzv0LbWWj7hKglnPKlePNseqyY9Qmp6sq/W3B98h+3ba/dJIzp02xXGfVFbG/Ndx+tPot2r0QsckwBAGCz2CP6NZGLDIlIHyojYdOnBK0mMn3+W8I5FPMQfTcx8plXAWKM2V67CRDy3yeqsg3dKKiO+DXDGFp9lnHc89xQAADA5rFH9GviY1qCNhaV1+zeQtQSds9uJXK/+cxvVm2xzFjBUttqKwAtv0JpceXB+65L6VFUZc83IEP9luO/87E7Z2kxLgu+fwuQy+Z009e2yFCMAACwHeyKfhawjESpb7Y6BpVvCZSwqEqccywWJi/fR5G3KNomsoC1RD/aTPSt/NEWy+c+URx5paJ2I5CRn+w/tldt081A9u08rT5t9Vns52wDAIDtZSb6Fs2aIAql94k1tKndCCyCRDnfCAEAAMzDFT/kg+WilYC4GjAWlfFNmGfmrZsyAACAMSD6KyAuqy86O/fqC8vvAACwLBB9AACAiYDoAwAATAREHwAAYCIg+gAAABMB0QcAAJgIiD4AAMBEQPQBAAAmAqIPAAAwERB9AACAiYDoAwAATAREHwAAYCIg+gAAABMB0QcAAJgIiD4AAMBEQPQBAAAmAqIPAAAwERB9AACAiYDoAwAATAREHwAAYCIg+gAAABMB0QcAAJgIiD4AAMBEQPQBAAAmAqIPAAAwERB9AACAiTBJ0b/ttle6X/u1b1RtLf7gD17srrvu1e7IkW7GvOVrRJ9vetOr3dNPv1TNtwzOnDnT3XPPPd3Zs2er9hZPPPFEd/vtt8+44447Zn5s+8QnPjFLV55YZhNw7OLuu+/e0y/LaNfp06e7kydPVm1KP3r0aNMOALAqNkb0JYjvfOe3ZkJZs8/DIqKvMqJm2y9qk9pWE/1FYq2xiOgrrwSxJX6rFP0+Ud4v6gv5jDcwkf226/HHH++OHTtWjbnPBgCwahD9EZw//2L3y7/8re7RR/9f1b5f1lX0FymzDB588ME9Qq/Pj33sY1fkWxSJ+alTp8pxPV+17wfFKlGXuNfsfSsAAACrZo/oW9y8hB1nthI8pVn4nFdoW+kWKJePYhWXsoXLRV/2IbuXu3M5M89yeG6XiLG5bS2/jsFtj2TfsV01Ma+JeC1f7MdIPCZDSNw8W67NmIdm0ypfS9e+0lUuL/kL+RUSb/uPs2aJrUTXNuWzbWgWLqLfWL/83n///btxy16LX7HVRH+oXSLWbeTP9iFRR/QB4DDZI/oSFIuKxSwKlLYlfhIpbUeBs3C6vATsZ37m27PP7Mv7uS6Vd54Yi/0tOtPPvrTtemKc2lc73Eal6SYgiq6wXfl/4ze+sVs2t7Mm5rFuU8tnavnHkMVTn3HWngU9CqG2s7CJKM5CZeUzi6PLWwyjb+3Lj335BqCVN5Pt2nc77MuCnX3XBDvGaVrtin1m37FPLly40J04caI5yxeIPgAcJruiL+GRYFnMhARQaRZ2IRH6wAdevkKkcl4LoNKjkDq/ylrEnTcKc/YX8zvPGGrlopDqM4pqjNtpKtua6Wfky+1QudxPNRGv5TO1/GOQGEUxy6Ive5x914Qu3xhkWuKoeqMYxrqFxDL6VD0WcpX1tu1GZRRPjNviq7S4bXuOxWmtOkSrXfITfWU/Knf8+PErykUk+BL+mg0AYNXsir4EpzarjcIrLIBZiLJIWzyVL9tEFOOa0GZq4j2GWrkopNrObRZjRb/Wb+su+hbHPOPNS9qrEH1tq55ct8WzT5Br9bktByH6Kpdn+kqzXfnf9a53XVFOSOj1i/2+VQAAgFWzR/SHRNXirCXtLIJZ2KOQizzTj2mHLfpDoqqyNdF3eiyv7U0R/SiONVYl+t6OZYzqbH2frjJ5ph/TVi368lu7UYnlmOkDwDqzK/oWXgtWDYmPhT0Lufaj6Cuv7VkcXVfe7xN9++jLUyOXU52ajbtupQ/9KLBVd06XD/mKot9Xt1G+lugrb+zXsURhszBGAZe9T9CFRK4vj9LnFX0LcxZiY3sUVJXzr/dVLtpiO112FaJf853hO30AWHf2/JDP4huXqi1Q+ozi6LwSNYmWhC2Wc7p9WwBtjzcXY0RfxDqGhDoSy3nmHIV3bOy1+OQnltPvHWLbct2uP9tMblc+JtF3HxYpzUg1c5ZYaT8KuMSvb+baEn2lx3Iizs77RF/7MTajMs6f7TkG+a7ZasI8j+gPtatmz34k6hJ+3QA4LYLoA8Bhskf094MEbJEZKcAmULuhcFq8YdENCP/TB4B1BdEHGIHEXKsKUfS1AuBVlJhXgt/3RL6+lQAAgFWC6AOMpLa8nwXf9M3olc6z9wHgMFia6AMAAMB6g+gDAABMBEQfAABgIiD6AAAAEwHRBwAAmAiIPgAAwEQ4MNH/xqlTu4+de+XWW6t59ov8/uk113R/8tRTVfth4Eez6i9a/E0LAAAOkwOf6Uv8pyj6vF0NAAAOm60S/XUE0QcAgHVhaaL/0sMPz8Q8LuNrO+erif6Lzz7bffuGG/bM0O3L+9GvsR+V0wxfaa++9a0zfy734rlz3TdvvnkWn2y1PLJFv7W4tSzferRqH4g+AACsC0sVfQlmFOJXjx69Yql9EdHPvmT71k03zQTd+Z1PfrLoK6+X/b1v37W6ayD6AACw6SxV9KMQW1yVHvMtIvr6jL49a4/iLvpEP8YRY1Be+XJdywbRBwCAdWHlop/FNAquGRJ9+Y4/0JMt+xCLiL5QudbXA/sF0QcAgHVhI2b6UZT7hHlR0Y/ItkzhR/QBAGBdWJnot8SzJfrKa2FWnviDungD0McyRF/5anHznT4AAGw6S/8hX202buGNdhGFN5ZXehT6PNMX0b9vEmr2IdHPccevESKIPgAAbDorm+kvk3gDENMs3OsMog8AAOvC2ou+Z+pR9DWD10w+3wisI4g+AACsCxsx068t72+C4AuLPs/eBwCAw2Zpog8AAADrDaIPAAAwERB9AACAiYDoAwAATAREHwAAYCIg+gAAABMB0Z8DPY3v+PHj3ZkzZ/ak6S958z6pDwAA4KBB9AsS8XvuuadXuP1/+9OnT19hU5psypNtAAAA6wKiXxgj+kPCrofu1G4IAAAA1oW1EP3z5893p06d6p544onuwQcf7G6//fbujjvu2LOMLpvSazbxiU98otceywvll8jffffde9JFLq98eVk/I5vysMwPAADrylqJvsVYaRJ/oW0JqsTZoisB174FVumPPPLIbFvIh/zJr/PXbgSM0vtm+npu/tDyvZf/ecY+AACsK2sl+hZ5IaG2cEvEfTMQ8yuP0yJRxJ03ls8Mib6W7cc8M58lfgAAWGfWbnm/ZveSf8b5XT7avBIgtN3yLYZEX2I+RvTH3hwAAAAcBhsj+n0zddlVXn60X5vp70f0mekDAMA2sBGir/S+7+Ql+v5qwL7id/66YYj7GaX3rQbs9zt9pfFaXQAAOGw2QvSFbLXle9l0M6CbAtseeuihK2buEv5YPq8cRP+1X+8fO3as90d6yt/69b7LD904AAAArJK1EP1NQMv2faLdt7TvVQBm+gAAcJgg+iOxcNeEve+GQDaW9gEAYB1A9OdAy/Q8ex8AADYVRB8AAGAiIPoAAAATAdEHAACYCIg+AADARED0AQAAJgKiDwAAMBHWTvTjk/P6Hp3bh56uF5/Ff9j4iYF+VPAq0PMAWs8CUDrPCgAAgLUSfYmjhD7+D34RDlr0h14ItGrR1+OB9Zjf2g1Snw0AAKbFWon+ssR63UR/lUjM+94L0LcCAAAA02KtRF/C2RLrvhfiiPi1gIh+9Kl92+KMW370cp5nnnlmtsqQy2bfse5cp4n+te302o1B9qF2Kl3133///bN9x1X7umNI1BF9AAAwayH6URgjFkmJbFz2txBaAGv7Ubjl30LsG4DoW0JuMZcP+bL4Ku2RRx6ZbQuVyzcF8l0T9EgtTy1ux+E483704fcB9L39D9EHAACzETN9pUexswBKJOO27dq2Hwmqti2s2W7Rj+X7RFz582t7FxF9x53LOV+tXUqX3fuKIb8LICPBl/DXbAAAMC02QvQldLWVAAliTRxrop7LRnsW8Yj9x7Jxdi72I/ox7pivZs+ir9jf9a53VUVfQq9f7PetAgAAwLTYGNFviWpNHLPo94n6kF11x5hq+fviMzmP426l1dql9Cj6ioGZPgAAjGUjRF/C5++2Y7qREFoMlUd57cfiGcUyMkb0Xda+8ky/FXdEPqLAC+3n7/S977r6RJ/v9AEAYB42QvSFxK+1xK5P7TtdefXLd/uxgMbyFuAh0fdNhMs99NBDV+TP/i3MMa5IFH9tOz3e2IwRfSFRl/DrBiCmRzuiDwAAYq1EH+ZHNxb8Tx8AAMaA6G8BEvy+J/L1rQQAAMB0QPS3hL4ZvdJ59j4AACD6AAAAEwHRBwAAmAiIPgAAwERA9AEAACYCog8AADAREH0AAICJgOgfIhfPn+9+6+abuydvu6174ctf7j513XXdMw88UM170Hzp0Ue7j7/lLd1zTz89i0mxKcZaXgAA2AwQ/UNkHURfdVvcYzqiDwCwfSD6h4xEV6LqGwCJbS3fsvFNxufvvbf7ZPnMoq/9R2+6aZZPMSk2xRjzAADAZrEVov+NU6dmvHLrrV135MiMlx5+eNf+4rlz3beKgNmmbaWJbxYxe/muu2bpKm8fsbx8u+yrb31r9+Kzz+7ahJ9/v+wn3vlG4KNXXTUjCq/E2DcJmpFnu9J9Q+HycRXhc3feORN2URN9AADYPrZG9CXI+vS+hX22/+EPd3/y1FOzbd8AKI+3xUuPPdb96TXXzNKFxF/5Jf5R6LNvsSrR/8Lp07ti7BsAC7dn6l52z3aJvoRewq/9lrgj+gAA02FrRN8iLSTw377hhitm5Mb5LfoS9lgm+tPnnlWDYlc+30QcJBJ0i7iEXsvvUayjPS/J+6ZA6c4vEH0AgOkwCdHXvmbxXqIXY0Tf9lhOyNdBiL6E2Ev3Zkj0LfQt0fdKgEH0AQCmw9aLvtDyvPLk/GNFP870Dwov30eRZqYPAAD7YTKib+GWTTP1MaJv37Uf70VW8Z2+Rd8iLVHWrL8l+rY7fxZ93RD4+3/tm/2Ivl/Zq3f21+wAALBeTGJ5X3YvzUvAX3nf+0aLfi4vVEZlbV/VD/kk1F7Wl2DrF/dR9JUWl/7jLF7b0ZYFP/o2/l++8wwhsZfo613+NTsAAKwXWyH6UyTP9DN5pr8Kzpw50914443M9AEANgREf0M5TNG/cOFCd+LECZb2AQA2DER/Q1mHmT4AAGwWiD4AAMBEQPQBAAAmAqIPAAAwERB9AACAiYDoAwAATAREHwAAYCJslej7kbt+cp6epJdt+Wl6scxBvUhnHfAT/fRkPv3tLz7CFw4XHZN5n44YH7Ospzbyd00AqLFVoq9H58bH50Zaoh/tegwvol/Pf5BIrCRai8QjwcuPF1Yba3lrqC/0/AP1T81+ECD6ALAqtkb043P0a/Yhpib6UVglFH0P+jlo9iv684h8Zh1EfxHUVxZ6td/vaAAAiGyP6F+eyddEP74wp28loCX6+YU9yjsrU240vlkutKrTXxFE+yzP5bhy/UrXTYpe/qP0l++6a7Yfv2LwjUwuG/Hz75f50psoup4555mnbJ5JR5vEUmX1ciDZPn/vvbP9nEezUpe3WMlWm6mLKOTadrpnt7b1ib5jU+yKR+Vdd47JxLgtrH/4xBO75S2uqjO2o5XWIrYp1yt8TGzP7QYAGMPGi74EUkJpYTRZfEV+e15EeWuib0G3L/nwVwQWZQu19+NvCV6+++7dsvqUL/n0tuLRvmLWp/ZdXtuOt+ZbrFL0JS4WUImbBU5iFF/HKzG0CFk8ldc3Bvq0GNu3/XrfvmOayjnNxLq0n4XV9cQyxrHlWGM9alNrpu/2uHzsh9wnuZ3zkH0J+Yl9BACwCJOY6ZtFRN+iXMtnIY72vjqEbMoT/ai8bySifZZWPl025os+l01NiCV4FlcJUBSzKNISQ39VEMtYjJUWRVsobxTa6M95jPzE9Fif7Z4NG+fPeZ0/tiXHEpGfOAPPcUZffX6GUNma6Od+AwCYF0T/MlGEd9Mui3peRcgz+z7Rly2XHyP6Sq+tYByk6NdEV9SE1eIahVX7NdF3mv1lgWzV7/RcbxTiLOKRGJvT5hX9HHvLLp+tOIZQDFn0Rez3RX0DwLRB9C/TJ/otn0Oib+GOdov6GNGXXflc9qBoia4ZK6xRBKPo5xlrTmvVPxSXOEzRt3995//ZW265QrTHonI10TeqR/2F8APAvCD6l6mJvlAZ+a2J7xjRf/Xo0V2fyjd2pm/frXjNqn/IV7MrPf/QzERhjSJpcc2C5bqygCm/iGlC+fqWufcr+o6v1vYh0RfyJcHWDxlrdtWnmXqrb8WQ6Lf6rI8LFy50J06cmI0VjZlaHgDYfrZe9C2eeZncYmohjnj53j4kwtFugR4SfaHtWE6/9h8j+ipbi902cxiiL2TzUrOwEEdhjSIZxdXC6rI1cc95osBp2+kiCrFFNRLrHRJ9EdsWb25ie2L+iPKqTKvvFhF9Hw/HJGp9NoTGyNFyE/r4449X7QCw/WyN6AOsAxJq3VjoBqNmH8MyfNSQ2DPTB5g2iD7AkvCMPK8czItm8UMrCvNw9uzZ7tixYwg+ACD6APslLr8vsuyel+/7frMAALAfEH0AAICJgOgDAABMBEQfAABgIiD6AAAAEwHRBwAAmAiIPgAAwERA9CfAyZMnZ09i02fNDgAA0wDR33L0FDY9mEUPaKnZAQBgOiD6W46et84MHwAAxNaIfnwpTnwrnl5ooxfoxBfV6KU2zqOX3fglN62X2sSX5uSX8eSX4uQ38vlFQLZn37FekV8Y5EeoLirciD4AAJitEH0JZRRbCanfWme7xTrn1b7EVsKufeWJr8PNvrSf63LZjG8IlGe2f/kGwMKuOobemY/oAwDAstgK0ZfoWkiFRDS/G1/Cq9faSoRjXm1HUbdQKz2LdLZrP98ERFS/6rRvEW8SZNfNSPS/bCT4y3ztLgAAbC4bL/oW4bhELlrL8HlW3hJ9iXPt5sH2KNTy6Xo9qxfKE2MyMYaYJ8axX3h3OgAAZLZG9IdmyxLal++6a1fQnd4SfaVXZ/qVtGyz/+x7CMU4T/4xMNMHAACzFcv7EtnWEruQ+NquWXv8zj4Lc/aVhVj2ljArTTaLfr4JGKLmm+/0AQBgWWyF6AsJZlxCt3hK1LUfZ+YS8vjDvliudvOg/DW7RT6WV95Y1sIf8ziWHHOtbkQfAACWxdaI/qLkmf62gegDAIBB9Ldc9PVDvhMnTnQXLlyo2gEAYDog+lsu+kIzfZ69DwAAkxd9AACAqYDoAwAATAREHwAAYCIg+gAAABMB0QcAAJgIiD4AAMBEQPQrfOb3P9Nd/atXzz5r9o987iPdGz74hu6LX/li1T4P7/30e7t3/Po7qjajOF7/gdfP8tbsh4FieuOH3riUPlgmz73wXHft/dfOjlHNDrBM+s5NnRs6R1rXkRZjxvCivjeZMddKGAbRT/iEawmsTjYJ/lhRkZ8jtx+5At80aBAPifk6ir7ar35Sf9Xsq6ZV/0FcDH08fCwP8kI0ZrzMi8d8HJ/ztkl90ncTuIq414G+c3OoT1qMGcOL+h7DmJuOVdFX97aOoYMG0U8MiZkG3SIX+dqJfJgn135ZtB+WRav+VV4MhY6VRDEeszsfu7P3Ar0sVjVeFHtc2dKnhGyeepS3dd5s8jjfDxqjfdeSFmPG8KK+xzDmpmNVtOqe6hhaBYh+YGiwjzkZW2iw5q8EXJ9EwzPHeCKrjGdeOsldLiLhc56+fBmVU72KSWhb5aOQylf0HeNXvnd//N2zNNkUf+w3n6QumwU6+872FsoXyxm32+Lznk++5wqbif2a4+5D+YbEMLYr+q5dtJTX7fbYkj2PBfW5+zmSY499E8eRPq9/8PpZXueJZd1nzu9xaXuMUzhW5YvtjSj/2LhbfeY4FJ/9xDE4BpW17+jfPqMvxRzbWYtfsWa/TstkfxGPh+jbeX084hhWWizf51vI5rLx2PahflH/uJyJ/ZTjHuvb5OPhdg3VLfqulTUfsc+0rT6Jefr6L9M3FuRH27HPXbfj1r7Lx/4UOe5sXzaIfsAHr2bzYI8DaR48KGKaD3Ye2EpXfRrgLls7uVrpQ7gtqtuDUag++1Os0bfyeV9xKn8c3LHvbM/7zus6la79eXH89hdRnYrLfR3jtj3WPU8fDuXNfRbzqz4f25hfebStOOMJX8uvbaXlfpN/1eM2e9++7Uuzeacpr/Mrzdu2xXZo3+VE7tNankgrbpHrkg/vq5zGqNC221U77jXkKx7rGIe24+qGfbsNrtt1xbq1PXRu9sWq+hVX7K/Yf/rMYzi2o8+3bS7r/VjXEPJba1OOe17fyhfbkdvltFrdPh7OL+L5oXIeJ96PvlW3jnfr+PfhuuVT+2639r0tv+4HfboNrsex5j5TLIrTvg8CRP8yeZBk4oGs2YeoXRS1HwdqHsgxn0/inL5ITHHgxQHtejxQYxxKdwwuo/zaV9nYjpjX+aO/ob4eIvszblfsE9Xl/Vq5HGuL2Gc1u3z6glJLy3Z9xpM996HseSy0jndOz77lIx4vEdutT4mMif3hdttXLityfZlW3LlPcprjtt9aLC1qMcU4hFc/nD/2d26j0mtjTj5jPpP9RYaOl/xFu3zEftqP7zHktptaW1vtz9RirqX11d06P2ptzP0gn8qjvNpXudrxrJFjimXlX/VEu+Jw3coTx7BQXsWn7VrsqwbRL/jAtTq+NjjnoeW/NphUjwemcFkPkozK60IdT4ghYnviAPVgzCdMjl+fGqha3m+JRBQRkduuOlq2IWLMMb12Aqkex6f0GJOo+akxdHLGekyMM/ep+j5edHL5Wht9fLwf03O7Yr7auDK1dsmfY8lxKh7FNda/aMWd2yxiu3MfDNUTUVm1K+bNcWjf7danY6n1SY5F1PrCtGId6r8xdff1g9rQNxaGcHyx/r703Kctav2X29GqQ6geHx8Ry2pb17/Y5qFjP5ah4yG74lAMNXut3TmWGH9s46pA9As6AH2dveiAMTqo+a6yNsBrcdQGVQ35yQO9hXxplqMYVKfQtmc+OQ75jjcVtvuE0L7zjo3XKN/YO26T4zPy0XcRaZUbg9saj1dEfrNv7btv4rb3fbwcZ7TnWGvjpS89Il/Ko7zZVuv/mF9+Y1nt6+IU68t5In3xqX2xjU5zP2R7Xz2ZnFftyzMu1SOUp2/W7zbkWPvGeitW+4pxyK/zylccw7aP6Yea73lptUnpefz3tT9TG4NKi+1q+au1K5Zt9YepxT6WHJNjcd2t46X4tD22jcK+XXZVTF70awctMjSgxiAfvsA7rXbw42AxsvuirDL3PXnfHruZJ844EPWpsvKt8vqU3b5Ury6WUfRjnLlt8w5c+ezr/xoxvpie+0A+Yx/XjsM8qN2xvD5/5VO/MtvOMWk/5o19pk8Jp/PnOHN+0devyityusm+IrnPfLyVnu22xbHgPK1+7YtbabFu7duPyzkO2/vaGYkxCW3XblbcNzE+53de5anNwtQHrXMztk34piL3hz7jWFCdsU9iO4Z8y6YYx/ZRjdx2k+P2/ti6cju0n8dRq26l950fSu+bOCh93muMyTGp3jgWFEPsA+27ne4jlx3qs5zfuM6cviiTFv1WJ5vaYFuEPDBEHoitWJyugx5PGvlUmom2IRSLysf2qV7Vo/qULn/2K5tjzXF632WVJn86oWN8zq/PmJ5P/DHE+KLv3M+5j4VPIBPjHsJtddnY59mW/cZ2u/8d69ixEH3EunN/CPnv82XyOGpdiGXTp/zkPs1td92mFXdfnymPx6b9uN+830f0rTY57uhP27LFMWNiv2i7VnesI7ZL2Ld9xP6P/ZHHQrSJ7Ff0+VZeHy8zts9MbHs8Jrneef2qjS5ba5eo1a16h86PWC77V77YjnmJvrUdx0Jsk4j1DB2LscfKdcT27odJi746szUYPLCUJ9sAAGDa1G4+IvlmZV3gO30AAIA5kZjn1aPIflcYVgWiDwAAMCdDM3l/FVCzHSaIPgAAwERA9AEAACYCog8AADAREH0AAICJgOgDAABMBEQfAABgIiD6FfRXjL7HOur/l60nSh0kQ/8TPUzW9e8q68Q6H78psOr/Uc9zfFeVdxnoPK49Ka4PP7jGT5qL1wLFrSf7zetzXua5Bq3rf+pXAaKf8GBtDUidcBL81lOYMnnwm7Hl+9DJo5NfMdXsY1jVYF/kQjE1lnH8psCq+mkeUViEeeJeVd794uvXvNcr9WurbxX/QYj+PNegVY+FdQLRTwyJ4LyDQyemTlAN9Jp9PyxDsFcx2Be9UEyNVd1wbRur6qd5RGER5Hts3PO08SDHzSLXL+XtWyk9CNQ36qOx16BVj4V1AtEPDA1wpc97hz1URul9L13w4LUtfq1gwRa2zzPIXSYS69a203VnPvYkdj/e+diduy/oUH0xj3zFl3eMjVvkPom+tR0viK7HefTpfqvVnX1HX9Gf7flrHvmyLfdZ9i1i7EPk8rHuvrhVh46F8gttx7rdH/F4x3HgPLbFdvlYq93yLXvuk75j7Xr1me2xzojjHkP24bLuL/eLbDlubdsWywrFGPvY/RCPt/K3Ys3HK/vvw/0lVC6PM2GbiHGOIfdZ7pch37lvYrrLqY5oE/LrtjlfHCu5z5Qvlo/+Ra1fathv31joq1v1aj+O8xxbbFOtbw4SRD+gA1MbjMIHPQ7CMSh/6yB7kNhnrsMXnVZMHki2+4TJ+Vr0tUl+Ytzy3WpHxu3yieN2uB59xhNS+/kka5H7JPvWvi++Oa/bK3vsM7erlb9VV0b5ZFc+77d8i77xlqmVb9li3N72OFM+oQucY1Mc6hOPnXw8+saCj7WPp+tzH+mzdaydd2gMz9NPkdyOiPusFbfb5X3n936OU/nVh64r+4vYV2zTPG1U3txnPh6u17F5fx7f9qV9xT/Wt+PKKF15NeaUL8ar/ehL+WO7XFfus9rx0L77Px+PPuyrNRbG1K2VDdcnH17psK9Wnx0GiP5ldADjoMnoIOWBOgaVyyeBB4sGggeDiIOlZo944EW76mrlr5Hri+n5hKmltVD74oU+nkSO230g5unb3Ce1Nsj3ez75nitOrnwCOq/rrvVfTKvFbmpxxFhzG/t81Yi+Mn1xu83aV2wWslhGnzE25YsXsL6xEH3K5vq0X2tj7AfnjbHntszbTxGVUdkYe7TFczHGrX3FoFhimZiW7bFd2led6iP1j/P05R3bxlqfqZz97ce3Yl3GGM59k5Etxi9q7Yr59BltMdZaHDnWPlRuaCy06rY9jrNoH9tnBwmiX8gHOaMD1TqB+7Df2glQO/ja9gAZGhx54AkNvlpdLWJ9MT2ebKaVt0Y+SWL/CYlEvAmKJ0wf7s9YVuQ+avV77Ti6XbLpM/vKfRrjj21UuRyX+6sWj/xYOJ3WQnlaY8G+W3HHNrutKmN7rXyMTXliO0X0E7dz2dhXJh7rGJv2h2Jx2jwoftcd/So9xh1jyXGJGJvs+Xioj2I/teK2H9U/lLeG8ubzPh4jfcb+FrGuPnKf5OMxxncuk6m1X+Q+j368net2HfrM1xDFumi7YyxDdYu+uvZzPFYFol/QQdDBqdnEPAMokgdyn82Dy3H0lRUadK2BmvO2aLVbaTl9bB+4HfGkiCdljnsexrQx9uO7P/7uPXm1rfLy4zS3S2n5Qt5Xn+txn7T6UtT6RHnH9kNfHENxi+sfvH5Wj2IU2laabDXfsS36zO3Svtud7fH4Dh1r2ePFuhbLkI+xyGeenbkNItaT87q8YlOMcds23dy0/DlNaF/psjtNsYxtY/Zrfz6u2fc8xOMu5EftUvvG+lbe3HeR2jEW8tsaC60yJveJ8inusf3QNxaG6pY9n39mv8djVUxe9HUw4wmcyQNqHvp858Gigae7QJ90HjBxMEbyCTrUjhryUWtbTtd+PCH7UJ54kuR2Kr3votDHUJ/Y7n5RnbGPcp/FdmXf2VfGdrdLn60+yr71qWOtNNly/kwu32fzvuNWurf1qTgVo/LoU/sxDu37Qu/y0a793GfuA9td39CxjnmF8uUx3Nev8xB9D8WtPHHMel95si/bdDyzP/eb8E2W67Yvfc4zFmKc3o9lZYv2eYi+FKvGQRwLY3yrD/raIl8eE+q7+568b5ae2yV7Pl7KY3skjpHW8Whh3/nYOZahumOcNfvYPovX/lUzadGvHfCIDqQOqAf9vPhgRuKB1UByugdaHFyqVyed83hgy5bzqq6+k61GPEGE+8H94vR5/Gaf0a+J7RaxXUPkPhHy7/QYq2NxP6nPYrncruw79m+tXdEu+vzHseBjp89Yvo++sdAXt+tSXo/lOFZkc7nsVyiP8tqe+zefH67P+33+c94Yl9Ny/TF/H7G/hfrHcY6JO5fXvm0xJvmVLfvTdjwmsXz07Xr1aXsfuT9zf6ltQ+O0RSyrT7fLx2uM76G2xL6bZyzk/hTu0zHHo4XqHxoLfXXnODNj+kw+lD52DOyXSYu+Orl1wDyQDupAwGrx8fTJCjvkCxzAfmA8rT98pw+ToHZHP3W4EYJlonNr0a/u4OBA9GES6EIUlyqBGyFYDl6eFtxArj+IPgAAwERA9AEAACYCog+w1lwsvFA4V/ijwtnCHxT+T+H3C/+z8EzhTOD3LqeJ/1FQHqGvNlTmfxX+d0E+vlR4tiCfXy78YUF1/N+CfuCqOr9SUP3iQkHxfLWg2MTXC7XYx6Dyf1xwG1WX6o0on9LPF5RPZbIfABgDog+wMF8rSBQlpJ8vfLbwSOE/FP5N4d7u0tfv6C597Z90l/74H3SXvvq3u0sXfr67dP7a7tK5H+4uPf8Dhe/rLn3ldYUjsDRKf577c6Wvf670+y+X/v+n5VjcU/j3hd8u6JjVjifA9oPowwTQTFKzxDhT1kxXM9+nC48X/nPhY4UHC6cKdxaxuK27dPE9Raz/bnfphV8sIvLTRUzeVIT6eytCAxvF89+zcwN28R+VY/2vCp8u6OatNn4AtgdEH9YYLSVrKfqpgi7Kpwv3ldnzPy8X639cZnF/vwjy3ywX7+vL7PnHy4X86voFHmAezr+tjKtj5aZP/zf/l4X/VHiyoK9O9JWIbh75igE2k8mL/sXz57vfuvnm7snbbute+PKXuk9dd133zAMPFJtmgkKioxmA0MzwCwV/Ryr0nan5wszPTnnl9/em/s7U35fG70n9PaW/I93P96PriNqotquvNKt+ovBoQRdSLYF/cOfiKgHXbPr8T+0se9cuxkvgmQeOlGN8pBzrI+VYHSnH/kh3sZJvEZbp+0uPLje2eVDsakvNBpnX7nxVc/4nys3nz+7cgF64YWcV4YUbC3+t8NcLv1DS/uplm/L9dCnzFwrX7pQ992M7q0j6WmL21c8P7tzE6uuf57+71KOvgHZ45oG3lXH2ujLOXleO1evKOHldGSffse+L6jkM28QWif5vlxngB4p4/L1yl/53Cn+rnGhv3znJzv/FQpkJnvuRcgJ9fxnc31XYOWl1UdXFVRc6Xax10V70gvfc00e6R2/a8RPT5e+jV+1gUYj2VdGKZy/qi0wt33eI7REff8tOXbW8LfqExcdEwlez7wfVue6iv8r2D7GZY3h+GMMNqtdW2Ca2R/RrA3gkPnn3e6LKR74IyHe8SOrzdz+0N8+qWOUFM15o8v4YDuuCKZ+OVfUrjlq+RViWbx23z94yX38uC8WdjwtjuM42juHqtRW2CkR/SeiipItTnC1o+5PlYhnTMjpha7ON2kUjnuCqz3aVU3lfCGTTRdp+a/7tz7Z4UY91O75YNl8glR4vzPlCFO2xzojzx/6IqJz9xTy5zySWitvtj+0ay+nTR7obbzzSnTlTt68atS+2V/iYuN3zHC+hvHFMxOMX8ywyhvMx9ZiNccW8Ptaqz/Zlj2Hhfox5HIvSYh/I50GO4ewj9tkyxvDC1K6tsFUg+ksiXyScVru4tuza9wmuNF8QY37XoTzK6/zej/nzhSzii4ptMRbXHS9Uqtd11+KObc/7tThkt+9Mre2mVnfuMwuD91v1tDhM0W8ds9ynEbezdbzkS3001A+1OpQW+zuTx5H2c//H4xjrcFwu7/2Yf9ExrH3Voz5xfdGe88a4avvLHMM5bu3nPtvvGF6Y2rUVtgpEfwm0TvB8YYnULnDRT81nvBCpvC5CujDYni9CfRdM5Y2+oz/XHS96yuu2qA5dTE28gIkYp6jFkWON1NouVH4/fbYJtOJVeu5nM+Z4eTuWi9T6TvSVdRnliek+tjWfSneccczlst5fdAzbHmOPvlTHYYzh/fbZyqldW2GrQPSXgE7QeHExOllr6SJfoEQ84YdO/lr5fBGqXaiEfceLnuiboUVyu5TPZW2PF6laHDnWSKv+/fbZulNrX0Tt8LGKfTd0vFRuqA9UNh5Tk491pFWvj+3Q8VjlGFae7CuS26UYD2IM77fPVk7t2gpbBaK/BFonf76QRHTxyLPWmDZ08i/jghl9z2NXHbIrn/Zz/nyRWtYFc799tu4o7tivLdxm91+rv8yYPmgdD/lsjWHXG8vFtKHjoXasagyLVpuE0lVefrSf/cU4xbLGsNNjuZhWK5djWSm1aytsFYj+CHwi1i5+rYuScDmhbaUpn3/5rBM52nRye99lfXHQRUAzGZ/8Yy6YypNF0iifbH1x18qJGKf2lS/6inbHkOvKPjJqS+1CN6bP9nvBXOV3+opFxzH3bS322f+mZ//T/oGd/26fe2Phz3cXz/9Eyfu20ra/NPvP98XzP1f2f6GU/cXu0gs37TywSJ8vvLPwjjJG3l7G7luKXf8Zv7GU0f/Ff37n76wXri/2ny1j6a+U4/OXu0vni8/ZX1x/qvC24vsni2/V9+PdxVL3pXNvLvl+tIxh/Z/8R0oMP1yO7Q+VtGtKnFeXOr6/7H9f2f+e7uLz313Kvbbk+aXSltcU22tK219T+uC1Je/3lDzfV+q9utT/g8XXn52178nb3lzy/1ip+ycK15Y8R4u/N5eyanvJ87zq+f7C95Z8r71iXEXU1zr+NVsefwc5hlUu+op1L2sMnzx5pDt69Ej3+ON1e5PatRW2CkR/BD4Ra6I/dEK6rJcf84VDZVs21aU6ZZOPz9/7nbqUb0j0hS4e9p/jV17bXIfirV14Irlc9hvbLNsXiojmG6PcL7kPlVf9YXtsV6vPanEPHZ8aC4m+Hs2rh6vooSt6yNBX391dunhLd+lr/6yMz5OFf134dyWW20rcV5UY9YAivRBHDy46X/rv6dJHN5W26KU3e8e2HyClckZ+sn3H596yRv4l/C6v/Conmx4mFf1lcv16gFWMU+VtUx2qy7ZYr3x8/t57d+uSD7U55v/Ow62+U7/a1fIf63YdF8//l2L7jcu+/mG5eSg3Mul4HfYYjvXHupc1hiX2En2N5Zq9Seh32E4Q/X2gkzoLL6wb3zWbVe483eyHZrPJ2dPPZk9C25kp7zw9TU9NKzNjvaDl4q1FrN9XxtXdBT2X/aOF/1jQo4D1REG9XEdPXNSTFfXSncp4nJOa2B0ENeHdXnSD9Vjh3+68V+GFd+yMi+q42Wx0w6obV2b6kEH0YTPQMvf5nywX6rfvPLJXF+3Zm9M+XPhk4b8W/ltBj/vV4471WOPKOAG4Aj0qWs/V10rJR7pLX/8XZYwd33n+vh6jq5vDc28uY1BP86yMzTXiQuHEiQWX9kW1f2CbQPSNlmdnM8FycuuFG5oBzp6d/Qs7J/5sJiiK6Gj5VrOE2Xemf+MySovP2P65gp7D7eds+3vSy8/anj0WWN+R/mhB34/q+8pS/+w7S81K/0yhzFBnz8R+TSI/NjdTad+BUYunINHWLFt9oL7Rd86zWfWv7Dx7Xxfa2RL4QwVdfPWSHc2mdUGuHG+AQ0Xvy9B7NHSDqa86tIrwpYLetaF3bvhdHcqr93UYpel9Hn4nh8r6fRzPF/wuDr0ZcjmrSACR7RV9vb989lIXzf7+e+H3CjrZdJLpZTfMBAEAYFpsj+gDAABAL4g+AADARED0AQAAJgKiDwAAMBEQfQAAgImwFaJ/5syZ7sYbb5yh7VoeAACAqbNVM/3HH3+8O3HiRHfhwoWqHQAAYMpsleifPXt2Jvr6rNkBAACmDKIPAAAwERB9AACAibBVoq/v8iX6+m6/ZgcAAJgyWyX6wsJ/7NgxZvwAAACBrVveP378OH/bAwAAqDCZ7/T9X37Z+UsfAABMkcmIPsv+AAAwdSYj+uLkyZPM9AEAYLJslei3nsin9KNHjyL4AAAwabZC9P19vYSdv+sBAADU2aqZPgAAALRB9AEAACYCog8AADAREH0AAICJgOgDAABMBEQfAABgIiD6E0APJdLfGfXpNP/NUfCuAgCAaYDoL4FXbr21+8apU1XbYaPnFvQ9erj1QCMAANg+EP0lsM6if/r06T0z/MzQo4sBAGB72ArRf+nhh7tv3XRT99Jjj3V/es01XXfkyEyIbX/x3LmZXenRpvRv3nxz9/Jdd+2mC23Lp8s7Tcj/nzz11CxdQu/0yJ66n322e/Wtb9215ZuD7CPWKyTGmqn3CXcfiD4AAJitEX0JpsRVIitRfvXo0V1xtphr2zcAEltvxxsGpQvn17bsyut916N9+1e6902sa7Z/+QbAwq74vn3DDXt8ZRB9AABYFlsj+nEGbrFVugR1JtpBWJXuNOeLAmzR13YU6ezbaS3Rl0+tJPiGQdi37Yo7+lo2EnwJf80m/Mph3lkAALD9bNXyfhRXY2GNS+hirOgrTTb7m0f0lSfXKyz6OU+rDYsgoR/7AiILf98P/gAAYPOZhOi3ltCjgLdE/4qZfiWtT/TnEXL5Wabwi6GZvkT++PHj/G0PAGACbL3oW9jj7DrbWqKvPFmIZct11dKEbxBqNwQ1an4O8zt9rRLk//cDAMDmsvWiL5Que1xil8A6vU/0hbZdTiKuPH3+Y1kLv21C9cmmemJ6zfdhir7rlp3/8QMAbD5bIfrQZj+i7+/6mekDAGwHiP6WM/TEvZbdPwRE8AEAtgdEfwJIuFvP3h/7C38AANh8EH0AAICJgOgDAABMBEQfAABgIiD6AAAAEwHRBwAAmAiIPgAAwETYetGPT92r2Q+SZcfih+fob3f5L3kXz5/vfuvmm7snb7ute+HLX+4+dd113TMPPLCn/LqiOBWv4lb8aofaU8s7L6v0vS742H/p0Uer9nkZ6jM/00H0PRMCAA4fRP8AWZXo1/5nv+6ir7ha8UxV9CXSy4jHx/6gRN8MPQgKAA4fRP8AOUjRFxbWZYvAMugT/Sh+yqO8tXyLsErf+2VdRX9snyH6AOvP1oh+fnmNhdVC+40Pf3j3xTf5xTbKWytr20yoH3ts9738e16oc9m/y0bbzN7zwh2j5VE9HW/e19sOiX4fvpD/4RNPdB9/y1u6j1511Z6LuVcHlC6yQKu8bSILTC4fRSOWM+sgvs89/XT3aDmWf/Q7v7MbexbhGL9nv7blNuc2WYxzedXrYxDJ/vvIdYt4TBSL01WX6lS68nz2lltmcSn9C2Us6jO3ewyIPsD6sxWiP+ad+RJs5du9CSg3CTN7KfPy3Xfv5pcgx5sC3xA4TT5ePXp09im7RN5Cf4Xvxv66iL4EIArPJ8u2Pi1OFnoLikVE+7/7oQ/t8RUFyvnzjUJEItRnPwwsvhbF3O7cTsUfxVF9kvvAZd2nfTc3yruI2Obj5X3XnePUvtuhPL5BUGxK102Pbn58YzAWRB9g/dka0ZeoZzEVNaGVCOcZuZGw6wbCoq5yvmGY2YM/5dW2bxCcf5ZW8sXtXNb598N+RT/O+KJQKE2zvyg+EoqWYEk8okhkkamxzqJvsRQxTm1HW253JpZVuXjDUEN5hvqtRi4Xj2W++cj2WNbxDrWrBaIPsP5szfK+hNTL50NCm0Vf2y4roshn4Y74ZiOWFc6/7qLfEhjZvBQckSg4j7ajLd5AyBbz1rDA1GyHheKX2NWE2UIZ25zbXes3t1Gfrf42fcdEdagu+403ELmcY1V6TcCjPZb1MUH0AbaXrfwhn0TcYlsT2ij62o7L+bWZfhTuiPK0vlYQmyz6LZuQMETRySIh+7aKvvom24RFOdpjG4f6VIzJUyOXi7GqLXmmH9NiWUQfYPvZStGXkM8j+lGYlT52pm/f9pWRj/z9v1YCsugf5g/5agJjUWiJstJjWYlFnPHWBDCTfcyD271In/XRJ/pCMcebnYjK+jcR2lfb40x/qE9F9jGWXE7HQ3W7/7Uf+zr2/UGI/qqOFwDMz1aIvoQ7Lq/vmbkPiL7yxV/Xv/K+942e6Qv7j/XLv+0xNte77qIvLFJeTo4ikm2fu/POK0RC23E5OtelbaXZLsGxbQx+IMwibW+hmPtEX0gUHXNul8XW6fpdRBT53G+1G4jov2ZvEctpW7H4eIkYW/R7EKIvVnG8AGB+tnKmPxX2I/qbjtrMzHG96BN9jhfAeoDobzBTFP2zZ892x44dQ0DWkJroc7wA1gtEf4Ox6Pu55/HZ+wAHhZfuRWumDwDrAaIPAAAwERB9AACAiYDoAwAATAREHwAAYCIg+gAAABMB0QcAAJgIayP6+rtZ39/O9LcgUbMBAADAMGs10+972Iwf8jGlB9EAAAAsk7Vb3u+b0euJXsePH5/dANTsAAAA0GajRF9o+Z9lfgAAgPnZONGvPd8bAAAAhlk70R8SdZb4AQAAFmPtRF9I+PVL/tqMX2Iv0eeNXQAAAPOxlsv7fW+LY6YPAACwGFvznb7/7sd7uwEAAOpsnOj3/Xpf6fpagP/yAwAAXMlGif7Q0r7Enpk+AABAnbUS/UWfyGcbgg8AANBmbUTfz95v/V2vbwUAAAAAhlm75X0AAABYDYg+AADARED0AQAAJgKiDwAAMBEQfQAAgImA6AMAAEyEpYq+n4jX99c7AAAAOBxWMtNvPR8fAAAADg9EHwAAYCIg+gAAABMB0QcAAJgIiD4AAMBEQPQBAAAmAqIPAAAwEQ5U9PWue73znhsCAACAg+dARV/7Sj927Fh39uzZPTYAAABYLQe+vH/y5Elm+gAAAIfAgYm+0ng8LwAAwOGxVNHn2fsAAADry0pm+gAAALB+IPoAAAATAdEHAACYCIg+AADARED0AQAAJgKiDwAAMBH2iL7/ctf6u50eo/v+97+fv+IBAABsINWZvp6apxuAlk3UbAAAALC+VEVfT89rCbtm+VoJUJ6aHQAAANaTuUVf1B6za7RCoDfp6auAbAMAAIDDYyHR1xvyjh8/XhV2RB8AAGA9qYq+BFui3nr9LUv8AAAAm0dV9IWEXzP21oxf6a0f+wEAAMD60Vze73tLHjN9AACAzWMl3+nrv/7cEAAAAKwXC4l+30qAbBL9vvIAAABw8Mwt+kNL+/4tQMsOAAAAh0NV9Pt+pCdb7YbANwMs7QMAAKwne0Tf38cfO3as+nc9zeJ59j4AAMBmUp3pAwAAwPaB6AMAAEwERB8AAGAiIPoAAAATAdEHAACYCIg+AADAJLjU/X96DWtrnqulZQAAAABJRU5ErkJggg==;" vertex="1" parent="Vc0u8H7bBP-6HvQgigGw-3">
          <mxGeometry x="70" y="90" width="552.63" height="380" as="geometry" />
        </mxCell>
        <mxCell id="Vc0u8H7bBP-6HvQgigGw-7" value="&lt;font style=&quot;font-size: 24px; font-weight: normal;&quot;&gt;Host&lt;/font&gt;" style="swimlane;whiteSpace=wrap;html=1;" vertex="1" parent="Vc0u8H7bBP-6HvQgigGw-1">
          <mxGeometry x="30" y="80" width="640" height="790" as="geometry" />
        </mxCell>
        <mxCell id="Vc0u8H7bBP-6HvQgigGw-8" value="" style="shape=image;imageAspect=0;aspect=fixed;verticalLabelPosition=bottom;verticalAlign=top;image=data:image/png,iVBORw0KGgoAAAANSUhEUgAAAgwAAAFsCAYAAACgmuHIAAAAAXNSR0IArs4c6QAAAARnQU1BAACxjwv8YQUAAAAJcEhZcwAADsMAAA7DAcdvqGQAAD4TSURBVHhe7d19rGXXedfx+aeSJatBqppWyMGqioqwiFS342IVUArFtkoNCFJcqc0ApQYqBgUb/hhojIIjcLA9rSzqIalVq3KS0o7SRuTNkLgkWBMLg2un7RiRpBAnGZxk5jqZ5DrGdhwrm/U7d353nnlm7b32Ofece8/L94+P7tl7ve59zt3Pc9Z5O7S9vd0BAAAMIWEAAABNJAwAAKCJhAEAADSRMAAAgCYSBgAA0ETCAAAAmqZKGN74m2+cqJU9+9yz3fUPXN+95aNvqZbP4t1Pvrs7dOehyd9a+Srzsclr3v6a7mOf+dhkv8+j6HZuBwDAQRidMCjAve6XX9d9+kufrpYrUZh3kBtKGBRgr7n/mt75LDPN/apfumo3SYgWmTCs8jkDABysUQmDg1jfM30FIAWiWgBcFM1lVZ+FD63ULNIqnzMAwMEalTBo9WAowKls7EsRTj5i/fyMW2Vers9JSiyL4vw8Rq1sDI0Z+45zVXKklZZa36rnc1FrK33JV+y3L6jnecWXMoaMOWfqR/25bGg1CQCweZoJgwLJ0DL2LM9aFahisFIfDlDyjsffUa0XaX8OxuLA6zJv5wDdR+36gqWDqvvKfWtOMRDHc5MDsjno65jVn27XXq7I84rnLNYb0jpnY88RAGDzDCYMfjZcCzIya6BR/ZgIqP+4bbMEOLWJffUF4JpW3dp84j7djsmT5peTKfU9lIDVymvHqzGnSdSGztlQGQAAMpgw1AJe1BfoWxQUb3zoxkm/ots5SA8Fsb6gq7403/wsfmwgHArCGiu/T8Pjqf942+W1BGPMOc3laqNzEY+31veQvnMWy70CMst9CgBYb70JQy1ARq0ANERtFBT1V8GwFqCG+u8Luq05twwlQOozrz7EOebyWgIh6n8oIKuslWRojPjSyBh95yzzvKdJRgAA6683YagFLusLhmOpvVYVHMT6kgI/q1aAfP/T76+WxTZjg52Orbby0NevaF9c8fC2x9L+GJBVnpOX1nnL87/70bsn++K8nCz4vQ+5bd5vQ8cWteYIANhM1YQhB79MAW3oWfIYat8X3MQBWYE9z8VBzS85xATBAdVlkoNfX8IQyyz2rfqxLLbP50TzyCsktSQiUz+5/3i8OjYlErlv1+k7p33nLJ7nXAYAgF2WMDjg1oKpaP9QoEe/WhIxCwX0nEQBALBIg296xHxpBSKuQoylNk7gvCLQl9ABALAIJAwLFl8KmHVVwKs+vGQAADgoJAwAAKCJhAEAADSRMAAAgCYSBgAA0ETCAAAAmkgYAABAEwkDAABoImEAAABNJAwAAKCJhAEAADSRMAAAgCYSBgAA0ETCAAAAmkgYAABAEwkDAABoImEAAABNJAwAAKCJhAEAADSRMAAAgCYSBgAA0ETCAAAAmkgYAABAEwkDAABoImEAAABNJAwAAKBp4xOGO+54ufu1X3uxWtbnc597vrvhhle7Q4e6iWnb18Q+X//6V7unnnqhWm8eTp8+3d13333dmTNnquV9Hnvsse7OO++cuOuuuyb9uOwDH/jAZL/qxDarwHOXe++995LzMo/jOnnyZHf8+PFqmfYfPny4txwAlsVKJgwKpj/1U69MgmytfBqzJAxqI7WyvdIx6dhqCcMsc62ZJWFQXQXTvsC5yIRhKKDvlc6F+ozJT7TX4zp16lR35MiR6pyHygBg2ZAwTBmEz517vvv5n3+le+SR/1ct36tlTRhmaTMPDz300CVJgv7+zu/8zmX1ZqVE4MSJE+V+PVct3wvNVQmBEoNa+dDKAwAsm96EwYHRy+7xGbWCpfY5aLqu6Lb2O7i5fQx0cfld3C725T5U7iX63M6mWcLPxyVxbj62vn49Bx97lPuOx1VLBGoJQK1ePI9RvE9aFBj9LL32TL31LF7ta/u1rf1ql1+mEPUrCvzuPz5bV6BWwHaZ6rms9exfYr9xfPX7wAMP7M5b5bX5a261hKF1XBLHNvXn8lZCQMIAYJX0JgwKRg5IDoQxuOm2AqcCnG7H4Oig6/YKfj/+49+a/M19eTuPpfauE+fi/mZdYch96bbHifPUto7Dx6h9SiBiwBaXq/5v/daLu23zcdYSgTi21epZrf4YOfDqb1wtyMlADKK6nYOixMAuaqs+c2B1ewfS2Le21Y/7cvLQVzfL5dr2cbgvB/vcdy3Yx3la33HFc+a+4znZ2trqjh071ru6ICQMAFZJNWFQ0FKwcyAUBU/tc1IgCmBvf/tLlwW4XNfBU/tjEHZ9tXUC4LoxqOf+Yn3XGaPWLgZh/Y0BOc7b+9S2b4UhU18+DrXL56mWANTqWa3+GApkMRDmhEHl8Vl/LUjmpCLrC6waNwbSOLYo0MY+NY6TALX1bZeb2mg+cd4O3NoXb7s8z8X7+saQvuNSP7Gv3I/aHT169LJ2kZIFJQ21MgBYNtWEQcGq9mw6Bm1x8MxBLAd4B17Vy2USA3ktSGe1wD9GrV0Mwrqdj1nGJgy187bsCYMDa36mnZfhF5Ew6LbGyWM78A4F89p4Ppb9SBjULq8waJ/LVf9Nb3rTZe1ESYI+GTG0+gAAy6Y3YWgFZAd2LcPnAJqTgpgESF5hiPsOOmFoBWS1rSUM3h/b6/aqJAwxsNYsKmHw7djGNGbf+wfUJq8wxH2LThjUby3Jie1YYQCwTqoJg4O2g12NApeTgpwEaDsmDKrr8hxYPVbeHkoY3MdQnZrcTmNqFcBja3/rDZR9Y+f96kN9xYRhaGxTvb6EQXXjeR0rBkUH1Rj8VT6UDIgC5FAd7Z82YXBQz0HcXB6Dsdr5UxJqF8vicbrtIhKGWt8Z72EAsG563/TowB2X1x3c9DcGVtdVQFTAU1CM7bzffTt4ujwmJmMSBoljtIJ8FNv5GXsM2mPnXpuf+ont9P6OeGx5bI+fyywfV75PYt9DHOD0TFjP2BXotB2DvwLn0DPmvoRB+2M7iasCQwmDtuPcTG1cP5fnOajvWlktqE+TMLSOq1ae+1FCoKRByYP3RSQMAFZJb8KwFwp+szwTBlZBLRnxvpjsKHnhexgArAsSBmBKSgS0mhETBq08ePUm1lWyMPRNj0MrEACwTEgYgBnUXpLIyYINrSRoP78lAWAVLCRhAAAA64WEAQAANJEwAACAJhIGAADQRMIAAACaSBgAAEDTgSQML544sft1hi/ffnu1zl6p329ffXX3jSeeqJYfBH9dsD5Gx0fpAACr5EBXGJQ4bGLCwK8UAgBWzdomDMuIhAEAsKoWkjC88PDDk0QgvvSg27leLWF4/plnum/ddNMlKwPuy9uxX3M/aqeVBe179brrJv253fNnz3bfvPXWyfxUVqujsthvbd56KaHv636HkDAAAFbVwhIGBdsYxF89fPiylwdmSRhyXyp75ZZbJsmA67ue+skJg+r6pQpvu+/a2DUkDACATbOwhCEGcQdm7Y/1ZkkY9Df27dWCmBjIUMIQ5xHnoLrqy2PNGwkDAGBV7WvCkANxDNbWShjUd3wzo8pyHzJLwiBq1/eSxl6RMAAAVtXKrTDEgD4U1GdNGCKVzTNpIGEAAKyqfUkY+gJvX8Kgug7qqhPffBiThyHzSBhUrzZv3sMAANg0C33TY20VwEE7lksM2rG99sckIa8wSOzfCUatvJUw5HnHlz4iEgYAwKbZlxWGeYrJQ9znoL/MSBgAAKtqpRIGrxDEhEErB1pByEnEMiJhAACsqpVbYai9JLEKyYI4YeC3JAAAq2YhCQMAAFgvJAwAAKCJhAEAADSRMAAAgCYSBgAA0ETCAAAAmkgYZqRveTx69Gh3+vTpS/bpY5PTfgMkAADLjoQhUQJw3333DQZ9f5/CyZMnLyvTPpWpTi4DAGBVkTAkYxKGVlKgL2SqJRMAAKyqpUsYzp071504caJ77LHHuoceeqi78847u7vuuuuSpX+VaX+tTD7wgQ8Mlsf2ovpKEO69995L9ktur3r5pYhMZarDSxMAgHWxtAmDA7n2KXEQ3VYwVmB3wFbw17aDs/Z/5CMfmdwW9aH+1K/r15II0/6hFQb9DkTrJQe/ZMFvRgAA1sXSJgxOEERB3kFfCYATiVhfdbwvigmA68b2WSth0EsNY34DgpclAADrZKlfkqiV+2WKzPXdPpZ5BUJ0u69vaSUMSgTGJAxjEwsAAFbBSiYMQysEKld79aPt2grDXhIGVhgAAJto5RIG7R96D4ISBr+c4b7iexyUbMTtTPuHViH2+h4G7eOnrQEAq2blEgZRWe0lB5UpkVBC4bL3vve9l60YKGmI7fOKRey/9imJI0eODL6hUfX7PiXh9q2kAwCAZbJ0CcMq0EsNQwF/6OUIrz6wwgAAWCUkDDNw0K8lBUPJhMp4OQIAsIpIGGaklxb4LQkAwKYgYQAAAE0kDAAAoImEAQAANJEwAACAJhIGAADQRMIAAACaljphiN/IOPR1zkP0rY3xtyUOmr+J0l9fvQj6voe+73rQfr4LAgAwraVNGBRYlSTE7zmYxX4nDK0fx1p0wqCvrNZXT9eSq6EyAACGLG3CMK9Av2wJwyIpERj6nYuhlQcAAIYsbcKgoNsX6Id+HEriSxkS+9FfbbssPtNXP/qhqqeffnqyupHb5r7j2HlMi/3rtvfXkorch45T+zX+Aw88MNn2vGov0bQSAhIGAMCsli5hiEE1coBVgI4vVTiIOnjWtmPQV/8O4k4eYt9KApwIqA/15cCtfR/5yEcmt0XtckKhvmvJQFSrU5u35+F55u3Yh3/fYuhXNEkYAACzWrkVBu2PgdLBUwE23na5brsfBWPddlDO5U4YYvuhBED1809nz5IweN65nevVjkv7Ve5tzSH/tkWmZEFJQ60MAIAhK5cwKEjWViAUTGuBtZYQ5LaxPCcAkfuPbeOqgOwlYYjzjvVq5Tlh0Nzf9KY3VRMGJQn6ZMTQ6gMAAENWMmHoC8i1wJoThqGEoFWuseOcavWH5me5jufdt692XNofEwbNgRUGAMCirFzCoKDp1/LjflMQdSBVHdV1Pw68MdBGYxIGt3VfeYWhb96R+ojJgWg7v4fB2x5rKGHgPQwAgEVauYRBFDj7XhbQX217v+rqEwbux8E3tnfwbiUMTkDc7r3vfe9l9XP/DupxXlFMHHTb+2NSNCZhECUEShqUPMT9sZyEAQAwi6VNGDA9JSV8DwMAYBFIGNaMkoWhb3ocWoEAAKAPCcMaGlpJ0H5+SwIAMC0SBgAA0ETCAAAAmkgYAABAEwkDAABoImEAAABNJAwAAKCJhGFJnD93rvv4rbd2j99xR/fc5z/fffiGG7qnH3ywWjdT/UduuaV79qmnquUtave+a6/t3vPa107GVX+xXPNQmWh+sWzRNLbnpLF1jnSuanUBAItDwrAkDjJhMLVXPzlhMM2nL2HQfiUUn33kkWr5rEgYAGA5kDAsEQVEBUgnD2OD70EnDKqv+X7q5MnehGJWOgdOEoYSFgDAYq1dwvDiiRMTL99+e9cdOjTxwsMP75Y/f/Zs90oJii7Tbe2Tb5bA9NI990z2q737iO3Vt9u+et113fPPPLNbJv49h3l/k6KTCL80EF86cMKggO2XFvIzcQVet1WdWnIxa8LgoH72U5+a/I3t1cbtPL4TIc3vE7fdNtnW8agsHhcAYHmsZcKgYK6/3nZSMNl+17u6bzzxxOS2kwfV8W154dFHu29fffVkvyhxUH0lDjFJyH3LohKGoWfXCrAKtA623nZgViLwobLtJMEBOgfmWRMG7VNZbWVE+5UI6K+249iuHxMY9dV3nACAg7OWCYMDvCg5+NZNN122EmCu74RBSUFsE/vT30tWK0q56jkBWSQF3FqQF+3LL0k4iOu2/vq21AK7zJIw5LFznbwd69fmodvapzLvAwAcvI1LGLSt1QO/rCBjEgaXx3aivvYjYRAFXi/rxwSglTDEdtE8EoYc4HMftYTBqx99CUNfYgQAODgblTCIXlJQnVx/bMIQVxgOioOuEwJttxIG3x4yS8Kg7aFkpJYweK6sMADA6tjIhMFBX2VaIRiTMLjv2hsdo0W9hyFyoB2bMCgI973RMZo2YagFfFEd18ttdNsJQW6vcWMiNJZ/svvUqVPVcgDA3m3cSxIq98sJCv4vv/WtoxOG3F7URm1dvoiEwYE1PoOPQbiVMIiCcmwfl/1VL5bF8trYov77EgyN5fa5bycLqlfre9pkQZQoKGE4efJktRwAsHdrlzBguSgBiMlNlFcYZnX69Onu5ptvZoUBABaIhAELtciEYWtrqzt27BgvRwDAPiBhwELtxwoDAGDxSBgAAEATCQMAAGgiYQAAAE0kDAAAoImEAQAANJEwAACAprVNGPw10P5GRn1DYy7L39IY2+znj0odNH0jo7+SWd/eqK+R5qOOy0H3yZiv9Y7Uxt+0qY+0xm/XBIBZrW3CoK9zjl/pHPUlDLFcXw1NwlCvv5/28l0NCpbxa6en/erpvq++3k8kDACWxVomDPF3IWrlLZuWMMSgrCCTf5fiIO01YZgmQciWIWGYhc6VkwQdf98XZwHANNYzYbiwglBLGOKPRw2tQPQlDPnHq1R30qYkKd8sF2mN6Zc1YvmkzoV55fG1XwmOfghL+1+6557JdnxZxElQbhv5NxXm+SNMMWD7GXt+xqsyP4OPZQq0avvk3XdPyn7/V35lsp3r6Nmw2zvQqay2QiAxCdBt7/ezapcNJQyem+au+ai9x85zsjhvB+UvPPbYbnsHZo0Zj6NvX594THlc8X3i8nzcALAIa5UwKLgqyDqoWg7ckn+FMlLdWsLgZMB9qQ+/rOGA7iDv7fjeiZfuvXe3rf6qL/Xp25qPtjVn/dW22+u251vrWxaZMCgwOfgqMDo4KpB9qASsGEgdwBx4VddJhf46kLtv9+tt9x33qZ33WRxL2zkoe5zYxjy3PNc4jo6pb4XBx+P28Tzkc5KPcxq5L1E/8RwBwH7YuBUGmyVhcECv1XMQj+VDY4jKVCf2o/ZOQmL5ZF/567axXuxz3mpBXMHSgVnBKwbCGOAVSP3yRmzjQK59MeCL6sYgHftzHVM/cX8cz+V+Fm6un+u6fjyWPJdI/cRn/nmesa+hflrUtpYw5PMGAItGwlApiwF8d9+FhCCvXuQVhaGEQWW5/ZiEQftrKyf7mTDUArbUgrIDcwzK2q4lDN7n/nJw7Rvf+/O4MYjnBCCKc/O+aROGPPe+cvXZN48WzSEnDBLP+6x9A8A0SBgqZUMJQ1+frYTBQT+WOyEYkzCoXPXcdr/0BWwbG5RjAI0JQ36mnPf1jd+alxxkwuD+9R6HT9x222UBfyy1qyUMpnF0vkgaACwaCUOlrJYwiNqo31rgHpMwvHr48G6fqjd2hcF9983XFv2mx1q59uc35VkMyjHAOjDnYOexcvBTfYn7RPWGlub3mjB4frVjbyUMor4U7PWmz1q5xtMKQd+5lVbC0HfOhmxtbXXHjh2bPFb0mKnVAYBsoxIGB968tO9A7CAe+SUH96EAHssd3FsJg+h2bKdPVYxJGNS2NneX2UEkDKIyL4+Lg3gMyjHAxsDsoOy2tcQg14nBUbe9X2IQd0CO4rithEHiscXEKB5PrB+prtr0nbtZEgbfH56T1M5Zix4jh0sCe+rUqWo5AGRrmTAAy0BBXkmJkpNa+Rjz6KNGiQIrDACmQcIALIBXAvKKxbS0etBayZjGmTNnuiNHjpAsAJgaCQMwR/Elg1leKsgvOQy9RwMA9hMJAwAAaCJhAAAATSQMAACgiYQBAAA0kTAAAIAmEgYAANBEwrBhjh8/PvmGP/2tlQMAUEPCsEH07X760h59eU+tHACAPiQMG0S/H8DKAgBgFmuZMMQfiIq/Lqkfd9KPScUfbdIPPLmOfvjJP/jU9wNP8Qek8g9T5R+Iyr9s6R/FcnnuO44r+cez/LW+swZ9EgYAwKzWLmFQkI2BWkHYv/7ocgf6XFfbCtRKCrStOvEnqXNf2s5juW3mZEJ1JtsXkgcnBRpDv1jpvmpIGAAAB2XtEgYFbAdhUQD2T0d7n4K2flpaATzW1e2YEDjIa38O8Llc2zmBiDS+xnTfEhMMlSuRif3Pm5KFef70NQBgc6xVwuAAHpf1pe+lg7wa0JcwKLDXEg+XxyCvPj2uVxNEdeKcLM4h1onz2CslCfpkhN70WCsHAKBlLROG1rN0BemX7rlnNxnw/r6EQfurKwyVfbnM/ee+WzTHaeqPwQoDAGBWa/eShAJ038sCosDtcq0WxPco5KCe+8pBXOV9QV37VOaEIScQLbW+eQ8DAOCgrF3CIAq2cdnfgVcJgbbjioCSgPgmyNiulniofq3cCUJsr7qxrZOGWMdzyXOujU3CAAA4KGuZMMwqrzCsGxIGAMCsSBiCdU8Y9KbHY8eOdVtbW9VyAAD6kDAE654wiFYY+C0JAMC0SBgAAEATCQMAAGgiYQAAAE0kDAAAoImEAQAANJEwAACAJhKGho995mPdVb901eRvrfzdT767e90vv6779Jc+XS0/CJrToTsPTbzm7a/pnfu8aLzrH7i+e/a5Z6vlOFh6bF5z/zVzfRzovtZ9/sbffGO1fBW85aNvWen5o86PTV2XauXm62SrHi4iYRjgB54uLLVyXYiVLCzTA66V4CzCoi+8Yy8AqNNjQQnDPJPaocf+IsZbBD1m+/63a3SsJMbLo+/+GJsgqz0Jw3RIGAa0LhDL+AxF89nvOU174Z3W2AsA6hYR6IaSgkWMN2+am+Y4TbBYxv/3TdZ3f6xKwrqKSBh6tILUrA9KPcj9coHElzPUp15CqJWNMXQRdJn7jhd0/b3xoRsn4+sfUOVjX8pwv3c/evdkvrV567bLJP+T53Pi8nw+bJrzonMR28bj0ji+6Ljc50796/7Vdt9xzUpjStyX77t8f+VzNiS3ze2H7g+fj3if5Ln2iW2isXP3uPrrtvmxHMviY1ha52zosTAkjhnF85L7zvNu6Tsu7Y/b/p/wsenv0DnL5ySfs/w/lh/j8bjGni/LjzPxOfOc9TeXuV08Dt323OKxRm6vujrON3/ozZeVSRwzjiHqv/V/P3Rc646EoYcfzLUy/xPmB1uL+oz/sH5ga7v2TzJW/qc3/4O7bx+P5+9t/5PopQzv01zFY/Rx3x4rnxvPzdv5OPVX29rvPjPViedtLB1L7FtzcZLneWrbx6y/Hkd1dT5UHo/LdfdC59XHb5qTx/I58ljezm1qcluJj+XW/aG6euz4vp/l3MfxxvL51dhuq7+eh8vztuu2zpn2a1v7tR0fC9pu8Xi1+yD3rTpxe8iY4+p7XLhu32O4r37sW+W1YxLVi8cR+851s/w489je1vH2Pc7yPEW3XVdyf5Hq9vWtY3nH4++Y7Fd57FM871mvZ+uOhKFCd378R8mm+ccxPdDyewviA3YeDzz1XbsI5n+2vM//BNrn8ji3IZqv/jk97/wPpj5iv3lf61zL2LlEtfOpMX2/eZ6xX9V1eb4wSO1YZqF+1G98TMT7Lh9vrBf7qYnHqO18HmrHEPfpdmwfz0ls06d23seo3R+ak7fHHFdsG89Z67HgfUP67gP17YA+tK9P67hEt/VsWfV8P0ntnKmu+4vnz+K+2lhWO958jofkurk/lcXjjvPWdpynjzPOsza/WHeob1P/8XyK+ov/93ns1nGtOxKGpPbgjKa5GER6YMYHbW0cP1hjdjyN2j9G3/HEfxaNW0s0xsjHFc9P7VzV5qM+dMwx8RiqP4bq62IYjykec21uauNjibdr7Wel/vzyj17GUSDQWOpX/ft4fT76zkuN28Y5xvu2dX/E2y6f9pjjeLXyPnlueS6aRz4nnlfrnOnv0GNhDPWhMTRWa/8052DouMzHl/fX7k/PR2X663Ng+bjVtnbNUbs8r9rx12jsWtLj9j6eWJ7nFevH27Vy75Pa2Oo3HltfPcn9xvuydVzet85IGJLagyvKD+yxcr96oOkfNf6zmx58ehBOO476H/OPoX3xQqNxZn3Q5/MR/4HUf86+4z+g98WyXD/Pdaz8j6z28ZlDbR7xWPL9Nes8Ms1HCYOSBdF8/OxRt/cyjh83PkbRMYy9P3J5rb8W1Y3nfSy10+PU90c8D615tM5ZnpPqxcfCGPnxEPfn4+2rm405v66j/n7ufT93yTHqtu8771M9ja99rf/7yOOorbbHHkNNHiceg7a1v/U4U5n+T9SXE2yXSd/8VC+ek75znOuZ+oz9qp3aq5/WcW0CEoag70Fk8cFTKx+iB7jbahxdsFoJQ36QD+lr4/2+EHg7Psh12+XTqI0Z/5F1HuNFy9t9Y9XOf+5jLNV3AHIfepbkfuI8ve36+bhq50x8P05z7tyXx9IY8dmby6fp03Jb/Y1953PpbdfXftd1ebxAjqE+fGy18j6aQzy/+bGgsnz+rXXO4px8zPGxMIb6jufG8vFqu+//umbMcblcfce6+Zxp23PJ5yT3lbnc5yQf1zR8jt2XxtT5jscRz6Xq58eZ9qmOkqTa/Tp0f7T6dj0fn8re//T7LzsHEs9xPC7X1XHV5reuSBguqD1Yor4H3lh+sOkB5gedL4ixzKZ9EA7NT/t0Eav13TruIbUx9c8V+1e/8bjiOLms70Kr/lwnXgyGxH9o9evz7f59Eav1O/b+8Hn1BWUM9+027iOeF++L48fyIfGc+r6I88vnPPab62oefox6X0s871I7bzWeq7c1r2nuk6Fz1nosjJHHj+dNc/d+1ZnmfPUdl4+ndg583HFciXUln5N4vlrnU1r9D1Ffsd94/3rbdWuPM99nfWPm+fv+GNO3xPYeQ/vy4yLOW3TbY8aVQZevOxKGC/TA6Htw+sEbH4jLpu8fA5fz/dn3jz72XKpeXuIH9kPrMbzqasF72Wzi/z8Jw5pQMrPMCc0yaV2MdBHuSx5F7fTMTc9QSNBwEFYhoM7KyVB8Zr8MdF2I19hNvOaSMKww/2PFZbVaPVxKF9mhFYS8rAksm9ZjeBXpWPwywbIlCxKvt5t6zSVhAAAATSQMAACgiYQBAAA0kTAAAIAmEgYAANBEwgAAAJrWLmE4ffp0d/PNN0/odq0OAACYztquMJw6dao7duxYt7W1VS0HAADjrW3CcObMmUnCoL+1cgAAMB4JAwAAaCJhAAAATWubMOi9C0oY9F6GWjkAABhvbRMGcdJw5MgRVhoAANiDtX5J4ujRo3y0EgCAOdjI9zD4uxpUzscuAQBo28iEgZcqAACYzkYmDHL8+HFWGAAAGGltE4a+b3rU/sOHD5MsAAAwhbVLGPz+BCUFfKQSAID5WNsVBgAAMD8kDAAAoImEAQAANJEwAACAJhIGAADQRMKwYfT9E/oEif7WygEAqCFhmLOXb7+9e/HEiWrZQdPHTPl2SwDALEgY5myZE4aTJ0+ysgAAmMnaJQwvPPxw98ott3QvPPpo9+2rr+66Q4cmQdzlz589OynX/lim/d+89dbupXvu2d0vuq0+3d77RP1/44knJvuVJHh/dMnYzzzTvXrddbtlObHIfcRxRSsDWiGYNeiTMAAAZrWWCYOCrQKzArQC+quHD+8GdicCuu3kQYHat2Oyof3i+rqtctX1tsfRtvvXfm9bHGuyfSF5cFKg+X3rppsu6SsjYQAAHJS1TBjiM38Hau1XMJ4E/BCUtd/7XC8GbycMuh0DfO7b+/oSBvWpFQwnG+K+Xa55x77mTcmCkoZaGQAAQ9b2JYkYmM1BOS77y9iEQftU5v6mSRhUJ48rThhynb5jmIWSBH5bAwCwFxuXMPQt+8fg35cwXLbCUNk3lDBMkwSon3kmDcIKAwBgVhuVMDgpiM/qc1lfwqA6OYirLI9V2ydOLmrJRE2tH97DAAA4KBuVMIj2qzy+LKDg7P1DCYPottspAVCdof5jWycNLhONpzKNE/fX+iZhAAAclLVLGNCPhAEAMCsShg2iNz0eO3as29raqpYDANCHhGHDaIWB35IAAEyLhAEAADSRMAAAgCYSBgAA0ETCAAAAmkgYAABAEwkDAABoImFo+NhnPtZd9UtXTf7Wyt/95Lu71/3y67pPf+nT1fJFestH39K98TffWC1bBB3roTsPTf7Wyg/Ss889213/wPWT+ck8zouOU32q71o5AGwSEoYBDkIKzLVyJQlKFg4qgCoo9s1tEfaSMCw6+OpczJIk+D6uHdN+J2T7adH3x0HxY/Q1b39Nb5IPYDYkDANaF9WDDChDgW4ZLfJctVaBhijpu+b+a6ptNd/9TMj207olQ/5/8H12UKt+wDojYegxFEhE+1U+7UXJz4DysyD3p3LtV3lOVmLb3H6Ij0XtdSFV23xB1W2XSQwmugB7f05QWn2rH7eNpgnEcfzaMWvsaZ8tqw+f58hzdwC6+9G7q8clruO20wRg1dW8+85tX98a3/Pyfp9jt89tddvnxnWzeH/kcxPn1ZLHFs9dY+h2POY4rsviHKcZ29Q+HjOA+SBh6OGLV63MF8VpL2bqLwYdbfvCpr50gXS5xIQlt9X+sQmL6uoZuPvz/H18DhA+HvWpsbSt2+94/B2T/Ton4n5jWwfy2rmZ9XxJvvjHc6YyB5Yoz3GI5hT7N5+DvuNyuc9hPGexnxr3pfvDc43HNdS3z7fq6n7x8Yrq57Yey9txX22u2udj9rb6U7+5bpbHFs/Lt+Mxx77jOXF9/fU5cX8tteMFMB8kDBWti+QsFzJdgPOyuS/0up0v1BrbAd4XYtVx22nmoD7Ud2yfL+T5Ajt2X+7bF+w4lurM8pKB6uscxPuhtq82r7HUVvJ+zV/BuO+4crtpjtH3Z2yv+fv+HOo73lYb9fPE557YnZv2xbbue8xc9/o4y3Vzf5pDLNf4vi99fuM81W7s2FY7BgDzQcKQ+MLVd8HRBcmBvFbeR/3FZ8ESL4b5oh4vlrqti6DGdrnqqo23h8S+vM/ta8dTOwd9F+LcdwwCfXXGyudEcl+1uY411LYW/Hye3C7fn2PnUDvn1uo7Hn++Dz/49Aerx5MfK7GPWE/zUfIXx82Puz6edxwnPhZcHucWy2vnpG+eQ9R+luQUy+5rxfniuUK/tnsuULn2q05uh3kiYUhqQSrKF9+xhvqtXWxj/Xzh1MUwrxgMyWPHi3PtAqvbvpAP7RP1G/uuXeSHjn1I7tv74nmqzX+sWpCyPE48rqF2Y6ivvkDc6ltzEs3jxodunNQT3f69z/3eZUldrb+++6N2342lNmobx9YYQ+cszkP7VR7PSb4Pxhg6tzAF1/9b/J8L2/8r+FTxR8Vni88VZ4ovFmcLtVPQzv3NQuM/WXyo+NVu++v/qtv+6j/otrd+ots++wPd9pcOzckV3faXv6fbPveGbvsrf7vb/to/L+O9s/gvhY6xNjf0IWEIahetaC8X1KELWe1iGi+Wsa3odnzWOSRfyL3tC7X7c7m384U6zkHzfP/T768GiVow0r5Zzltup23PwXU09ix9Sz52ax2Xy7XP5dOIfWVDfcd5ae66rb/aVn+5rbfH3h+6X2dNvvLY+qvHqMfJ95O240twqh/nqe18X4/Rd2yb4zPFfy3KY/fr/6YE4b9XguWPlsD5nSmQLsJ3FGUcBegvX1X8ieJ7i+/a2T8pr7U7SGVOW3+lJBLHyjn79UKJxNPFl4va+d1sJAwX+IIXg0SkC1cO6tPSBTEu9/rCpj5jopLn4m218crC2LmoT11447i+qJv6i+W1cxD78bxr50THmPvPc+g7x1k87jhurJMDzbTUPvc/5rhUlpfvxx5X7RxFfX3HeWnb84395ba1cYbuj3g+ZJqgrX7cznPyfdPqV/Viee2+7pOPxzz2+tHSu1YDHi7+XUkK/lFJCv58JRhiz8792Z2Via/fVc71fy42NRHdQcJwgS4ufRcp7VPZKl6AFEBiMrJudJ/UgiKWy9D95P+vsQnXavtq8aVCy/36n/zD4oniVPG7xYeL3y5+o3iwuLfbPv9PS9D66RK8ri9BbD9WCjBI98PX9Fh+X/HJ4itF7b5ePyQMay4+E62VrzIlQ7zBbfm1EgIls2NXzA6OAv0zxe8XjxYfKB4q7ivB460lqP/jEtTf1G0/9ze67a0bS1D5c9322dd321++ugQZgvzaO/unyv3/M932199WHhNK+GqPodVHwrDm4rLwuohL35vxrHS1tRKC/V0F0xv3Pl9oSV9vulPw19L+yeKdO6/7n7+tXPx/tgT+vzTnN+BhY1Qfe6uPhAHAitPq2e8V7y/uL8/4f7Hb/uovlGf7f6s803/DhaC/jG+4w3r6zguPy/VDwgBgyek1Yr1z/aPFr3fbX7+z2/7K3y3JgN79X7tgAweJhAHAQugd7/ryGX0uXZ8L1+fg4+fiVUdL9fpsvD43r9fR9Ya5LxRqo8/I6yNg/py8gqs+K//1Io910DTX/13ofQCPFR8p9MYxvRfgREkE3n5hdeBoSQiOdNtbN+18LK96UQaWFQkDgNEU0P9HoXe86xnxv+22z/+Tbvu5nyrPin+kXFCWbXn8iqJc5PR5+cln6P94oc/Qf1+3ffZP7ryh6+w1xeuLHyzHcHjnOM7+UPFnih8oda8u/Jl79VcbB9gEJAwAJvQs/n8W+oIXffTtnpIMvLkkA3+tBM4SWKsXEACbg4QBWBP6eJyWxrW8r8Cvd8p/onik0Efl9G55fePbvy+Od9tf+5fd9lf+TnlGrS/GuTJdGADsi8k3R37/zmrW7mqXlCR9srr1PaXesvx/kjBsnsmDb79pKXc2Tz94RffhG67onvv8Fd3jd1zRffzWK7rzF8o++8il2720DF3bv3AXz8Hjd1xZjiWek4vOFx+/9cpyPDvbzz51Zfe+a6/s3vPaK8uxX1mO/fI2F9X+sWf37FOHytiHytiHytiHytgXy3T7kVt26sQ2uNTjdxwq93W9bJWtzHF9+bt3ArBeYtJHSPU7Dlt/uWy/ofjRCy87/WChAO2XnfRylV52mtf/VPn/1zw0/lf/frf99X9drr9K2P9ToU++6OW9yvW56Yvd+XN/WK4Xt06cP/cvuu3nbi7jDc/7fPHxW3fuQ/0f6397+vuShGHzVB8Ie/eNJw513776UPfy7fXyWelB7cClB7se9Hrwq+yzj1y6XTNUx/9EqpPL5kkBVoE2Bt+ob46tdotUG1u3F50w7CUoqa0SHYv3q+9rl6lubKtjcqIk+f5QXy5Tvb5zcJD3Wc285rNUx1WelT/71N8s87mlzEcrZh8s9M2EeoNs5ZqXPH7HHeV+fO0lnn5Q3z5Zr5999pFHyuNDwdq/KLm/NO7FhCHOQUmIvhPkV7vJj1HpC7e0glgSIT/+SRjqSBj6LOCNaS+eONS9Ui4m3ywPyHknDDGY6gEeL/R9gTYaquN/ohhYFkHzHvrn1DHV5nCQF+na2LqtfSqLdedJ52KWhKH22IgrJCpzeb5g5uPy48Ll2v+hUt/l2h/7jlTmdsugdj/O4kCOS0vz+upofdx0+z8U/73Y+fGkZ596qhyXEgZ9WVXlOjdACcM0CUJ20AnDbLZ2j/v8ubeW+f/FGa57JAwb44WHH+66Q4d2vfDwxQeCAr4o2Ofy5wslAtp+9bqdMv19/pmdcq0svPzWndtq35cwnDx5qLv55kPd6dP18lk4Gfj9X7n47M8XNV0o4zNGi6sVuUzcXn07eOWySHX6gofkYJQNXdD7yrStMT2vWkIU5y3x4qDbfWVWG9vH8qlyX/rc5rGHxh0qz/vNQd58v+b7wvdVrOf563YM+KK6nnvtWGN/uh3n4fOfj83nJ47j/fH+yseU7498bNqO5XFcJzcuc995TMurI0N9W+24PK7qa8yLfesTKXpN/odK2V8o+3eewb/v2mtL2T/sts/fXvb/YveJ224r7W+d7P/UyV+b/N0JwvrI7blS96nJPrdXsNN1TAnCh2+4YXe/7fT/1O71ToHRZaofE4uhhEHJgMvd3nXznCz277axvfpUmfblRKO2r8arCnHc3C6fm3a/KtPc7rnw658/fMn9fjkSho3w/DPPdC/de+/O9pe+Yzf4O+grWVAioL/ajuVKGLR6oJcblByovC8xOIiEQRcqXyS1nYO39tUCqsSLXi7LfetimYOOqDyPGemC7D5qVJYDhGmsHMg8Z7fxdhxDZX1z0r4/uP/idu2cSW1s3VZd1/e2z1/uS9sxQNX6zIbOh6iPWsLg+0t/8znRvvgYcF3P1fVdJ87bZdqntt5W+zwHbdfua51vH3M+Z9quJRnWOmcaz2N6bnFeQ+0vLysBQR8p3frJnS+QOv/PyrP7u0p/7yxjKGDrVw3/W/F0CUR/VMbaCWAOqKqzU28nuH6oBC8HcQVNB1bdVjsHZ+3/4ic/WeZyy6S+A58Drbc9jvvvW2GIY2k7B2UH9djGPDcfR+7L+/qCsdrF9nHsfE60T2V9cxmSj0mGjms6etO0Pjp9fOdj07vK46Faf/WRMPQpCYMSgW/ddDEB8OqCLySx3AlDXJHQbe1TmffJUMKwCDkQ1C6+uU6Ug0GU2w3V7dNqM0uwUF8xKOd6EgNSS98camPX6jrA+1hzEHW5bqudAvHQ3GL9afnYczDXeJrbFx7bGV91vvjJy49FbWIioX3xPtTc3Lc4UOd63tcnHqPnHOcbDZ0ztdWYnqvsHOv3lUDyIyXw31Ta/3Q5TgVWBX8t7d9X6AulPljKPlH6vra02QnMNQ5quY73OzBKDKQKXDF4xX5iPQc5BWQnDLVgGNtoeyhhUJ9xvrFvlyuoR66fx8lta3Ui9T00Tx9vrWwatXOUx8Z4JAzJy7ffvvtyg8QVg1rCoBUGJQZ9CUNcobBNSBj6Luw1Q2NLDjqZjiMH7VqfsZ5u11ZCIgc+87PpWKc2du38Ovj1ncsYHEXlHrd2bnL9sdSvj0PzVBB2/x4zJgLx+Dx33xcaX/XVzmXajvOqHVfteFzmY7bYVnPR3LU/zvHS9t9ZeJn5rvI//Rul3e9OAn4OfkMBK1Pwq7WL5bX92tZ+B9qsFpRF9WOfDqAxMGtb+2N/eR59x+V55XHjSxYxaGd5nDivvjrRUN8S26reUN0hapfnkI9dY8U26EfCELx44kQJ8NeVAP9MuQCxwmAOBqqTy3K7obp9hoLfmP5iUPM+1c9BJe6rnYNI84nt++rXxq7V9TH6eOLx1vZFahvPsff11e9TG0dz1XHq3Gi+OYnSfo9dO6fqy+Wak7jM46md9/XNW2PmFYLeYzz3w2X/z5a5aAn8gfK/q1+b1NdNX3z3vwKSA0UrGZAxdSz2HffVgpqDU19QGhuUXS8nDHkeeV/fcbXmJWPnpu15Jwzu7wuPPTZ5H0fsdxq1cxSp39bqES4iYQiUMLxSHqTPny0XnpIwKKgPrTDothOCnDB49cHvd4iGEoZFvunRAacW0GrBIsrBwHLfusDnoCJqW9uv8XLAjXL/NbU+dFvjOeA4eMUApDn19a16sUx157HCoNv5HOkYP3zDd5VtfRXz60tAvH7nc+n63PjWT5b6P1HmcmO56Omz8j82+QjY0w/+aNn3I2XfD5c2+qy8vqL5Txf6vPz3l7GvLvO9qtTT1zV/d/HHyrHoeywuvR81to/L58jHnc9ZrKttl7s/levZv/56++JxXlHafVc5L99btq8u87ymHMcbyjH+9cn7AJ596s0XXre+p/wvvrO0fc/k2d9OUHm8OF1cDHq6wOfXzKMYKBwcFaRqdUX9qL8xgSMHob6gLB67r1/tj8/qc5nHqSUMOdjVjmHouNTf0Dnca8Kg2/G9CFErYRCVq/2Td999WZnPa9+5M/UR55kNnZ8+W1tb3bFjx8p1+uZyndbjsl5vHZEwBFpZ0AqDX47QpxryCkN8uSKuHjhhiOUxWXACEcslJw4HlTCIAoOXgnNw123tc3kMIt5Xa2cKKrUy9RMDWBYDbRbnWxs/z7k2jvbF9g52ue2Td196zobGlt26+rKbrZ8o4/xCafO28jj71eI/ltsX3x2eL3qxTGoXdV8wXScHQ/WnfvNF2RdIt8tj53532uvrsLeKs5fNbWdc//DVVycXXpfleattnmekMrfVHPTM0vOP/cq05ywfl7hvi2PE/lt9Dx2Xxx0KSPnY3L/2q636UP8aR/tjYPb97Lb5mHL/rfPm8VQW7w9z/3Fu2s7zsth/PG8+nlg387HVzp3Paz6eTGPkeWoetWOaxsmTJ7vDhw93p06dqpavKxKGPpXvYcgrDFFeYdgUORmZxiWBtVKu/SpXvVr5UtCb5r7yMztfALN9f6FfX9QvMeqrpyuPqw3VF1BW3boe1zLQOdW5dZIxCyUDfcncXihRYIUBF5EwjLKXhOFgXVme/eslAH087se67ef+6k7g19fTnr+tJABvmXxUbufd8loVeHfx24V+kvkPip0vxgEwf15BmOXZv3k1YS99ZGfOnOmOHDmykcmCkDBMQe9x0KcoamV634Pe/6AvfqqVr6u8NAkAs3KioJcKZlkZ8MsYfrlhEasLm4yEAQAANJEwAACAJhIGAADQRMIAAACaSBgAAEATCQMAAGhau4RBn43VZ2Q39XOyAAAswtquMOibuPR93/re71o5AAAYb20TBn0jlxIG/a2VAwCA8UgYAABAEwkDAABoWtuEwb9Zvmk/PwoAwCKsbcIgThr062KsNAAAMLu1fkni6NGjfLQSAIA52Mj3MPi7GlTOxy4BAGjbyISBlyoAAJjORiYMcvz4cVYYAAAYaW0Thr5vetT+w4cPkywAADCFtUsY/P4EJQV8pBIAgPlY2xUGAAAwPyQMAACgiYQBAAA0kTAAAIAmEgYAANBEwgAAAJo2KmF4/uzZ7pVbbuleePjhavl+mvdc/O2V+jip6IupXHb+3Lnu47fe2j1+xx3dc5//fPfhG27onn7wwUvaLyvNU/PVvDV/HYeOp1Z3Wovse1n4vv/sI49Uy6fVOmcnT57cfQzyXSfAeiFhOCCLShhq3z2x7AmD5tU3n01NGBTg5zEf3/f7lTBY3xenAVhdJAwHZD8TBnFQnncAmYehhCEGTtVR3Vq9WSyy771a1oRh7DkjYQDWz1omDC+eONF1hw7tclB2kH7xXe/qXr3uukmZ/j7/zDO7bVW31tZlkyD/6KPdt6++elL+8u2375a7f7eNZZPyMo7HtZwwaElX31Q57c9ytxKGIQ4CX3jsse59117bvee1r70kEHhVQvslB3e1d5nk4JTbx4AT29kyBO5nn3qqe6Tcl1/85Cd3554DeJy/n3W7LB9zPiYH8txe4/o+iHL/Q/LYEu8TzcX7NZbG1H7V+cRtt03mpf2fKo9F/c3HPQYJA7B+1i5h+MYTT3TfuummS5IAc0BXsFe93QSiJBiT8tLmpXvv3a2vYB4TCicT3qc+Xj18ePJX5UoQnCRc1nfP9rIkDAoeMWh9qNzWXwc2JwkORg5A2v6D+++/pK8Y3Fw/JxmRAthQ+UFw4HZAzcedj1Pzj4FV5ySfA7f1OR1KjFR3lkCd7y9ve+w8T237OFTHyYXmpv1KmJQ4OakYi4QBWD9rmTAoIciBWGpBWgE8rwSYkgIlH04I1M7JxqQ89Ke6uu3kwvUn+0q9eDu3df292GvCEJ9pxiCjfXrWGQOXgkxfsFPgiQEmB6iaZU4YHGglzlO3Y1k+7iy2VbuYbNSoTuu81eR28b7MiUsuj20939Zx9SFhANbPWr4koSDsJf9WkM4Jg267rcQEIQf9yIlKbCuuv+wJQ19wUpmXryMFFNfR7VgWkw+Vxbo1Dk61soOi+StQ1oK6g2w85nzctfPmY9TfvvNtQ/eJxtBY7jcmH7md56r9teAfy2Nb3yckDABs7d/0qATAgboWpGPCoNvxJYjaCkMM+pHq9L0UIqucMPSViYJKDFg5wKh8XRMGnZtcJg7osTweY+ucypg6NbldnKuOJa8wxH2xLQkDgGztEwYlAdMkDDGoa//YFQb37b4y9ZHf76AViJwwHOSbHmvByQGlL6Brf2yrQBOfadeCZ5b7mIaPe5ZzNmQoYRDNOSZKkdr6PSDa1rHHFYbWOZXcx1i5ne4Pje3zr+14ruO534+EYVH3F4DFW7uEQUE/viRwyYpBI2FQvfgphpff+tbRKwzi/uP46t/lcW4ed9kTBnGA8xJ4DEC57Mm7774swOh2XELPY+m29rlcwcplY/jLgmY59j6a81DCIAqonnM+Lgdq79f7QGKCkM9bLfmI/dfK+8R2uq25+P6SOLfY734kDLKI+wvA4q39CsOm2EvCsOp0zDxjXS5DCQP3F7CaSBjWxCYmDGfOnOmOHDlC8FlCtYSB+wtYbSQMa8IJg7/HP/6WBLBf/HKD9K0wAFhNJAwAAKCJhAEAADSRMAAAgCYSBgAA0ETCAAAAmkgYAABA01ImDPpI4NBHA/XRLamVAQCA+VvaFYahLyLyF8Bs0pcUAQBwkJb6JYmhlQR9U9zRo0cnyUOtHAAAzM/KJgyilyx4aQIAgMVb6YSh9n31AABg/pY6YWglBLwsAQDA/ljqhEGUNOgTE7WVBiUKShj45TsAABZr6V+SGPrVRVYYAADYH2v5HgZ/JJPf3QcAYD5WOmEY+pSE9uulDL6rAQCAvVvZhKH1coQSBVYYAACYj6VNGGb9pkeXkSwAADA/S5kw+Lck+j5SObTyAAAA5m+pX5IAAADLgYQBAAA0kTAAAIAmEgYAANBEwgAAAJpIGAAAQNPCEgZ/0+LQxyMBAMBqWPgKQ9/vPQAAgNVBwgAAAJpIGAAAQBMJAwAAaCJhAAAATSQMAACgiYQBAAA0HVjCcPr06e7mm28mmQAAYAUcWMKgbe0/cuRId+bMmUvKAADAcjnQlySOHz/OCgMAACvgQBIG7eMrowEAWB0LSxj4LQkAANbHwlcYAADA6iNhAAAATSQMAACgiYQBAAA0kTAAAIAmEgYAANDUmzD4Y5F9H4nUVzu/7W1v4+OSAABsgOYKg76NUclDX5nUygAAwPpoJgz6Vsa+pECrC1qBUJ1aOQAAWA97Shik9tXPppUJ/SKlXr7IZQAAYHXsOWHQL00ePXq0mhSQMAAAsB6aCYOCvRKCvp+g5mUJAADWXzNhECUNWinoW2nQ/r43RgIAgNU36iWJoV+bZIUBAID1t/D3MOi7HEgmAABYbXtOGIZWIFSmhGGoPQAAWH57ShhaL0f4vQ995QAAYDU0E4ahNzSqrJZMOJHg5QgAANZDb8Lg9x8cOXKk+pFKrR7wWxIAAGyG5goDAAAACQMAAGgiYQAAAA3b3f8H2biOjJGFqdYAAAAASUVORK5CYII=;" vertex="1" parent="Vc0u8H7bBP-6HvQgigGw-7">
          <mxGeometry x="30" y="40" width="540.89" height="375.5" as="geometry" />
        </mxCell>
        <mxCell id="RatdUIuzDqVgJPiv20Ux-0" value="" style="shape=image;imageAspect=0;aspect=fixed;verticalLabelPosition=bottom;verticalAlign=top;image=data:image/png,iVBORw0KGgoAAAANSUhEUgAAAa0AAADxCAYAAAB4begPAAAAAXNSR0IArs4c6QAAAARnQU1BAACxjwv8YQUAAAAJcEhZcwAADsMAAA7DAcdvqGQAADQsSURBVHhe7Z0LkFXFmcc/hhlmGB4j8hBFXhsQohAQVlFMhEVUfIABSsGYSAICZaBMtAwEXddYFKhsSjcsxuURdtEkggZQ0IgEicQIQgJCQAWhAoMgKCIODMNjYGb73/d8d3oO93HuzNyZOcP/V9V17+0+p0+fc8/9/v193fd0vYKCglIhhBBCQkCG90oIIYTUeihahBBCQgNFixBCSGigaBFCCAkNFC1CCCGhgaJFCCEkNFC0CCGEhAaKFiGEkNBA0SKEEBIaKFqEEEJCA0WLEEJIaKBoEUIICQ0VEq0fvfEjm2Jx7PQxuWnhTfL0+097OYQQQkjVkLJovbbzNdlwYINM7z/dyynPrzf92r7+uNeP7Wsi/n7w73LNC9fIgeMHvJxI/VfMu6JcXk0Rq32EEEJqjpREC17Ucxufk+n9psvFjS72csuAcV/6yVIraE0aNPFy4/P2nrelaYOm0jirsZcjsv3wdmnTuE25vJpi/7H957SPEEJIzZGSaMGLatOkjdzR+Q4vpzyPvPOIDL1sqPxr63/1chJjBcrU5woc8m7ocEM0D2HGvGfzbGr7XFvr/Wj+v//l320oEvnPf/C8fcVniCvQUKXuHy+k6UePee/r98r6A+vl0ucuPWd/tAPH07pd7xDbue3QbYMenxBCSGwCixYMr3pRsUBYD55JkLAggEHH9t+97LteTlle1+Zd7WcYeXhj+ybsk4IHC2Ri74lWGLEdxO2/N/63jPrWKPlm82/K9LXT5ZG+j8jR00elsLjQCghCexBA7Lt93HYb1kQ7kzH5msl2n2GXDZNHrn3Evkf639v+15aj7lGvj5JZN82Kln1434dR7xPXCO3Y8dWO6LZou+5PCCGkYgQSLYiEelHxwoKPrHlEJvSeECgsCCAs+wv3W29GvRV4NB8f/th6XxBJvF8weEG0TgiQihKAqAxoP8DWA1G4pPEl0XAe2nv1xVdbAQIQw9LSUlt3EHBOEDkV0FTANZpy7RR59ZNXZdTyUXJvt3uj7SCEEFJxAonW6vzV9jWeF/XC1hesQMQLG8YCIgIxggek3soLt78gTbObWmGBhwUPyhVJ7ANR0vfw0rSee7vfGw03avmST5ZEBfGGl26QJ/s/GTh0qfVefcnVXk4ZaNOC2xfIxJUTbd2xwn4Q0w2fbbBCS8EihJCqIaloweN4ct2TcSdXJAsbxiPZJAy89wPPBSKgQFAgLipu2AdCBk8MHtnbd78dFUSkVEU10SQMiN+nEz61oUts607xh2c6fMlwK6CfFX5mrxEhhJDKk1S0Ek2u0LAhQmGxwoaJgMC4Ey6Am4ewHMQAxwAQBYTr4FHBgwEqbtgW2yFBKJAPwYEwJgIeEjyleONcCDtqKDIZGkZ0BQtjWPC4MOOSEEJI5UkoWskmVySbTRgPGHbU644X+fP0mDpzDwL0/r3vRz0qDQMiH/tg0sO+Y/tsPkQPnt+sjbOi4cFE4hQLiA28vq5zutp91ZOC54mZglon2gehxTWAR3X53MvtdjNvnGlf4Q1CbF1PjBBCSMWoV1BQUOq9LwcM8NDFQ+0MuViiBAHAmM7S4UsDjxMRQgghlSGuaBFCCCG1jUCzBwkhhJDaAD0tQgipE2wx6WORsztF6rcXKX43km3JFcnsbCx+B/N+QORzSKFoEUJI6Cgw6TOTNhpx+qvI6ZdsbiByHjKi9rj3IXxQtAipCo5f6r0x1MsQKS3xPhBS1UT+BlRhKFqEEDme570hpJYTctHiRAxCCCGhgaJFCCEkNAQSra++qifDhzeSBx9sKCdP1vNyCald6H2al9fUppdfzvJKao69fxR5916R06dFPnpOZONjIme9strEl9tqb9tI5PtZdavIsQPl76nzkVB7Wrt21ZfRoxtaY1URtm7dKs8++6xNs2bNkvz8fK8kvZw8eVJefPFFe/yqBO3Heeg5Ib3zzjteaTDQJrQNbfSTrnYrBQUFMnv27LjHT8a8eQ2kT58zpp6jNt11V7FXcv4CIwdjB8GMB4Qqf5FI+xEi9SNZFhjKZT0iSQ1mdYD2QEBx/KoERh7GXs8JKdF1iUUycUd9EBWSPgKJ1oUXlsrixceNETwhOTl1Y94GjPmaNWtk2LBhxoN8UO677z7Zvn17hYxlbSIrKyt6TnjdsWNHtYlxZYAQLly4UNq0CbbemR9EAA4cyJB+/WqXr5DbzqT2RgwaiDTuKNKwdXlhSCcwnp/8WqRVPy8jDkVGjLCYQbNuXoYB+26eJPJvK0SGbDGv5vOh9+qGJ9b3d5FzGvQ3kcPrq14c00F2c5EmnSOv7j11PpJ09iBCLGPHNrTvH330lEyadMq+Byg7dKierF4dCcOMGXNa7r67YXS79eszjTDUlw4dSqJ1zJ17ItoDhoc0dmyurFoV+RmPHl0sTz550gojjNCUKTkycmSxrWPatGzp1u2sLFhw0ogo6ivbT9HyTp0S/7TQo4eB7Nu3r3Tv3t3LLQ9E7YMPPvA+iQwcODC6LcqOHDkiQ4cOtZ8hCm+//bYMHz5csrOz5dVXX5UrrrhC1q5dK0VFRZKbm2vOY6Tk5eXJ0qVLZc+ePXY/lyuvvFL69+9v38OAr1q1yr6HCA0ePFjatzd3qQH7N2vWzL7X9mnb0I4VK1bIoEGD7PYQ4FdeeUV69uxpy1Hv5s2b5c477zTXOMdeh8WLF8sNN0SWe1m+fLkUF5f3TrTtq1evTtruZNcM4LppPVqOdqD+W265Rd5//3359NNPo20Mit5LuO/gbbnMmJFt70Gg9+HKlUXR7eCxjxqVI9u2Re4nvX9xD06b1kC+8Y1S+clPcmw+wL3o7m+p4OxBGMy193gfDDCoLTzx0B574W7TxjmR91qOO/zDp0UuuU3k4xnmuhoj3Mx4Dn3miTQwxgxe0cE/iXQ2noV6E5dPiLz6QTkEtZ3xpgA8kvX3iXzTiJa2xQ/qXz/GCN7+yOdO48rqxznBc+s5NSLQqO+Dn5nynxvDe3Hi80JbNM+l55Nl7XOvWa7p4/T5TaReoMf+xo9E/j4x0j5tW6zzcs89UbuBe76KXvOD5ue6eYqX6eBel2TX7Is1kbZoPe45ByH/SzE2U+QHPxC55XovMxZ1ffYgBAahFohNLH7/+yx5/PET0q5difzpT5ny7ruFxmPJiIbs8APfsyfD1rFx43F56aUsayRgEKZOzZERI07bss8/j/z3YObM8t2Hm27KtQYH29xxxxlZsiQz6vmhvuHDi2X37mO2/L33jicVLLB371772q6d6bLEAMYdHsro0aOtxwLjCq8sqMcCw4/tIR7333+/NfxqzCF0yGvRooWtF/UjqeHHMSB26i3169fPChEMu4K6YPxRDtGAEMXyED///HPblnjn6QKRmzhxom0T2oY2ov7x48dbsU3W7iDXDO2G4PrbrfWnIlIK7qXrrmskHTs2sZ0Y3C8Yz8LYlhs2hljpfYh7eeHCLHsPYpvJk3PkmWdO2TLcS+hs6XhYYWGGbNlS397Xr72Wae9F7I+OVGWBUTy2I9LrR4LhhgAhX4EBgyGLVY5Vc+AN9TTihfLmfcz1mBspgxGHYCUDhvTYJyKtB3oZhqPmM2h6WeTVD46/ebI5rmmL67GkEhZzzwvGGWKBXy6M+G0mr82QyPmiHEmNN9r7kTmueoBoA9riXrP9y8z9+AuR61+NbPelaRv282OvvznXZld6GQnA9Rxozg9tQtvQRhz/Oy9EOgloHz5DiHA+2m4VpSDXDGINIUc5jpO/sPx5kQiVHtOCkFx2WcRZg1eUm1t+fAne0wMPRK78pZeWmB99qRw+XM8agr17M4xxi/RW4V1NmHC6nOAB9G7VM0PoByEgGJt0ASMKY9qlSxdrTAG8AYStdu82d1RAIDYQAhjitm3bWpEJAo6BY6tn1blzZyt6KrQAwgGvBHTs2NEK06lTES8A75csWWLHs/B61VVXRc8jXQS9Zh06dIiKnL/dFQWdFHRWIDYDB561HhDEB50adG4U9z7s1QudINPjLRIjdJm2w9WjR6Szg33gZa1blyknvH6a3tddupRE79eqAMau43DvgwEi0cA40acOexkGGEE12LHKYQTVy0AY8MTB1EJ4R0xfqgnqTSHUBK8C4SkNJ2JfeC+H1gU/tnteEI0zR82+AQw02tthZNk5ow1oiwotgPcFIUe7cs12jUy5e83gpWE8a8VVIhffXFZXOglyzSCGXTyRi/VdJ6N9C+NEmE5LQi+rDlAjEzHy8yOiA2Nh7HFC3DEKhGOqa1ytefPm3rvqBeIGj0QnUjz//PPy5ZfG73eACKpXAnGDd6Ni4Y5pIR9em4bm0k1NXbMgXHvtmeh9A6GbP/9EVNQuvrikWu6pWCA8pZMCYESP7fQK4nDa9H0SGbIi49gGMf4AvfgDb5n7aZiXkQLVOTbnAk8EXppeszdMgmfl0qx3RKwA2th7avkwp3pw8JYgGvgOqoNqvWYZ3zCewE+NYv/KHPQ6kXoXOSkSIg8rNSJa7dtHDAQ8LfR2FXhgBQXpb1LTpk1tL9/1XvwcPlxmGeBJFBYGW8G4KkDoTMNvmnRsKBUgZPB+gnp5laUmr1ll8Hvv2qlKNwgNIUSEUJGGjDDYngj0vjEYH49UBujhnWQ2LTPwCuo/ZfpJrvfix+/RFcX/KVU5bvhNU7yxt0RAQDBjMlXvtKKk7ZrVa2u+yBvMF3e/EakXTNpmFHKTOcEnTOEPjXiZGy3XfJmaMoyLF2KqVbSWLcu0QtW581mbAMIzAEYD4wwY43LDOonAhAyI3M6dqfVf4J0gdAUvRMeKYGTfest0Ow3wZDA+o2U7d+60EyogJgoMMvbBNhhzgggGBV5S48aNZdeuXV5OGZ06dZJt27YFHj9LBNqG80CdCs4DITm0fdmyZfazCwQdeRgP8xOv3RoCTXbNaiMIFW7YEBm3AghNL1rUwIYEG6bSIW1kzjvVJPOMyIyR+g3NtTafd8191HhaPU3+xmi5yKPR7VGe2XSM5F5qtq+P72eMSStt2enTe+TjGQOl5bXzpL63fTShDqcepLNm//xFY4zRXnnO9k06Fcgltz1q60O9uv0//zDTvja7cqMc2dhTjmwrO3b+woFldZk2FeUPNB7fHrv91qljEp6XzZc7TYocC3U0bP2ofLGmfJuRWvVbKZ/M6inHDnh1+ROuB64Lrs85ZZgAhMG7SLv1GkSvWbJ2m5TdfKMcN9sUxTl+447zjPc2xu7v5ge5ZuXabduKaxLnPN2Ua0Qqe4nk779fvve9RTJnzptmv7pLQtGCkOAPxRjYxkA2JlXgPWZjBWX+/Cy56KImdj8Yg7lzi6woIeE98lCGbRCmSeW/NTr+oIPvGJDHwHwQMPDfqlUr0775Ngw3b9486dq1qzXAGHeBh6JlOqlCQ3DXXHONfUXoDv8p+ta3vmXDcqkwYMAA+eKLL6JhQA3hwaPCeJiOSyHhv0sqBslwx7TQfpyHeml41XNG2yFmGC9zgaBjH63Df+x47U52zRIBAcV1xH4IjSIcqtcWZekEoULMOH3ooci9jQkd6Dj5ZyCmg9YDjfEznZM3unWTZea7yGrSxHha5V2tXXPm2DKkEwcPSs/p06W+FxoGa++5x5atuOoqaT9ypLS7E4YOYcQj8u7w4bYMdWg9H82YYcuL9u2TM0ePStPLYs+2uHzSJGnep4+tF/v9+eabpeV119ljNzGf+/zmN7LZbOMeu4XZHuBV98W5XXzjjeecVzI6jR1rvND1tn6kva+8YvNRd09zDn8295aW4TxxvkHRa4a2NWzdOnrNgrQb597BnKse33/sNoMH21f9TvV6J7tmVcEFF1xgJzpt2bIlsL0II2l9YC5mYcF70mnshJDgwFAX7t5tBcTPWSPmmx95xPTUR1TI8MGYNu7YMWqwSfhBBOWXv/yltGzZUsaNG+fl1j1qZEyLEFKzQAgpWHWHN998084oruuCBShahBASciBY+IN+XRcswPW0CCGEhAZ6WoQQQkIDRYsQQkhooGgRQggJDRQtQgghoYGiRQghJDRQtAghhIQGihYhhJDQQNEihBASGihahBBCQgNFixBCSGigaBFCCAkNFC1CCCGhgaJFCCEkNFC0CCGEhAaKFiGEkNBA0SKEEBIaKFqEEEJCA0WLEEJIaKBoEUIICQ0ULUIIIaGBokUIISQ0ULQIIYSEBooWIYSQ0EDRIoQQEhooWh4zZmTLyy9neZ+C8dVX9WT48EaSl9fUplT3j4Vb53XXNZJdu+p7JVXHyZP15MEHG0bbjXOvDei5o21oIwk/p06dkmnTpsmWLVu8nAhz5sw5Jy9VUMeAAQPsKzl/CLVowaCPHt3QGruaYN68BtKnzxkpKDhq0113FXslFefCC0tl8eLjsnv3MenSpcTLLU9FBNZl2bJM+/r558dsuydNOmU/p5v16zNrnSC988478uKLL5o2nfRyYuelCxwDx3r22WdtWrp0qVdSebTurVu3ejlVR9C6FyxYIC1btpQePXp4ORFuvvlmmT17tuTn53s5qQHBQ8L1GjdunJdLzgfoaVUQGN4DBzKkX7+zXk542LMnQ6699ozk5JR6ObUDFexnnz1R69qWDgoKCqxRb9y4sRHzB23q1KlTWkSmJlBhGTFihJdTRvv27WX8+PHy29/+1npjqfLZZ59ZIczLy/NyyPlCUtFKFEpCzxl5eAW6rfamka9ege7vegj+8JrbC9e6tA6Ua7hM9+vdu5ExclnSsWOTcuVB8J/XtGnlQ2R6bvHqLSoS2bs39uXz1+2eF9oO79CtL6jnpNcRbR07tmLhPbQDYhsL1O/W5Xqy2O+xx7LtddHvDK+ul+s/by1HPbiGN92UK/PnZ8lFF0W+L3d/9x6JdT5aR6xtsK+2Xcv1nqwK4HmpJ4SkogLRgbfx+uuv2/y33nrLfp41a1bUg8A28Ch0X9SlfPDBB5Kbmyu33HKLlyPSvXt3mxR4ErqvWy88nYULF9q2aP14xfEA9nv++eflyy+/lFWrVsU8vnte7r5VUTeECNcFXlA8Yenatat93b59u30lJAhJRWvmzAZy8cUl5oY9asNJMHgwEAChsblzT1hjAeOjYacnnzwZ7SnDwKJnj/03bjwuL72UZQ0QDNzUqTmmF3Y6WjfA8Vxg6Dp0iBz/jjvOyJIlmdEeOeobPrzYhtJQ/t57x01PNZjn454X0qOPlvX20L6nnmpg60fZM8+cksmTc8oZYAjlqlX1bftgJF0DvHp1pkyYUP689NpUBoQfta247tr2IOE9tA1thGBAOFT0UhH6wsIMeeihbHn66ZP2vNq1KzHXoKzDMmVKTrlriu8I3xW+E3w3K1cWGREsjoYltRzoueG8/KDtuP74HrANvm+Ikt6HAOej9wnqWLgwy7apssBw79ixw7R7tBHkB2XgwIGyZs2aqHgUmd5LcXGxzf/oo4+kZ8+e0qZNG9PG3db4L1u2TLp06WL3RR2oC3Wi7NNPP5W2bdua30qOrcsPRKCwsFDuv/9+u3+3bt1kxYoV5hwj4oHjoi2DBg2y20AAIYRg6NChNq9Fixa2berJ9e/f35b7zwttRFvRLlCZusHBgwdt2zt06ODlnEt2drb06tXLfJfrvRxCkpNQtGAsIFL33XfafoYQjRxZLOvWZUYNAowNxAtitGJFxFi7oR0YqQceiOx/6aUl5iYulcOH68mWLfWtpzJw4Blbhn2w7/btGVHjD2CgdawIoTi0p7LGCEYax9Hz8rNpU4bcfXdxVAB79DhrDfTOnfWjBhiGc+DAs9YQ+w3wrbeW7YvzQigOwl2TqNBDMPCdqOilIvQAwoHt/eel32e8a1oZIIy4/vgeAM4FQu3eh+590qsXxCviDQcBHgM8B/UY1DjDgG/evNkadPUW4AWpKIGsrCxreAGMeOfOne178Pnnn9vya665xn5GHahr165d9nMiIEwQFYigihrqgXjs3bvXfgb9+vWzoTZsAwE8cuSIV5IYtKFv377R87ryyiutUKHNSkXrBl9//bUNe8YTZOWSSy6RQ4cOpRwiVMEn5x9JRCtDNmzIiIbfkOBZ+IGhWr06y/TKzgQygPn5EUMDQ2R+gwlxx4wgjtUx3gFD7Ibf1DsJinpjuj/qquvgOw3yfVYUeHDp+t4hNurNIMGAuzRv3tx7lxpHjx41nawDMQUxCBC8pk2bep+qDogxvCA3tDd//nzrNVYVGHMKwgUXXGDboh5eMt588007Y7BPnz7lwqrk/CFp9x8z2DT8pskVDvR0EeYbM+a0LFrUINBYQvv2kX3RM3d/J/DACgpq1iNR3PCbJohmMjSU9ZOfRMKDSLFCXnUN/U7Thd/D1o5PdXD48GHvXZnBD4pfEJEQXoMHAk8EHkM8gw3PB8KnwBupSmFxQ3tIEydOtJ5VVQAPKghBPTIFQrV69WobUoSAkfOPhAqBcB6iB5jaHQ8dqxkw4IwN2ej4ViywLYSqc+ezNgF3TATjEBjj0jBbMi68EGGgDBu2SwX/fhgbcSdiwLv71a8aBB7riYUacdSBulxwbAg08B87CBi7cUNjVYmKg4pv0E4Evk98t4nG7po3LzVebD3Zty+1jgnCffD4EYIEaBs6SAhVp9Pr1rAYwnQ6jrRz504rHH5vLBbt2rWz277//vteTnkQVkS9bjnGmpAQtmvVqpUNT6qo6cQNNwSZCBVGfzhSz2vt2rXR80qVeHUrQT0oeGSYEo/xrVRA+yH45PwjofWAQcCkChgyDXUh6QA4XmGQdRxLx37Gjs2NCpc7WwyGZu7cIitKSHiPPJRhG4SAdFwiCDq2oZMhgk4q8O+HcKDrDcGjwtgNZieiHMk/Uy4eqBvCq3XD8H/ve2XnFOvY7iQQnbWIkCxmRqIN/vMaMiTi8el1jTXbriK49Q4enGu957y82P8V8+P/PpH81wyhY4wV6nXVcoikzjpEKBUi7p4X9luw4KSdBIJ8XBtc4yCeb2XB5AKMQyF8hjCaTk6INyPOBduMHDnSip6G4ZAgSgBezeDBg2Xbtm3RMoiAzh6ERwZh0PAi6hkyZIgVjKAglPbFF19E69cZfv7zQsLMx6BhOhCvbtC6dWvbdghjPOA5btq0yYb6CAlKPdPTSltXFQYY3pM7m5AQcn6A/2jhaRXTp0+PKfIox7T4hx9+OGVPC6FBeFr8Y/H5R+0YQCKE1Dnw51+kRYsWeTll4C8D+O/X97///ZQFC1R01iEJPxQtQkjaGDVqlBUXeFUu+CM2nohR0YkfEEOMhWFiBp89eH6R1vAgIYQQUpXQ0yKEEBIaKFqEEEJCA0WLEEJIaKBoEUIICQ0ULUIIIaGBolVJ8BicKVOmRJeqIIQQkj5qtWjp432qckG/qgR/bMTCfNdff32VPWiUEEJIfOhpVQI8bRrgGWyEEELST1pFCw95jSwtn2EfjoqHnbpLz7sPSnUfkArwXtex0ofLIunDeuF9uXXhwavuMvZa/o9/ZETXttL6sU+ypeOTgbDgX/7ylwo/hoYQQkjqpN3T2rEjQ0aNamiXaMe6XFi+QpeYSLSUP56Erqvs6urASKk8BR6C98QTDWX58iK7dP66dfWjopZo6fgg7Nmzxz7FGk+zJoQQUj1US3hQl2jH8hVYTgIL+MGrgUglWsq/snTrdtaKEo7rLvWvxFs6PggVXQeIEEJIxUm7aGHlY13wEcCDgrcUdCn/ynD11SVWrACECSsuV9UaTFyAjhBCqp9q8bTikWwp/9oMVk4lhBBSvdSYaAVZyh/ihTGvNWtir0aM8bGiosjEiqlTc+z4WXXB9XwIIaT6qTHRgiAlWspfwZgXZvn5yxHmQ0J4EbMMb7zxjPXcqosOHTrYca3t27d7OYQQQtIN19OqBFjye9OmTRVaLpwQQkjq1OiYVtjRPxXrn4wJIYSkF4pWJYB3NXHiRPsnYz57kBBC0g/Dg4QQQkIDPS1CCCGhgaJFCCEkNFC0CCGEhAaKFiGEkNBA0SKEEBIaKFqEEEJCA0WLEEJIaAiNaOkqyLq6sK4+rIs6EkIIqfuEQrTwwNzevRvJ+PHFdkFHgAfu3n77WZuPckIIIXWfWi9aeKo7lsXHcvn+BRzxGfko9z8dnhBCSN2jVj/GacaMbOtFzZ1bFPWwYoGQ4dixuVbEsDIyIYSQukmt9bQgRKmG/V57LZNjXIQQUoeptaIFz2rx4uMyYsRpGTw4N64YIR/l2O69945Lp05nvRJCCCF1jVA85R0e10035crKlUXlxrUgWKNG5cgzz5w6Z7yLEEJI3SMUswd1wsXs2VnlprwvWJBp0kkKFiGEnCdwPS1CCCGhIRSeFiGEEAIoWoQQQkIDRYsQQkhooGgRQggJDRQtQgghoYGiRQghJDRQtAghhIQGihYhhJDQQNHywBPl/cub4HNeXtNqXa+r3uHD0uiGG6RpXp406d5dMnbs8ErOb/a+8oq8O3y4nD5yRD6aMUM2PvSQnD15MlqGPELSCe493IO4347t2iWr+vWTL9ev90pJdUHRqmWUNm8ux99+W479859ytmtXLzf91DtxQhred58VTAinzTOvuXfeSeEMKTCoyzp1sgkGFobWBcZXy7VDoKBDgI6BlldXp8B/3Fjtrg5wvjg+Ran2cd6IVixPKhl33VUsBQVHz6tnG5ZecIFkfPyx96n2kNuuneS2by/1GzaUxh07SsPWraV+To5XSvxAgPIXLZJBf/ubDDFG/7KJE2Xz5MlRYYIxzl+4MFrevE8f2Tp1atR73TFzpr3GKMM2h832ELl0g++09zPP2OMi9TTi4ba7OsC1OfbJJ3JR//5eTgTce7gHcS9mm85lk86d7auCiAzsDEkvdV608GDdBx9sKAcOZMiQIWXio/kI/yFNm1Z2s+GhvMOHN7L5113XqNyyKFrmhgxj5SUj68UXbQhQU/2//tUrSYx6RLof3iNPccOLscpxHC1DQjtcztx4o2QtWVJuH8Vfd/bjj0fyzbY5pnfc4H/+J5qPhPfuebnn7Hp0QWhhjCqMGYxaO+P9XT5pkldShvaO/T1kDetoGVIqPXjXI9GkngeOA8/g661bbZ1uGfAf22/4sb+W+duEbZHinVciGjRrZq8XXkGzK68UPGT0lLnmECYIWvuRI6PlbYcNk+P5+VK0b59tA46DPIBtsO2hdeuiohYPlP/jP/5D/rlggW0v2q7tD9p2F4iCtjEIlblmAN/Xx2bfDt//vmQ2berlRlBBxb2INvWZN0+amPqVHj3OWjsDuwL7QtJDnRYtiMk99+TKxReXyLPPGsOaU/Zs4JkzG9h8eFJIjz5atuKxruW1e/cx6dKlxMuNgDJ4XmvWuEKWYQSuRDp3DraWF4x3g//7PxsCPFpQYNPZb3/bK01M5ltvyamf/czuc+zgwUjeH/5gX0ED00M+/cMfRus9YX5YpaaHCCAS2b/6lRRu2BAtL/7BD2yZcrZbNylt00bq7d3r5ZSRZY5T9PLLkWObtmcaQVJRqnf0qNT/+9/l+DvvSAMjeiXmx3xi1izJ/NOfbDm2c88ZbcwxPehY4lgRds2ZYz0w9M77/u531vBo73zX3LnWk0DZv61YIbnm/NCDdw1OPGDA9xiPBPth/07jxkmbIUOkywMPeFuI7F+2TLb+4hdy/auv2u1gJLEfDDi8Fxh87AuPBd6NGlFsA+OqdcfyKjZPmRI9r55PPmnFJplwJOOsueZnzPcFIQM4Ho779ZYtVtSQGsGjuPRSW472oh1FRtSwbzKKCwvliKnr+qVL5bM33rDtR9u/WLPG2yI4Rz74QJpcdllKwuVeM/+9kAy9V1pcc42XExzYF9gZ2BXYHV2RglQtdVa03MUh/Uvwo2z79gy5777TXk5qDBt2xu6vN+WmTRkyaNAZK2jJgHDAeJ984gk7fpUqxd/9rpR06WLfQ4zOmN55hvlxumQa4xBPDOp99ZXUN6KViDPmR5v1+997n8o4PX58tM14PWOENmP3bvsZQIhKc3PtWNyZW2/1ciNAvNxzRnk9I14QR/VU1evVlEqPFWICDww0NUYOHP3kE2usENpqZa4TgCFu1ru3FMUQ5VjAaLoGHPX4jbcVwaeftoYV22F7GH54LVmNG0ubwYPtduqxqPFG3R3MZxXPZj162PAT2q245wWRgdgEEQ4XiNwnv/619RBcoUY98BJXXHWVfNN4rjiWe12O7dxpvT8Y/QGms4T247yC0H7ECBtOQwit9cCBXm4w8J2pd/qJ6fioxxcU/70QtN3oRCAs2GnsWC+nYsDeJFu8llScOitaEJJt29Jzw1x6aYkxqiI7d9a3RnXr1gzp1au8RxaPel9+aSx+qZS2bOnlpAYmRWBWoYbZGk6c6JVEOP3zn9vXJq1bnxOeg2CcMMYrxxihRCG6EmPUgb/MH1rM/q//8koSAwHN2L9fGt12W3TfJv/yL1J/+3Zbrp6ter2a/N5xUHTswX2vQgEhQRhMvQwAT0JDSUjuzESMXxzZuNHuB1APeuJuzx8iqKLmhpBgKPcY8X/DeK9aN7wApdAIPj5rGbaD1xYUGFkNSSL5J1MoGJ8CrneI7f4ydKgVF3gkEMwTxnPH+QLXe/zO4sXmlo18D+4YTkXBtXUnWyC5ITxcWxwT7cLx4QW65amCc1XRinfNVNi/YQTL/W4rA+zPkiXVN/P4fKHOihYmUSC8t2hRgyofHIUhvfbaSIhw377IJYSQBaG0RYsKeVgAItLwxz+Wk6ZXrOE9hOBc4H0hJIgyhAFz77+/nHDBSzu2dWs0RJd7113niBPqQHgva/lyLycilqjr+BtvRI996qc/9UqD4e6LhHagPVXhablo+AsGFiKCCQUIH8JI/XnQoHLeDYDAwEBq0rEzoEYa+2F/eG2p9MQRSrxt27Zy9bvjcQibuWVIaE8QcA4DjYjqfjD0foOL8CPa3P2xx6LnpEKOY+ux3GuGdIERMfUeAYw+xniwb2VRYQ9yzjg+OglBPeNYoA79HuNdM3RK0DlZe8899nvWDgQ+u52YIMDewO7A/vijPKTy1OkxLfTgf/e7onMGRy+8EGNZGdZTAphV6E7ECAI8q2PHRP761/py++1nA3sEEKyzl18u2f/5nxUezynp2NG+QkjgNcUDAlnSqpX36Vy0nlggfIdZhK6glRjvUD1ECGFQT0vDmDmPPx7Ts6tqT+vgqlXWwML70ZCPzpJD0tBRED5dssTOvPMbuSAgNIVQ4n5H/F0QakT4C21MBypYmDDgthmi0fLaa8sd271mGuKE5wFjjYSxNOyjwlddoH3wslzPOBUwRqXnlQi/mKGjgQ4HxsTcTkwyIFiwN7A7QYYLSOrUadEC7uDosmURVx03E3pAN92Ua3v0e/ZkyNy5ZQKCWYDI79ixiTGmWdK7d6NzZhF26nRWmjQRWb48K/AEDOXUE09ISZs20RAeknpDGoJD+Cxz5UppfPXV0T8ZQ/DgHWmYDV4XPisQBHd2H+pAuU7y8If34DkhXBjL80Me2phx6JD9DI/ozHe+Y9uDfTEud3rMGFsWBEz4QFvQJj2+f2ZjZVBPCgmz3HpOn24NDYwRBvIxbqPlSP5ZfPHAeAqMu7tvvDCcHwgFBAOTL9z9NdQF7wKTL9SLS6XuZMDYYxIEJkS45w4hAxBuiLEe271mSHgP4HEgQbBSEfuKgnPX8Syk9eYeu9J4fK5nnAz3XkDIU88r3ejs4Yp2tkgwuNw+qdPAeH/01FNypfFs1dtA3geTJwcyhjDymInmGmw1/LGm3ZOaBZ0RjBXyu6m71HlPi5zfYCzG77lg1h4CxTrOEQ+ExdBTd0FdCLlByAgh1Q89LVLngWeEkJGCmXL+cZ54wCtDiKpo/34vJzJ5ojpCZSR16GnVfShahBBCQgPDg4QQQkIDRYsQQkhooGgRQggJDRQtQgghoYGiRQghJDRQtAhJATwVZfTohlx2gpAagqJVQfwPeU11VeTKUJFVmIOAevV8kHB+qRjnZAYdj7lJ5wJ5aL//cVtVDZ7a7V+Gpq7dC/7zQcJxUuF8uBdIzUDRCgCMgvujxQ9B1+rSh7s2bhzJDztYDFPPCYtdzpvXwCupvaiRbdWq1CY/MJBBjW4iY4s8PAx14MCyFbDr8r2wcmWRPR88rRzXUJ+tV5upynuB1E4oWknADY5lBtwFI9HbvuOOM3b5E+XWW4vtQ3SB/nC0l+r2KFEGo+gaNRxDe8t4VZHU/dVYIB+f8UT6sWMbRsvdH6H/2FovUIO8a1dGdJtEvd1+/SLLh6M8Ubv1mHiwMB4wjAcNo27t6SLhPR5QPH9+llx0UaQc+2Bf4G+3/5rhM64D6vGXv/RSljz99En59rdjP7g46DLoqB/nMH58ccwndK9alWkfvOyWJbsX9Nz1vNzvCsfzn6d7jdN5L+ix//GPjGj73H1dcL7owOTnx24nqMp7Idk102NpuXteVXUvkNoLRSsOuKFxY/uXGcAPCz8cGPRYYL+pU3OiPe/PPz9m82fODO6xwAh16IDlU47ap88vXJhl64VhRB68IeTjPZKu2eM/tq4npoYO7NiRIaNGNbQ/bJTv3ZshW7bE9gqwXhjWDUv2xGpcGywtsnHjcWN8IuuY4fjvvXfcGm8kvEfPffToYntNUI59sG+Qa4Z2wlgtX150TrsnTDgdFYlYuE/6j7cMOgzfQw9l23OAgfaDfVasyLSrVivJ7gWUT56cI888E/Fe1WNxjWwy0nkvQDSeeKKhvaY473XrIqLiB+eBlbqDLHRa2XshyDWDUGNlBpSjHpwX9gNVcS+Q2g1FKwa4kXFD48ZOdZkBGFIYVA0hYV/8kNzl+ZMBQ6Q9dxiKggKRoiL7MSFYkLJx4xIZMiRybBgBGC2IjwsMAn7YKHd70AAGQXuwEGytK50EuWZ5eSVWaNHmWO0OQrxl0CGGMHww3vEMHtZey8sLvtgngGfWrl2J7d0DtBttWLcu04pKENJ5L3TrdjZ6TXFeHTqUyuHDZe3SpXvgLWEcL5EYVBVBrhnE7oEHIpEPLAuEe+Orr1IzZfHuBVL7oWjFAAZq1aqK38j40eXmeh+qERicmTOzoyEXJPTUXbp0KSm3/hd+vG5oyx3TgpdVXb3R6rxm7jLoODfX+4gFjCU8nJEji1PqwAB0fFLdpyoIci9cfXVJVITRRnTQXC9Tx7TgDUE03DBdOqnOa8Yl8cMHRSsG+OHihxor9g3DCgPr915c4DW4vWEYEKyUXB24IRdNEKaKAM+nIr3YilAd10w9KoSc9JqgJ4/QVKJeN7wWeDj+xT6D3Au4h9z7J1XvsDJU1b0AAYFg+88lXVTHNYt1L5BwQNGKg/Y8/bFv/QEjjOb20P/4xyxr8NSwIcwBtJcOowgDCWCMNQyDWD3qSgWMccQKMeHYMP66QnNlwTm4IbFk7b7wQoSvMqynGovmzUtlz556VgRcglyzygIjBWMYbxl0eJsIm2ICgd/zijXNHSS7FxDO27ChbOwN9xAMpeuxqVjjnDEGhTHHVKiOe0G/D3d8M133QpBrVlmS3QukdkPRSgJ6YTCe7tRveGIInWjMH6mwMLIEP34Ec+dGBoeRj/AMhE9DcChHne5S/wjJpYKOU2joR8M2/mNrShb+coHx0f1Qz2OPnbTGIki7/dvojDEF1+fuu4utMKBcZ4wlu2bJgNHEfqh39erIDED32Hr+ycYn8b1iAsHs2ZFZcACviSYhJLoXkBYsOGkneCAfY0O4lzQEh1ck5OOcb7zxjA3fpkI67wU9p4rcwxW9F5Jds2RU1b1Aai9cT4uQBMAIwijDABNCah6KFiGEkNDA8CAhhJDQQNEihBASGihahBBCQgNFixBCSGigaBFCCAkNFC1CCCGhgaJFCCEkNFC0PPAkAfyRNBb4Nz3WD9KnJCjYx/9Pf0IIIemDomWA6OBRPe6KtIQQQmof541oJfKkNm3KiPlA1GTg0T66uF0qoB3x2kIIISQ+dV608IRqXYE41oKGCPlhRVr/A1HxYE08eFMfvoknVivwzBAWdB/0qWC/ZHnw6PAgU324KSGEkGDUadGCSCRbgRjLYXTtWlLOW4IoPfVUA/vEb6xBhFesK6VgW3hY/nygy2y4SzJgPSA8pVo9ObxiWQQIqX+9LkIIIfGps6IF4cGifljWIN4TuiEWWIuoX7/y4T2sn4RlE1IN+wEIEo6pCwPiGFu3ZsiwYeW9PAhorPW6CCGExKfOihbGqbCUdiJ0obkePVIXp0Qg1IiJHRAiXeROF1KMBZb21wUQCSGExKfOihYWrMNS2onGjuANuauxVhUQKKz4ixAhxLN795JzjuGOtWFJ9KALHhJCyPlMnR7TSjR2lGiau7uEObylyZNzyk3ESAYECmL48ccZdgFB/zFQ75QpOQnH2gghhJxLnRYt4I4dLVtWFoKDB4QJGLGmubtLmGNcDGNi7dqVhfcwXV1nFS5enGWXBPfPGIRQLV8emdbuPwbaAVHjariEEJIa5+XKxRCXhx/OkUceOV2hyRaEEEJqBi63TwghJDTU+fAgIYSQugNFixBCSGigaBFCCAkNFC1CCCGhgaJFCCEkNFC0CCGEhAaKFiGEkNBQZ0QLj2WKtSQ+IYSQukOdES0sJ1KR1YcJIYSEh9CIViJPCnl4KK77YFrk4SG59LwIIaTuEArRwnL1eDjt+PHFMT0prEWFB+K6ZXiPh9LigbcQPEIIIeGn1osWnqj+0EPZdml7LFnvB57UihWZ56wMDLBG1TPPnLKCB+EjhBASbmq1aGHxRiziuHx5UdynsWOhRSy4GG9lYAgdBA/CBwEkhBASXmqtaMGDSuYdYTHFhQuzZOTI4kALKUIAOcZFCCHhpdaKFsakFi8+LiNGnI47LrVvX4YUFIh07hx/TSwdD0OYEPVxdiEhhISXWj+mlWhcKtk0d2yfaDyMEEJIuKj1ogV0XGr27KxoeA+v27dnSK9esceyUI7QYaLxMEIIIeEitCsXY1LFnj0ZMmnSKS+HEEJIXYfL7RNCCAkNoQgPEkIIIYCiRQghJDRQtAghhIQGihYhhJDQQNEihBASGihahBBCQgNFixBCSGhIu2i9+eabNhFCCCGVJe2i1bdvX3n99ddly5YtXg4hhBBSMdIuWnl5eTJp0iRZuHChFOCR7IQQQkgFqZYxrfbt20vHjh1l7dq1Xk4ZELIJEybInDlzvBxCCCEkNtU2EaNPnz6yadMmOXWKD7glhBBSMapNtC644AIpLCyUkydPejkRED587rnnZNy4cV4OIYQQEptqFS3w9ddf21dCCCEkVapNtFSsVLwIIYSQVKlW0WrcuLHk5OR4ORF0Isa0adM43kUIISQh1SZa69evl169ekl2draXEwEidskll8iHH34oBw8e9HIJIYSQc6kW0crPz5fdu3fbPxr7gYi1bNlSrrjiCmndurWXSwghhJxL2kUL4b8ZM2bIyJEj7UxBFzwlY8CAAXLo0CF5+OGHz/HCCCGEEJd6RlRKvfdpQZ87eMstt9hXQgghpKKkXbQIIYSQqqLaJmIQQgghlYWiRQghJDRQtAghhIQGihYhhJDQQNEihBASGpKKFqas479UfMwSIYSQmibwlHcs0ti2bVv+34oQQkiNETg8iEUcP/30U+8TIYQQUv1wTIsQQkhooGgRQggJDYFFC4s34knteAAuIYQQUhOk9OxBLDEyZcoU6d+/v4wbN87LJYQQQqqHwKKFZURef/11LiFCCCGkxkhpTAuLNVKwCCGE1BSciEEIISQ0ULQIIYSEhsCitX79evtEDEIIIaSmSCpa+uxBTMTo27evl0sIIYRUP1xunxBCSGjgmBYhhJDQQNEihBASGihahBBCQgNFixBCSGigaBFCCAkJIv8PAhsRm3Ms0gYAAAAASUVORK5CYII=;" vertex="1" parent="Vc0u8H7bBP-6HvQgigGw-7">
          <mxGeometry x="30" y="460" width="429" height="241" as="geometry" />
        </mxCell>
        <mxCell id="Vc0u8H7bBP-6HvQgigGw-12" value="" style="endArrow=classic;html=1;rounded=0;exitX=0.669;exitY=0;exitDx=0;exitDy=0;exitPerimeter=0;" edge="1" parent="Vc0u8H7bBP-6HvQgigGw-1" target="Vc0u8H7bBP-6HvQgigGw-6">
          <mxGeometry width="50" height="50" relative="1" as="geometry">
            <mxPoint x="440.65338999999994" y="620" as="sourcePoint" />
            <mxPoint x="690" y="610" as="targetPoint" />
          </mxGeometry>
        </mxCell>
        <mxCell id="Vc0u8H7bBP-6HvQgigGw-13" value="" style="endArrow=classic;html=1;rounded=0;entryX=-0.004;entryY=0.392;entryDx=0;entryDy=0;entryPerimeter=0;exitX=1;exitY=0.5;exitDx=0;exitDy=0;" edge="1" parent="Vc0u8H7bBP-6HvQgigGw-1" target="Vc0u8H7bBP-6HvQgigGw-6" source="Vc0u8H7bBP-6HvQgigGw-8">
          <mxGeometry width="50" height="50" relative="1" as="geometry">
            <mxPoint x="590" y="540" as="sourcePoint" />
            <mxPoint x="600" y="490" as="targetPoint" />
          </mxGeometry>
        </mxCell>
      </root>
    </mxGraphModel>
  </diagram>
</mxfile>
